  0
SECTION
  2
HEADER
  9
$ACADVER
  1
AC1027
  9
$ACADMAINTVER
 70
105
  9
$DWGCODEPAGE
  3
ANSI_1252
  9
$LASTSAVEDBY
  1
ezdxf
  9
$REQUIREDVERSIONS
160
0
  9
$INSBASE
 10
0.0
 20
0.0
 30
0.0
  9
$EXTMIN
 10
1e+20
 20
1e+20
 30
1e+20
  9
$EXTMAX
 10
-1e+20
 20
-1e+20
 30
-1e+20
  9
$LIMMIN
 10
0.0
 20
0.0
  9
$LIMMAX
 10
420.0
 20
297.0
  9
$ORTHOMODE
 70
0
  9
$REGENMODE
 70
1
  9
$FILLMODE
 70
1
  9
$QTEXTMODE
 70
0
  9
$MIRRTEXT
 70
1
  9
$LTSCALE
 40
1.0
  9
$ATTMODE
 70
1
  9
$TEXTSIZE
 40
2.5
  9
$TRACEWID
 40
1.0
  9
$TEXTSTYLE
  7
Standard
  9
$CLAYER
  8
0
  9
$CELTYPE
  6
ByLayer
  9
$CECOLOR
 62
256
  9
$CELTSCALE
 40
1.0
  9
$DISPSILH
 70
0
  9
$DIMSCALE
 40
1.0
  9
$DIMASZ
 40
2.5
  9
$DIMEXO
 40
0.625
  9
$DIMDLI
 40
3.75
  9
$DIMRND
 40
0.0
  9
$DIMDLE
 40
0.0
  9
$DIMEXE
 40
1.25
  9
$DIMTP
 40
0.0
  9
$DIMTM
 40
0.0
  9
$DIMTXT
 40
2.5
  9
$DIMCEN
 40
2.5
  9
$DIMTSZ
 40
0.0
  9
$DIMTOL
 70
0
  9
$DIMLIM
 70
0
  9
$DIMTIH
 70
0
  9
$DIMTOH
 70
0
  9
$DIMSE1
 70
0
  9
$DIMSE2
 70
0
  9
$DIMTAD
 70
1
  9
$DIMZIN
 70
8
  9
$DIMBLK
  1

  9
$DIMASO
 70
1
  9
$DIMSHO
 70
1
  9
$DIMPOST
  1

  9
$DIMAPOST
  1

  9
$DIMALT
 70
0
  9
$DIMALTD
 70
3
  9
$DIMALTF
 40
0.03937007874
  9
$DIMLFAC
 40
1.0
  9
$DIMTOFL
 70
1
  9
$DIMTVP
 40
0.0
  9
$DIMTIX
 70
0
  9
$DIMSOXD
 70
0
  9
$DIMSAH
 70
0
  9
$DIMBLK1
  1

  9
$DIMBLK2
  1

  9
$DIMSTYLE
  2
ISO-25
  9
$DIMCLRD
 70
0
  9
$DIMCLRE
 70
0
  9
$DIMCLRT
 70
0
  9
$DIMTFAC
 40
1.0
  9
$DIMGAP
 40
0.625
  9
$DIMJUST
 70
0
  9
$DIMSD1
 70
0
  9
$DIMSD2
 70
0
  9
$DIMTOLJ
 70
0
  9
$DIMTZIN
 70
8
  9
$DIMALTZ
 70
0
  9
$DIMALTTZ
 70
0
  9
$DIMUPT
 70
0
  9
$DIMDEC
 70
2
  9
$DIMTDEC
 70
2
  9
$DIMALTU
 70
2
  9
$DIMALTTD
 70
3
  9
$DIMTXSTY
  7
Standard
  9
$DIMAUNIT
 70
0
  9
$DIMADEC
 70
0
  9
$DIMALTRND
 40
0.0
  9
$DIMAZIN
 70
0
  9
$DIMDSEP
 70
44
  9
$DIMATFIT
 70
3
  9
$DIMFRAC
 70
0
  9
$DIMLDRBLK
  1

  9
$DIMLUNIT
 70
2
  9
$DIMLWD
 70
-2
  9
$DIMLWE
 70
-2
  9
$DIMTMOVE
 70
0
  9
$DIMFXL
 40
1.0
  9
$DIMFXLON
 70
0
  9
$DIMJOGANG
 40
0.785398163397
  9
$DIMTFILL
 70
0
  9
$DIMTFILLCLR
 70
0
  9
$DIMARCSYM
 70
0
  9
$DIMLTYPE
  6

  9
$DIMLTEX1
  6

  9
$DIMLTEX2
  6

  9
$DIMTXTDIRECTION
 70
0
  9
$LUNITS
 70
2
  9
$LUPREC
 70
4
  9
$SKETCHINC
 40
1.0
  9
$FILLETRAD
 40
10.0
  9
$AUNITS
 70
0
  9
$AUPREC
 70
2
  9
$MENU
  1
.
  9
$ELEVATION
 40
0.0
  9
$PELEVATION
 40
0.0
  9
$THICKNESS
 40
0.0
  9
$LIMCHECK
 70
0
  9
$CHAMFERA
 40
0.0
  9
$CHAMFERB
 40
0.0
  9
$CHAMFERC
 40
0.0
  9
$CHAMFERD
 40
0.0
  9
$SKPOLY
 70
0
  9
$TDCREATE
 40
2461053.092372685
  9
$TDUCREATE
 40
2458532.153996898
  9
$TDUPDATE
 40
2461053.092372685
  9
$TDUUPDATE
 40
2458532.1544311
  9
$TDINDWG
 40
0.0
  9
$TDUSRTIMER
 40
0.0
  9
$USRTIMER
 70
1
  9
$ANGBASE
 50
0.0
  9
$ANGDIR
 70
0
  9
$PDMODE
 70
0
  9
$PDSIZE
 40
0.0
  9
$PLINEWID
 40
0.0
  9
$SPLFRAME
 70
0
  9
$SPLINETYPE
 70
6
  9
$SPLINESEGS
 70
8
  9
$HANDSEED
  5
275
  9
$SURFTAB1
 70
6
  9
$SURFTAB2
 70
6
  9
$SURFTYPE
 70
6
  9
$SURFU
 70
6
  9
$SURFV
 70
6
  9
$UCSBASE
  2

  9
$UCSNAME
  2

  9
$UCSORG
 10
0.0
 20
0.0
 30
0.0
  9
$UCSXDIR
 10
1.0
 20
0.0
 30
0.0
  9
$UCSYDIR
 10
0.0
 20
1.0
 30
0.0
  9
$UCSORTHOREF
  2

  9
$UCSORTHOVIEW
 70
0
  9
$UCSORGTOP
 10
0.0
 20
0.0
 30
0.0
  9
$UCSORGBOTTOM
 10
0.0
 20
0.0
 30
0.0
  9
$UCSORGLEFT
 10
0.0
 20
0.0
 30
0.0
  9
$UCSORGRIGHT
 10
0.0
 20
0.0
 30
0.0
  9
$UCSORGFRONT
 10
0.0
 20
0.0
 30
0.0
  9
$UCSORGBACK
 10
0.0
 20
0.0
 30
0.0
  9
$PUCSBASE
  2

  9
$PUCSNAME
  2

  9
$PUCSORG
 10
0.0
 20
0.0
 30
0.0
  9
$PUCSXDIR
 10
1.0
 20
0.0
 30
0.0
  9
$PUCSYDIR
 10
0.0
 20
1.0
 30
0.0
  9
$PUCSORTHOREF
  2

  9
$PUCSORTHOVIEW
 70
0
  9
$PUCSORGTOP
 10
0.0
 20
0.0
 30
0.0
  9
$PUCSORGBOTTOM
 10
0.0
 20
0.0
 30
0.0
  9
$PUCSORGLEFT
 10
0.0
 20
0.0
 30
0.0
  9
$PUCSORGRIGHT
 10
0.0
 20
0.0
 30
0.0
  9
$PUCSORGFRONT
 10
0.0
 20
0.0
 30
0.0
  9
$PUCSORGBACK
 10
0.0
 20
0.0
 30
0.0
  9
$USERI1
 70
0
  9
$USERI2
 70
0
  9
$USERI3
 70
0
  9
$USERI4
 70
0
  9
$USERI5
 70
0
  9
$USERR1
 40
0.0
  9
$USERR2
 40
0.0
  9
$USERR3
 40
0.0
  9
$USERR4
 40
0.0
  9
$USERR5
 40
0.0
  9
$WORLDVIEW
 70
1
  9
$SHADEDGE
 70
3
  9
$SHADEDIF
 70
70
  9
$TILEMODE
 70
1
  9
$MAXACTVP
 70
64
  9
$PINSBASE
 10
0.0
 20
0.0
 30
0.0
  9
$PLIMCHECK
 70
0
  9
$PEXTMIN
 10
1e+20
 20
1e+20
 30
1e+20
  9
$PEXTMAX
 10
-1e+20
 20
-1e+20
 30
-1e+20
  9
$PLIMMIN
 10
0.0
 20
0.0
  9
$PLIMMAX
 10
420.0
 20
297.0
  9
$UNITMODE
 70
0
  9
$VISRETAIN
 70
1
  9
$PLINEGEN
 70
0
  9
$PSLTSCALE
 70
1
  9
$TREEDEPTH
 70
3020
  9
$CMLSTYLE
  2
Standard
  9
$CMLJUST
 70
0
  9
$CMLSCALE
 40
20.0
  9
$PROXYGRAPHICS
 70
1
  9
$MEASUREMENT
 70
1
  9
$CELWEIGHT
370
-1
  9
$ENDCAPS
280
0
  9
$JOINSTYLE
280
0
  9
$LWDISPLAY
290
0
  9
$INSUNITS
 70
4
  9
$HYPERLINKBASE
  1

  9
$STYLESHEET
  1

  9
$XEDIT
290
1
  9
$CEPSNTYPE
380
0
  9
$PSTYLEMODE
290
1
  9
$FINGERPRINTGUID
  2
{AD6A0A9F-8B16-4B2E-8CBD-AD947D76668B}
  9
$VERSIONGUID
  2
{DCA04254-4062-4BC4-A699-29DC69A1D3FA}
  9
$EXTNAMES
290
1
  9
$PSVPSCALE
 40
0.0
  9
$OLESTARTUP
290
0
  9
$SORTENTS
280
127
  9
$INDEXCTL
280
0
  9
$HIDETEXT
280
1
  9
$XCLIPFRAME
280
1
  9
$HALOGAP
280
0
  9
$OBSCOLOR
 70
257
  9
$OBSLTYPE
280
0
  9
$INTERSECTIONDISPLAY
280
0
  9
$INTERSECTIONCOLOR
 70
257
  9
$DIMASSOC
280
2
  9
$PROJECTNAME
  1

  9
$CAMERADISPLAY
290
0
  9
$LENSLENGTH
 40
50.0
  9
$CAMERAHEIGHT
 40
0.0
  9
$STEPSPERSEC
 40
24.0
  9
$STEPSIZE
 40
100.0
  9
$3DDWFPREC
 40
2.0
  9
$PSOLWIDTH
 40
0.005
  9
$PSOLHEIGHT
 40
0.08
  9
$LOFTANG1
 40
1.570796326795
  9
$LOFTANG2
 40
1.570796326795
  9
$LOFTMAG1
 40
0.0
  9
$LOFTMAG2
 40
0.0
  9
$LOFTPARAM
 70
7
  9
$LOFTNORMALS
280
1
  9
$LATITUDE
 40
37.795
  9
$LONGITUDE
 40
-122.394
  9
$NORTHDIRECTION
 40
0.0
  9
$TIMEZONE
 70
-8000
  9
$LIGHTGLYPHDISPLAY
280
1
  9
$TILEMODELIGHTSYNCH
280
1
  9
$CMATERIAL
347
20
  9
$SOLIDHIST
280
0
  9
$SHOWHIST
280
1
  9
$DWFFRAME
280
2
  9
$DGNFRAME
280
2
  9
$REALWORLDSCALE
290
1
  9
$INTERFERECOLOR
 62
256
  9
$CSHADOW
280
0
  9
$SHADOWPLANELOCATION
 40
0.0
  0
ENDSEC
  0
SECTION
  2
CLASSES
  0
CLASS
  1
ACDBDICTIONARYWDFLT
  2
AcDbDictionaryWithDefault
  3
ObjectDBX Classes
 90
0
 91
0
280
0
281
0
  0
CLASS
  1
SUN
  2
AcDbSun
  3
SCENEOE
 90
1153
 91
0
280
0
281
0
  0
CLASS
  1
VISUALSTYLE
  2
AcDbVisualStyle
  3
ObjectDBX Classes
 90
4095
 91
0
280
0
281
0
  0
CLASS
  1
MATERIAL
  2
AcDbMaterial
  3
ObjectDBX Classes
 90
1153
 91
0
280
0
281
0
  0
CLASS
  1
SCALE
  2
AcDbScale
  3
ObjectDBX Classes
 90
1153
 91
0
280
0
281
0
  0
CLASS
  1
TABLESTYLE
  2
AcDbTableStyle
  3
ObjectDBX Classes
 90
4095
 91
0
280
0
281
0
  0
CLASS
  1
MLEADERSTYLE
  2
AcDbMLeaderStyle
  3
ACDB_MLEADERSTYLE_CLASS
 90
4095
 91
0
280
0
281
0
  0
CLASS
  1
DICTIONARYVAR
  2
AcDbDictionaryVar
  3
ObjectDBX Classes
 90
0
 91
0
280
0
281
0
  0
CLASS
  1
CELLSTYLEMAP
  2
AcDbCellStyleMap
  3
ObjectDBX Classes
 90
1152
 91
0
280
0
281
0
  0
CLASS
  1
MENTALRAYRENDERSETTINGS
  2
AcDbMentalRayRenderSettings
  3
SCENEOE
 90
1024
 91
0
280
0
281
0
  0
CLASS
  1
ACDBDETAILVIEWSTYLE
  2
AcDbDetailViewStyle
  3
ObjectDBX Classes
 90
1025
 91
0
280
0
281
0
  0
CLASS
  1
ACDBSECTIONVIEWSTYLE
  2
AcDbSectionViewStyle
  3
ObjectDBX Classes
 90
1025
 91
0
280
0
281
0
  0
CLASS
  1
RASTERVARIABLES
  2
AcDbRasterVariables
  3
ISM
 90
0
 91
0
280
0
281
0
  0
CLASS
  1
LAYOUT
  2
AcDbLayout
  3
ObjectDBX Classes
 90
0
 91
0
280
0
281
0
  0
CLASS
  1
ACDBPLACEHOLDER
  2
AcDbPlaceHolder
  3
ObjectDBX Classes
 90
0
 91
0
280
0
281
0
  0
ENDSEC
  0
SECTION
  2
TABLES
  0
TABLE
  2
VPORT
  5
8
330
0
100
AcDbSymbolTable
 70
1
  0
VPORT
  5
271
330
8
100
AcDbSymbolTableRecord
100
AcDbViewportTableRecord
  2
*Active
 70
0
 10
0.0
 20
0.0
 11
1.0
 21
1.0
 12
0.0
 22
0.0
 13
0.0
 23
0.0
 14
0.5
 24
0.5
 15
0.5
 25
0.5
 16
0.0
 26
0.0
 36
1.0
 17
0.0
 27
0.0
 37
0.0
 40
240.0
 41
1.34
 42
50.0
 43
0.0
 44
0.0
 50
0.0
 51
0.0
 71
0
 72
1000
 73
1
 74
3
 75
0
 76
0
 77
0
 78
0
281
0
 65
1
110
0.0
120
0.0
130
0.0
111
1.0
121
0.0
131
0.0
112
0.0
122
1.0
132
0.0
 79
0
146
0.0
  0
ENDTAB
  0
TABLE
  2
LTYPE
  5
2
330
0
100
AcDbSymbolTable
 70
3
  0
LTYPE
  5
24
330
2
100
AcDbSymbolTableRecord
100
AcDbLinetypeTableRecord
  2
ByBlock
 70
0
  3

 72
65
 73
0
 40
0.0
  0
LTYPE
  5
25
330
2
100
AcDbSymbolTableRecord
100
AcDbLinetypeTableRecord
  2
ByLayer
 70
0
  3

 72
65
 73
0
 40
0.0
  0
LTYPE
  5
26
330
2
100
AcDbSymbolTableRecord
100
AcDbLinetypeTableRecord
  2
Continuous
 70
0
  3

 72
65
 73
0
 40
0.0
  0
ENDTAB
  0
TABLE
  2
LAYER
  5
1
330
0
100
AcDbSymbolTable
 70
2
  0
LAYER
  5
27
330
1
100
AcDbSymbolTableRecord
100
AcDbLayerTableRecord
  2
0
 70
0
 62
7
  6
Continuous
370
-3
390
13
347
21
  0
LAYER
  5
28
330
1
100
AcDbSymbolTableRecord
100
AcDbLayerTableRecord
  2
Defpoints
 70
0
 62
7
  6
Continuous
290
0
370
-3
390
13
347
21
  0
ENDTAB
  0
TABLE
  2
STYLE
  5
5
330
0
100
AcDbSymbolTable
 70
1
  0
STYLE
  5
29
330
5
100
AcDbSymbolTableRecord
100
AcDbTextStyleTableRecord
  2
Standard
 70
0
 40
0.0
 41
1.0
 50
0.0
 71
0
 42
2.5
  3
txt
  4

  0
ENDTAB
  0
TABLE
  2
VIEW
  5
7
330
0
100
AcDbSymbolTable
 70
0
  0
ENDTAB
  0
TABLE
  2
UCS
  5
6
330
0
100
AcDbSymbolTable
 70
0
  0
ENDTAB
  0
TABLE
  2
APPID
  5
3
330
0
100
AcDbSymbolTable
 70
3
  0
APPID
  5
2A
330
3
100
AcDbSymbolTableRecord
100
AcDbRegAppTableRecord
  2
ACAD
 70
0
  0
APPID
  5
272
330
3
100
AcDbSymbolTableRecord
100
AcDbRegAppTableRecord
  2
HATCHBACKGROUNDCOLOR
 70
0
  0
APPID
  5
273
330
3
100
AcDbSymbolTableRecord
100
AcDbRegAppTableRecord
  2
EZDXF
 70
0
  0
ENDTAB
  0
TABLE
  2
DIMSTYLE
  5
4
330
0
100
AcDbSymbolTable
 70
1
100
AcDbDimStyleTable
  0
DIMSTYLE
105
2B
330
4
100
AcDbSymbolTableRecord
100
AcDbDimStyleTableRecord
  2
Standard
 70
0
 40
1.0
 41
2.5
 42
0.625
 43
3.75
 44
1.25
 45
0.0
 46
0.0
 47
0.0
 48
0.0
 49
2.5
140
2.5
141
2.5
142
0.0
143
0.03937007874
144
1.0
145
0.0
146
1.0
147
0.625
148
0.0
 69
0
 70
0
 71
0
 72
0
 73
0
 74
0
 75
0
 76
0
 77
1
 78
8
 79
3
170
0
171
3
172
1
173
0
174
0
175
0
176
0
177
0
178
0
179
2
271
2
272
2
273
2
274
3
275
0
276
0
277
2
278
44
279
0
280
0
281
0
282
0
283
0
284
8
285
0
286
0
288
0
289
3
290
0
371
-2
372
-2
  0
ENDTAB
  0
TABLE
  2
BLOCK_RECORD
  5
9
330
0
100
AcDbSymbolTable
 70
2
  0
BLOCK_RECORD
  5
17
330
9
100
AcDbSymbolTableRecord
100
AcDbBlockTableRecord
  2
*Model_Space
340
1A
 70
0
280
1
281
0
  0
BLOCK_RECORD
  5
1B
330
9
100
AcDbSymbolTableRecord
100
AcDbBlockTableRecord
  2
*Paper_Space
340
1E
 70
0
280
1
281
0
  0
ENDTAB
  0
ENDSEC
  0
SECTION
  2
BLOCKS
  0
BLOCK
  5
18
330
17
100
AcDbEntity
  8
0
100
AcDbBlockBegin
  2
*Model_Space
 70
0
 10
0.0
 20
0.0
 30
0.0
  3
*Model_Space
  1

  0
ENDBLK
  5
19
330
17
100
AcDbEntity
  8
0
100
AcDbBlockEnd
  0
BLOCK
  5
1C
330
1B
100
AcDbEntity
  8
0
100
AcDbBlockBegin
  2
*Paper_Space
 70
0
 10
0.0
 20
0.0
 30
0.0
  3
*Paper_Space
  1

  0
ENDBLK
  5
1D
330
1B
100
AcDbEntity
  8
0
100
AcDbBlockEnd
  0
ENDSEC
  0
SECTION
  2
ENTITIES
  0
LINE
  5
2F
330
17
100
AcDbEntity
  8
0
100
AcDbLine
 10
-48.67828642389872
 20
-50.45808429845524
 30
1.0
 11
-50.45808429845526
 21
-48.6782864238987
 31
1.0
  0
ARC
  5
30
330
17
100
AcDbEntity
  8
0
100
AcDbCircle
 10
-48.96112913637333
 20
-50.74092701092986
 30
1.0
 40
0.4
100
AcDbArc
 50
-17.241459398939952
 51
45.0
  0
LINE
  5
31
330
17
100
AcDbEntity
  8
0
100
AcDbLine
 10
-49.120027525258564
 20
-52.602464170732404
 30
1.0
 11
-48.579103481648836
 21
-50.85948669687884
 31
1.0
  0
ARC
  5
32
330
17
100
AcDbEntity
  8
0
100
AcDbCircle
 10
-49.50205317998306
 20
-52.48390448478342
 30
1.0
 40
0.4
100
AcDbArc
 50
-40.03025927189009
 51
-17.241459398939952
  0
LINE
  5
33
330
17
100
AcDbEntity
  8
0
100
AcDbLine
 10
-63.712544104725794
 20
-70.02305378442246
 30
1.0
 11
-49.195771234067216
 21
-52.741181319352734
 31
1.0
  0
ARC
  5
34
330
17
100
AcDbEntity
  8
0
100
AcDbCircle
 10
-64.01882605064164
 20
-69.76577694985316
 30
1.0
 40
0.4
100
AcDbArc
 50
-135.0
 51
-40.03025927189009
  0
LINE
  5
35
330
17
100
AcDbEntity
  8
0
100
AcDbLine
 10
-70.0486196623278
 20
-64.30166876311624
 30
1.0
 11
-64.30166876311625
 21
-70.04861966232778
 31
1.0
  0
ARC
  5
36
330
17
100
AcDbEntity
  8
0
100
AcDbCircle
 10
-69.76577694985318
 20
-64.01882605064162
 30
1.0
 40
0.4
100
AcDbArc
 50
130.03025927189162
 51
225.0
  0
LINE
  5
37
330
17
100
AcDbEntity
  8
0
100
AcDbLine
 10
-52.741181319352755
 20
-49.1957712340672
 30
1.0
 11
-70.02305378442249
 21
-63.71254410472578
 31
1.0
  0
ARC
  5
38
330
17
100
AcDbEntity
  8
0
100
AcDbCircle
 10
-52.48390448478344
 20
-49.50205317998305
 30
1.0
 40
0.4
100
AcDbArc
 50
107.24145939893964
 51
130.0302592718901
  0
LINE
  5
39
330
17
100
AcDbEntity
  8
0
100
AcDbLine
 10
-50.859486696878854
 20
-48.579103481648815
 30
1.0
 11
-52.602464170732425
 21
-49.12002752525855
 31
1.0
  0
ARC
  5
3A
330
17
100
AcDbEntity
  8
0
100
AcDbCircle
 10
-50.74092701092987
 20
-48.96112913637331
 30
1.0
 40
0.4
100
AcDbArc
 50
45.0
 51
107.24145939893994
  0
CIRCLE
  5
3B
330
17
100
AcDbEntity
  8
0
100
AcDbCircle
 10
0.0
 20
0.0
 30
1.0
 40
120.0
  0
CIRCLE
  5
3C
330
17
100
AcDbEntity
  8
0
100
AcDbCircle
 10
5.65459232846672e-13
 20
-3.709760883949841e-15
 30
1.0
 40
70.0
  0
LINE
  5
3D
330
17
100
AcDbEntity
  8
0
100
AcDbLine
 10
-41.675735325261165
 20
-56.380199763178524
 30
1.0
 11
-43.672617021761496
 21
-54.8479385456526
 31
1.0
  0
ARC
  5
3E
330
17
100
AcDbEntity
  8
0
100
AcDbCircle
 10
-41.91923989686466
 20
-56.69754109929502
 30
1.0
 40
0.4
100
AcDbArc
 50
-9.741459398940492
 51
52.50000000000047
  0
LINE
  5
3F
330
17
100
AcDbEntity
  8
0
100
AcDbLine
 10
-41.83379953086034
 20
-58.56389295228871
 30
1.0
 11
-41.52500738021737
 21
-56.765222136653676
 31
1.0
  0
ARC
  5
40
330
17
100
AcDbEntity
  8
0
100
AcDbCircle
 10
-42.22803204750762
 20
-58.49621191493006
 30
1.0
 40
0.4
100
AcDbArc
 50
-32.53025927189
 51
-9.741459398940634
  0
LINE
  5
41
330
17
100
AcDbEntity
  8
0
100
AcDbLine
 10
-54.027631879582124
 20
-77.74015263090953
 30
1.0
 11
-41.890789020535024
 21
-58.71130989436818
 31
1.0
  0
ARC
  5
42
330
17
100
AcDbEntity
  8
0
100
AcDbCircle
 10
-54.36487490655472
 20
-77.52505465147142
 30
1.0
 40
0.4
100
AcDbArc
 50
-127.49999999999949
 51
-32.53025927188912
  0
LINE
  5
43
330
17
100
AcDbEntity
  8
0
100
AcDbLine
 10
-61.05629203349876
 20
-72.89473866774674
 30
1.0
 11
-54.608379478158206
 21
-77.84239598758792
 31
1.0
  0
ARC
  5
44
330
17
100
AcDbEntity
  8
0
100
AcDbCircle
 10
-60.81278746189527
 20
-72.57739733163024
 30
1.0
 40
0.4
100
AcDbArc
 50
137.53025927188895
 51
232.5000000000005
  0
LINE
  5
45
330
17
100
AcDbEntity
  8
0
100
AcDbLine
 10
-45.86863650934514
 20
-55.659000162139854
 30
1.0
 11
-61.10784107362567
 21
-72.30731703578316
 31
1.0
  0
ARC
  5
46
330
17
100
AcDbEntity
  8
0
100
AcDbCircle
 10
-45.573582897614735
 20
-55.929080457986935
 30
1.0
 40
0.4
100
AcDbArc
 50
114.74145939894034
 51
137.53025927188972
  0
LINE
  5
47
330
17
100
AcDbEntity
  8
0
100
AcDbLine
 10
-44.08353133880676
 20
-54.80199765383726
 30
1.0
 11
-45.74099264305651
 21
-55.565798230055094
 31
1.0
  0
ARC
  5
48
330
17
100
AcDbEntity
  8
0
100
AcDbCircle
 10
-43.916121593364984
 20
-55.1652798817691
 30
1.0
 40
0.4
100
AcDbArc
 50
52.49999999999984
 51
114.74145939894034
  0
LINE
  5
49
330
17
100
AcDbEntity
  8
0
100
AcDbLine
 10
-54.847938545652624
 20
-43.67261702176148
 30
1.0
 11
-56.38019976317853
 21
-41.67573532526116
 31
1.0
  0
ARC
  5
4A
330
17
100
AcDbEntity
  8
0
100
AcDbCircle
 10
-55.165279881769116
 20
-43.91612159336497
 30
1.0
 40
0.4
100
AcDbArc
 50
-24.74145939894035
 51
37.50000000000014
  0
LINE
  5
4B
330
17
100
AcDbEntity
  8
0
100
AcDbLine
 10
-55.56579823005512
 20
-45.740992643056515
 30
1.0
 11
-54.80199765383728
 21
-44.08353133880674
 31
1.0
  0
ARC
  5
4C
330
17
100
AcDbEntity
  8
0
100
AcDbCircle
 10
-55.92908045798696
 20
-45.57358289761474
 30
1.0
 40
0.4
100
AcDbArc
 50
-47.53025927188972
 51
-24.74145939894035
  0
LINE
  5
4D
330
17
100
AcDbEntity
  8
0
100
AcDbLine
 10
-72.30731703578317
 20
-61.10784107362566
 30
1.0
 11
-55.65900016213989
 21
-45.868636509345144
 31
1.0
  0
ARC
  5
4E
330
17
100
AcDbEntity
  8
0
100
AcDbCircle
 10
-72.57739733163025
 20
-60.812787461895255
 30
1.0
 40
0.4
100
AcDbArc
 50
-142.5000000000005
 51
-47.53025927188895
  0
LINE
  5
4F
330
17
100
AcDbEntity
  8
0
100
AcDbLine
 10
-77.84239598758793
 20
-54.608379478158184
 30
1.0
 11
-72.89473866774675
 21
-61.05629203349874
 31
1.0
  0
ARC
  5
50
330
17
100
AcDbEntity
  8
0
100
AcDbCircle
 10
-77.52505465147145
 20
-54.364874906554704
 30
1.0
 40
0.4
100
AcDbArc
 50
122.53025927188912
 51
217.49999999999994
  0
LINE
  5
51
330
17
100
AcDbEntity
  8
0
100
AcDbLine
 10
-58.711309894368206
 20
-41.890789020535024
 30
1.0
 11
-77.74015263090956
 21
-54.02763187958211
 31
1.0
  0
ARC
  5
52
330
17
100
AcDbEntity
  8
0
100
AcDbCircle
 10
-58.496211914930086
 20
-42.22803204750762
 30
1.0
 40
0.4
100
AcDbArc
 50
99.74145939894048
 51
122.53025927188996
  0
LINE
  5
53
330
17
100
AcDbEntity
  8
0
100
AcDbLine
 10
-56.76522213665368
 20
-41.52500738021735
 30
1.0
 11
-58.56389295228874
 21
-41.833799530860325
 31
1.0
  0
ARC
  5
54
330
17
100
AcDbEntity
  8
0
100
AcDbCircle
 10
-56.69754109929503
 20
-41.919239896864646
 30
1.0
 40
0.4
100
AcDbArc
 50
37.50000000000016
 51
99.74145939894048
  0
LINE
  5
55
330
17
100
AcDbEntity
  8
0
100
AcDbLine
 10
-33.96010084051163
 20
-61.3376343784093
 30
1.0
 11
-36.139899159488415
 21
-60.07912723216896
 31
1.0
  0
ARC
  5
56
330
17
100
AcDbEntity
  8
0
100
AcDbCircle
 10
-34.16010084051163
 20
-61.68404453992307
 30
1.0
 40
0.4
100
AcDbArc
 50
-2.241459398940094
 51
59.99999999999953
  0
LINE
  5
57
330
17
100
AcDbEntity
  8
0
100
AcDbLine
 10
-33.831783627968655
 20
-63.523277288452746
 30
1.0
 11
-33.76040688960329
 21
-61.699688887377455
 31
1.0
  0
ARC
  5
58
330
17
100
AcDbEntity
  8
0
100
AcDbCircle
 10
-34.231477578877005
 20
-63.50763294099836
 30
1.0
 40
0.4
100
AcDbArc
 50
-25.030259271889662
 51
-2.2414593989400373
  0
LINE
  5
59
330
17
100
AcDbEntity
  8
0
100
AcDbLine
 10
-43.41829189368932
 20
-84.12709591223948
 30
1.0
 11
-33.869043792540594
 21
-63.67687167924068
 31
1.0
  0
ARC
  5
5A
330
17
100
AcDbEntity
  8
0
100
AcDbCircle
 10
-43.78072568002574
 20
-83.95785717399717
 30
1.0
 40
0.4
100
AcDbArc
 50
-119.99999999999943
 51
-25.030259271889662
  0
LINE
  5
5B
330
17
100
AcDbEntity
  8
0
100
AcDbLine
 10
-51.01927431997435
 20
-80.24055938353234
 30
1.0
 11
-43.98072568002575
 21
-84.30426733551096
 31
1.0
  0
ARC
  5
5C
330
17
100
AcDbEntity
  8
0
100
AcDbCircle
 10
-50.81927431997435
 20
-79.89414922201857
 30
1.0
 40
0.4
100
AcDbArc
 50
145.03025927188946
 51
239.99999999999952
  0
LINE
  5
5D
330
17
100
AcDbEntity
  8
0
100
AcDbLine
 10
-38.211266611474066
 20
-61.169888165848114
 30
1.0
 11
-51.147056259764824
 21
-79.66489172498261
 31
1.0
  0
ARC
  5
5E
330
17
100
AcDbEntity
  8
0
100
AcDbCircle
 10
-37.88348467168359
 20
-61.39914566288407
 30
1.0
 40
0.4
100
AcDbArc
 50
122.24145939893964
 51
145.03025927188946
  0
LINE
  5
5F
330
17
100
AcDbEntity
  8
0
100
AcDbLine
 10
-36.55329453726372
 20
-60.08721445218432
 30
1.0
 11
-38.09688004945889
 21
-61.060822721385655
 31
1.0
  0
ARC
  5
60
330
17
100
AcDbEntity
  8
0
100
AcDbCircle
 10
-36.33989915948842
 20
-60.42553739368273
 30
1.0
 40
0.4
100
AcDbArc
 50
59.999999999999524
 51
122.24145939893964
  0
LINE
  5
61
330
17
100
AcDbEntity
  8
0
100
AcDbLine
 10
-25.66339961486214
 20
-65.24556506342044
 30
1.0
 11
-27.988817602723422
 21
-64.28234539466196
 31
1.0
  0
ARC
  5
62
330
17
100
AcDbEntity
  8
0
100
AcDbCircle
 10
-25.816472987808176
 20
-65.61511687642496
 30
1.0
 40
0.4
100
AcDbArc
 50
5.258540601059877
 51
67.50000000000031
  0
LINE
  5
63
330
17
100
AcDbEntity
  8
0
100
AcDbLine
 10
-25.250896527259865
 20
-67.39576073823159
 30
1.0
 11
-25.418156476954906
 21
-65.5784568548527
 31
1.0
  0
ARC
  5
64
330
17
100
AcDbEntity
  8
0
100
AcDbCircle
 10
-25.649213038113125
 20
-67.43242075980385
 30
1.0
 40
0.4
100
AcDbArc
 50
-17.530259271890145
 51
5.258540601059963
  0
LINE
  5
65
330
17
100
AcDbEntity
  8
0
100
AcDbLine
 10
-32.0660528956707
 20
-89.07460125807357
 30
1.0
 11
-25.26778983498274
 21
-67.5529045351172
 31
1.0
  0
ARC
  5
66
330
17
100
AcDbEntity
  8
0
100
AcDbCircle
 10
-32.44747609880108
 20
-88.95411748276022
 30
1.0
 40
0.4
100
AcDbArc
 50
-112.4999999999992
 51
-17.530259271890003
  0
LINE
  5
67
330
17
100
AcDbEntity
  8
0
100
AcDbLine
 10
-40.10930267761992
 20
-86.21344188137977
 30
1.0
 11
-32.600549471747115
 21
-89.32366929576474
 31
1.0
  0
ARC
  5
68
330
17
100
AcDbEntity
  8
0
100
AcDbCircle
 10
-39.95622930467388
 20
-85.84389006837525
 30
1.0
 40
0.4
100
AcDbArc
 50
152.53025927188878
 51
247.49999999999983
  0
LINE
  5
69
330
17
100
AcDbEntity
  8
0
100
AcDbLine
 10
-29.900091347716025
 20
-65.63414242354169
 30
1.0
 11
-40.31113113265628
 21
-85.65937802948687
 31
1.0
  0
ARC
  5
6A
330
17
100
AcDbEntity
  8
0
100
AcDbCircle
 10
-29.54518951973361
 20
-65.81865446243006
 30
1.0
 40
0.4
100
AcDbArc
 50
129.74145939894044
 51
152.53025927188924
  0
LINE
  5
6B
330
17
100
AcDbEntity
  8
0
100
AcDbLine
 10
-28.397620731700172
 20
-64.34432235193137
 30
1.0
 11
-29.800919275764333
 21
-65.51107960669496
 31
1.0
  0
ARC
  5
6C
330
17
100
AcDbEntity
  8
0
100
AcDbCircle
 10
-28.14189097566945
 20
-64.65189720766647
 30
1.0
 40
0.4
100
AcDbArc
 50
67.50000000000078
 51
129.74145939894044
  0
LINE
  5
6D
330
17
100
AcDbEntity
  8
0
100
AcDbLine
 10
-16.927590506563803
 20
-68.0371260407083
 30
1.0
 11
-19.358839616809593
 21
-67.38567480501905
 31
1.0
  0
ARC
  5
6E
330
17
100
AcDbEntity
  8
0
100
AcDbCircle
 10
-17.031118124604813
 20
-68.42349637122393
 30
1.0
 40
0.4
100
AcDbArc
 50
12.758540601059451
 51
74.99999999999993
  0
LINE
  5
6F
330
17
100
AcDbEntity
  8
0
100
AcDbLine
 10
-16.237959586098576
 20
-70.11508403614425
 30
1.0
 11
-16.640994359741526
 21
-68.33515924375821
 31
1.0
  0
ARC
  5
70
330
17
100
AcDbEntity
  8
0
100
AcDbCircle
 10
-16.62808335096186
 20
-70.20342116360997
 30
1.0
 40
0.4
100
AcDbArc
 50
-10.03025927188969
 51
12.758540601059536
  0
LINE
  5
71
330
17
100
AcDbEntity
  8
0
100
AcDbLine
 10
-20.16515484221777
 20
-92.49801548023684
 30
1.0
 11
-16.234196987793553
 21
-70.27308846519432
 31
1.0
  0
ARC
  5
72
330
17
100
AcDbEntity
  8
0
100
AcDbCircle
 10
-20.559041205386077
 20
-92.4283481786525
 30
1.0
 40
0.4
100
AcDbArc
 50
-104.99999999999909
 51
-10.03025927188969
  0
LINE
  5
73
330
17
100
AcDbEntity
  8
0
100
AcDbLine
 10
-28.513049746051863
 20
-90.71118848575486
 30
1.0
 11
-20.66256882342708
 21
-92.81471850916812
 31
1.0
  0
ARC
  5
74
330
17
100
AcDbEntity
  8
0
100
AcDbCircle
 10
-28.409522128010856
 20
-90.32481815523924
 30
1.0
 40
0.4
100
AcDbArc
 50
160.0302592718899
 51
254.99999999999991
  0
LINE
  5
75
330
17
100
AcDbEntity
  8
0
100
AcDbLine
 10
-21.077317231127147
 20
-68.9753783071463
 30
1.0
 11
-28.785471375511044
 21
-90.18820862664025
 31
1.0
  0
ARC
  5
76
330
17
100
AcDbEntity
  8
0
100
AcDbCircle
 10
-20.70136798362696
 20
-69.1119878357453
 30
1.0
 40
0.4
100
AcDbArc
 50
137.24145939893907
 51
160.0302592718899
  0
LINE
  5
77
330
17
100
AcDbEntity
  8
0
100
AcDbLine
 10
-19.756055762109376
 20
-67.50048105662039
 30
1.0
 11
-20.995056510885725
 21
-68.84042375683099
 31
1.0
  0
ARC
  5
78
330
17
100
AcDbEntity
  8
0
100
AcDbCircle
 10
-19.462367234850603
 20
-67.7720451355347
 30
1.0
 40
0.4
100
AcDbArc
 50
75.00000000000095
 51
137.24145939893975
  0
LINE
  5
79
330
17
100
AcDbEntity
  8
0
100
AcDbLine
 10
-7.90214563148341
 20
-69.66455292798457
 30
1.0
 11
-10.397626517767815
 21
-69.33601663662363
 31
1.0
  0
ARC
  5
7A
330
17
100
AcDbEntity
  8
0
100
AcDbCircle
 10
-7.9543561083714325
 20
-70.06113087253411
 30
1.0
 40
0.4
100
AcDbArc
 50
20.25854060106053
 51
82.50000000000011
  0
LINE
  5
7B
330
17
100
AcDbEntity
  8
0
100
AcDbLine
 10
-6.947186654406214
 20
-71.63471880662462
 30
1.0
 11
-7.579100215277682
 21
-69.92262811191753
 31
1.0
  0
ARC
  5
7C
330
17
100
AcDbEntity
  8
0
100
AcDbCircle
 10
-7.32244254749995
 20
-71.7732215672412
 30
1.0
 40
0.4
100
AcDbArc
 50
-2.530259271889662
 51
20.258540601060844
  0
LINE
  5
7D
330
17
100
AcDbEntity
  8
0
100
AcDbLine
 10
-7.919225398577316
 20
-94.3387630122384
 30
1.0
 11
-6.922832529173462
 21
-71.79088036825101
 31
1.0
  0
ARC
  5
7E
330
17
100
AcDbEntity
  8
0
100
AcDbCircle
 10
-8.318835416903802
 20
-94.32110421122859
 30
1.0
 40
0.4
100
AcDbArc
 50
-97.50000000000017
 51
-2.530259271889662
  0
LINE
  5
7F
330
17
100
AcDbEntity
  8
0
100
AcDbLine
 10
-16.428930628017977
 20
-93.65684150524588
 30
1.0
 11
-8.371045893791823
 21
-94.7176821557781
 31
1.0
  0
ARC
  5
80
330
17
100
AcDbEntity
  8
0
100
AcDbCircle
 10
-16.376720151129955
 20
-93.26026356069636
 30
1.0
 40
0.4
100
AcDbArc
 50
167.53025927188898
 51
262.49999999999983
  0
LINE
  5
81
330
17
100
AcDbEntity
  8
0
100
AcDbLine
 10
-11.89390437297732
 20
-71.13642634432789
 30
1.0
 11
-16.76728422229037
 21
-93.17389396929637
 31
1.0
  0
ARC
  5
82
330
17
100
AcDbEntity
  8
0
100
AcDbCircle
 10
-11.5033403018169
 20
-71.22279593572787
 30
1.0
 40
0.4
100
AcDbArc
 50
144.7414593989412
 51
167.530259271889
  0
LINE
  5
83
330
17
100
AcDbEntity
  8
0
100
AcDbLine
 10
-10.77645920101542
 20
-69.50168781576167
 30
1.0
 11
-11.829962508176488
 21
-70.99188917031638
 31
1.0
  0
ARC
  5
84
330
17
100
AcDbEntity
  8
0
100
AcDbCircle
 10
-10.449836994655838
 20
-69.73259458117316
 30
1.0
 40
0.4
100
AcDbArc
 50
82.4999999999996
 51
144.74145939894103
  0
LINE
  5
85
330
17
100
AcDbEntity
  8
0
100
AcDbLine
 10
1.2585071462403232
 20
-70.1
 30
1.0
 11
-1.2585071462403543
 21
-70.1
 31
1.0
  0
ARC
  5
86
330
17
100
AcDbEntity
  8
0
100
AcDbCircle
 10
1.2585071462403232
 20
-70.5
 30
1.0
 40
0.4
100
AcDbArc
 50
27.75854060105928
 51
90.0
  0
LINE
  5
87
330
17
100
AcDbEntity
  8
0
100
AcDbLine
 10
2.4624545670670654
 20
-71.92866367742745
 30
1.0
 11
1.6124744351931195
 21
-70.31370142686696
 31
1.0
  0
ARC
  5
88
330
17
100
AcDbEntity
  8
0
100
AcDbCircle
 10
2.1084872781142825
 20
-72.1149622505605
 30
1.0
 40
0.4
100
AcDbArc
 50
4.969740728110935
 51
27.758540601059707
  0
LINE
  5
89
330
17
100
AcDbEntity
  8
0
100
AcDbLine
 10
4.4622041872568525
 20
-94.56534815345405
 30
1.0
 11
2.5069835133925538
 21
-72.08031040401455
 31
1.0
  0
ARC
  5
8A
330
17
100
AcDbEntity
  8
0
100
AcDbCircle
 10
4.06370795197858
 20
-94.6
 30
1.0
 40
0.4
100
AcDbArc
 50
-90.0
 51
4.969740728110935
  0
LINE
  5
8B
330
17
100
AcDbEntity
  8
0
100
AcDbLine
 10
-4.063707951978623
 20
-95.0
 30
1.0
 11
4.06370795197858
 21
-95.0
 31
1.0
  0
ARC
  5
8C
330
17
100
AcDbEntity
  8
0
100
AcDbCircle
 10
-4.063707951978623
 20
-94.6
 30
1.0
 40
0.4
100
AcDbArc
 50
175.03025927188907
 51
270.0
  0
LINE
  5
8D
330
17
100
AcDbEntity
  8
0
100
AcDbLine
 10
-2.506983513392588
 20
-72.08031040401458
 30
1.0
 11
-4.462204187256895
 21
-94.56534815345405
 31
1.0
  0
ARC
  5
8E
330
17
100
AcDbEntity
  8
0
100
AcDbCircle
 10
-2.1084872781143167
 20
-72.11496225056052
 30
1.0
 40
0.4
100
AcDbArc
 50
152.24145939894058
 51
175.03025927188907
  0
LINE
  5
8F
330
17
100
AcDbEntity
  8
0
100
AcDbLine
 10
-1.6124744351931495
 20
-70.31370142686696
 30
1.0
 11
-2.4624545670671085
 21
-71.92866367742748
 31
1.0
  0
ARC
  5
90
330
17
100
AcDbEntity
  8
0
100
AcDbCircle
 10
-1.258507146240354
 20
-70.5
 30
1.0
 40
0.4
100
AcDbArc
 50
90.00000000000003
 51
152.2414593989407
  0
LINE
  5
91
330
17
100
AcDbEntity
  8
0
100
AcDbLine
 10
-60.07912723216897
 20
-36.139899159488394
 30
1.0
 11
-61.33763437840931
 21
-33.960100840511615
 31
1.0
  0
ARC
  5
92
330
17
100
AcDbEntity
  8
0
100
AcDbCircle
 10
-60.425537393682745
 20
-36.3398991594884
 30
1.0
 40
0.4
100
AcDbArc
 50
-32.24145939893964
 51
30.000000000000483
  0
LINE
  5
93
330
17
100
AcDbEntity
  8
0
100
AcDbLine
 10
-61.060822721385655
 20
-38.09688004945885
 30
1.0
 11
-60.087214452184334
 21
-36.553294537263696
 31
1.0
  0
ARC
  5
94
330
17
100
AcDbEntity
  8
0
100
AcDbCircle
 10
-61.39914566288407
 20
-37.883484671683554
 30
1.0
 40
0.4
100
AcDbArc
 50
-55.03025927188949
 51
-32.24145939893964
  0
LINE
  5
95
330
17
100
AcDbEntity
  8
0
100
AcDbLine
 10
-79.66489172498262
 20
-51.14705625976479
 30
1.0
 11
-61.16988816584811
 21
-38.21126661147403
 31
1.0
  0
ARC
  5
96
330
17
100
AcDbEntity
  8
0
100
AcDbCircle
 10
-79.89414922201858
 20
-50.81927431997431
 30
1.0
 40
0.4
100
AcDbArc
 50
-149.99999999999955
 51
-55.03025927188949
  0
LINE
  5
97
330
17
100
AcDbEntity
  8
0
100
AcDbLine
 10
-84.30426733551096
 20
-43.980725680025714
 30
1.0
 11
-80.24055938353236
 21
-51.019274319974315
 31
1.0
  0
ARC
  5
98
330
17
100
AcDbEntity
  8
0
100
AcDbCircle
 10
-83.95785717399718
 20
-43.780725680025704
 30
1.0
 40
0.4
100
AcDbArc
 50
115.03025927188924
 51
210.0000000000014
  0
LINE
  5
99
330
17
100
AcDbEntity
  8
0
100
AcDbLine
 10
-63.67687167924069
 20
-33.869043792540566
 30
1.0
 11
-84.1270959122395
 21
-43.418291893689286
 31
1.0
  0
ARC
  5
9A
330
17
100
AcDbEntity
  8
0
100
AcDbCircle
 10
-63.50763294099838
 20
-34.23147757887698
 30
1.0
 40
0.4
100
AcDbArc
 50
92.24145939894008
 51
115.03025927188966
  0
LINE
  5
9B
330
17
100
AcDbEntity
  8
0
100
AcDbLine
 10
-61.69968888737747
 20
-33.76040688960326
 30
1.0
 11
-63.52327728845276
 21
-33.83178362796863
 31
1.0
  0
ARC
  5
9C
330
17
100
AcDbEntity
  8
0
100
AcDbCircle
 10
-61.684044539923086
 20
-34.16010084051162
 30
1.0
 40
0.4
100
AcDbArc
 50
30.0000000000005
 51
92.24145939894001
  0
LINE
  5
9D
330
17
100
AcDbEntity
  8
0
100
AcDbLine
 10
-64.28234539466197
 20
-27.98881760272343
 30
1.0
 11
-65.24556506342046
 21
-25.663399614862147
 31
1.0
  0
ARC
  5
9E
330
17
100
AcDbEntity
  8
0
100
AcDbCircle
 10
-64.65189720766648
 20
-28.14189097566946
 30
1.0
 40
0.4
100
AcDbArc
 50
-39.741459398940435
 51
22.5
  0
LINE
  5
9F
330
17
100
AcDbEntity
  8
0
100
AcDbLine
 10
-65.51107960669495
 20
-29.800919275764326
 30
1.0
 11
-64.34432235193138
 21
-28.397620731700183
 31
1.0
  0
ARC
  5
A0
330
17
100
AcDbEntity
  8
0
100
AcDbCircle
 10
-65.81865446243005
 20
-29.545189519733608
 30
1.0
 40
0.4
100
AcDbArc
 50
-62.53025927188904
 51
-39.741459398940435
  0
LINE
  5
A1
330
17
100
AcDbEntity
  8
0
100
AcDbLine
 10
-85.6593780294869
 20
-40.311131132656286
 30
1.0
 11
-65.63414242354168
 21
-29.900091347716014
 31
1.0
  0
ARC
  5
A2
330
17
100
AcDbEntity
  8
0
100
AcDbCircle
 10
-85.84389006837526
 20
-39.95622930467388
 30
1.0
 40
0.4
100
AcDbArc
 50
-157.49999999999983
 51
-62.53025927189057
  0
LINE
  5
A3
330
17
100
AcDbEntity
  8
0
100
AcDbLine
 10
-89.32366929576474
 20
-32.60054947174712
 30
1.0
 11
-86.21344188137978
 21
-40.10930267761992
 31
1.0
  0
ARC
  5
A4
330
17
100
AcDbEntity
  8
0
100
AcDbCircle
 10
-88.95411748276024
 20
-32.4474760988011
 30
1.0
 40
0.4
100
AcDbArc
 50
107.53025927189
 51
202.50000000000003
  0
LINE
  5
A5
330
17
100
AcDbEntity
  8
0
100
AcDbLine
 10
-67.55290453511722
 20
-25.267789834982754
 30
1.0
 11
-89.07460125807359
 21
-32.066052895670715
 31
1.0
  0
ARC
  5
A6
330
17
100
AcDbEntity
  8
0
100
AcDbCircle
 10
-67.43242075980388
 20
-25.64921303811314
 30
1.0
 40
0.4
100
AcDbArc
 50
84.74145939894012
 51
107.53025927189016
  0
LINE
  5
A7
330
17
100
AcDbEntity
  8
0
100
AcDbLine
 10
-65.57845685485272
 20
-25.418156476954913
 30
1.0
 11
-67.39576073823162
 21
-25.25089652725987
 31
1.0
  0
ARC
  5
A8
330
17
100
AcDbEntity
  8
0
100
AcDbCircle
 10
-65.61511687642498
 20
-25.816472987808183
 30
1.0
 40
0.4
100
AcDbArc
 50
22.499999999999694
 51
84.74145939894012
  0
LINE
  5
A9
330
17
100
AcDbEntity
  8
0
100
AcDbLine
 10
-67.38567480501905
 20
-19.3588396168096
 30
1.0
 11
-68.0371260407083
 21
-16.92759050656381
 31
1.0
  0
ARC
  5
AA
330
17
100
AcDbEntity
  8
0
100
AcDbCircle
 10
-67.77204513553468
 20
-19.46236723485061
 30
1.0
 40
0.4
100
AcDbArc
 50
-47.24145939893907
 51
15.000000000000085
  0
LINE
  5
AB
330
17
100
AcDbEntity
  8
0
100
AcDbLine
 10
-68.84042375683099
 20
-20.995056510885732
 30
1.0
 11
-67.50048105662037
 21
-19.756055762109376
 31
1.0
  0
ARC
  5
AC
330
17
100
AcDbEntity
  8
0
100
AcDbCircle
 10
-69.1119878357453
 20
-20.701367983626955
 30
1.0
 40
0.4
100
AcDbArc
 50
-70.03025927189009
 51
-47.24145939893975
  0
LINE
  5
AD
330
17
100
AcDbEntity
  8
0
100
AcDbLine
 10
-90.18820862664022
 20
-28.78547137551104
 30
1.0
 11
-68.9753783071463
 21
-21.07731723112715
 31
1.0
  0
ARC
  5
AE
330
17
100
AcDbEntity
  8
0
100
AcDbCircle
 10
-90.32481815523921
 20
-28.409522128010853
 30
1.0
 40
0.4
100
AcDbArc
 50
-164.9999999999999
 51
-70.03025927189009
  0
LINE
  5
AF
330
17
100
AcDbEntity
  8
0
100
AcDbLine
 10
-92.8147185091681
 20
-20.662568823427087
 30
1.0
 11
-90.71118848575485
 21
-28.513049746051863
 31
1.0
  0
ARC
  5
B0
330
17
100
AcDbEntity
  8
0
100
AcDbCircle
 10
-92.42834817865247
 20
-20.559041205386077
 30
1.0
 40
0.4
100
AcDbArc
 50
100.03025927188979
 51
195.00000000000009
  0
LINE
  5
B1
330
17
100
AcDbEntity
  8
0
100
AcDbLine
 10
-70.27308846519435
 20
-16.23419698779356
 30
1.0
 11
-92.49801548023682
 21
-20.165154842217774
 31
1.0
  0
ARC
  5
B2
330
17
100
AcDbEntity
  8
0
100
AcDbCircle
 10
-70.20342116361
 20
-16.628083350961866
 30
1.0
 40
0.4
100
AcDbArc
 50
77.24145939894056
 51
100.03025927188969
  0
LINE
  5
B3
330
17
100
AcDbEntity
  8
0
100
AcDbLine
 10
-68.33515924375821
 20
-16.64099435974153
 30
1.0
 11
-70.11508403614428
 21
-16.23795958609858
 31
1.0
  0
ARC
  5
B4
330
17
100
AcDbEntity
  8
0
100
AcDbCircle
 10
-68.42349637122393
 20
-17.03111812460482
 30
1.0
 40
0.4
100
AcDbArc
 50
15.000000000000073
 51
77.24145939894056
  0
LINE
  5
B5
330
17
100
AcDbEntity
  8
0
100
AcDbLine
 10
-69.33601663662364
 20
-10.3976265177678
 30
1.0
 11
-69.66455292798459
 21
-7.902145631483393
 31
1.0
  0
ARC
  5
B6
330
17
100
AcDbEntity
  8
0
100
AcDbCircle
 10
-69.73259458117316
 20
-10.44983699465582
 30
1.0
 40
0.4
100
AcDbArc
 50
-54.74145939894103
 51
7.500000000000142
  0
LINE
  5
B7
330
17
100
AcDbEntity
  8
0
100
AcDbLine
 10
-70.99188917031636
 20
-11.829962508176447
 30
1.0
 11
-69.50168781576167
 21
-10.776459201015403
 31
1.0
  0
ARC
  5
B8
330
17
100
AcDbEntity
  8
0
100
AcDbCircle
 10
-71.22279593572785
 20
-11.503340301816873
 30
1.0
 40
0.4
100
AcDbArc
 50
-77.53025927188901
 51
-54.741459398940634
  0
LINE
  5
B9
330
17
100
AcDbEntity
  8
0
100
AcDbLine
 10
-93.17389396929639
 20
-16.76728422229035
 30
1.0
 11
-71.13642634432786
 21
-11.893904372977293
 31
1.0
  0
ARC
  5
BA
330
17
100
AcDbEntity
  8
0
100
AcDbCircle
 10
-93.26026356069637
 20
-16.376720151129934
 30
1.0
 40
0.4
100
AcDbArc
 50
-172.49999999999983
 51
-77.53025927188895
  0
LINE
  5
BB
330
17
100
AcDbEntity
  8
0
100
AcDbLine
 10
-94.7176821557781
 20
-8.3710458937918
 30
1.0
 11
-93.6568415052459
 21
-16.428930628017955
 31
1.0
  0
ARC
  5
BC
330
17
100
AcDbEntity
  8
0
100
AcDbCircle
 10
-94.32110421122859
 20
-8.318835416903779
 30
1.0
 40
0.4
100
AcDbArc
 50
92.53025927188966
 51
187.4999999999999
  0
LINE
  5
BD
330
17
100
AcDbEntity
  8
0
100
AcDbLine
 10
-71.79088036825105
 20
-6.922832529173446
 30
1.0
 11
-94.3387630122384
 21
-7.919225398577292
 31
1.0
  0
ARC
  5
BE
330
17
100
AcDbEntity
  8
0
100
AcDbCircle
 10
-71.77322156724124
 20
-7.322442547499932
 30
1.0
 40
0.4
100
AcDbArc
 50
69.74145939893953
 51
92.53025927188966
  0
LINE
  5
BF
330
17
100
AcDbEntity
  8
0
100
AcDbLine
 10
-69.92262811191753
 20
-7.579100215277664
 30
1.0
 11
-71.63471880662466
 21
-6.947186654406182
 31
1.0
  0
ARC
  5
C0
330
17
100
AcDbEntity
  8
0
100
AcDbCircle
 10
-70.06113087253411
 20
-7.954356108371413
 30
1.0
 40
0.4
100
AcDbArc
 50
7.500000000000017
 51
69.74145939893947
  0
LINE
  5
C1
330
17
100
AcDbEntity
  8
0
100
AcDbLine
 10
10.397626517767792
 20
-69.33601663662364
 30
1.0
 11
7.902145631483388
 21
-69.66455292798459
 31
1.0
  0
ARC
  5
C2
330
17
100
AcDbEntity
  8
0
100
AcDbCircle
 10
10.449836994655813
 20
-69.73259458117316
 30
1.0
 40
0.4
100
AcDbArc
 50
-324.74145939894134
 51
-262.49999999999983
  0
LINE
  5
C3
330
17
100
AcDbEntity
  8
0
100
AcDbLine
 10
11.829962508176463
 20
-70.99188917031638
 30
1.0
 11
10.776459201015403
 21
-69.50168781576167
 31
1.0
  0
ARC
  5
C4
330
17
100
AcDbEntity
  8
0
100
AcDbCircle
 10
11.503340301816875
 20
-71.22279593572787
 30
1.0
 40
0.4
100
AcDbArc
 50
12.469740728111077
 51
35.2585406010588
  0
LINE
  5
C5
330
17
100
AcDbEntity
  8
0
100
AcDbLine
 10
16.76728422229034
 20
-93.17389396929639
 30
1.0
 11
11.893904372977289
 21
-71.13642634432789
 31
1.0
  0
ARC
  5
C6
330
17
100
AcDbEntity
  8
0
100
AcDbCircle
 10
16.37672015112992
 20
-93.26026356069637
 30
1.0
 40
0.4
100
AcDbArc
 50
-82.49999999999932
 51
12.469740728110935
  0
LINE
  5
C7
330
17
100
AcDbEntity
  8
0
100
AcDbLine
 10
8.371045893791791
 20
-94.7176821557781
 30
1.0
 11
16.42893062801794
 21
-93.6568415052459
 31
1.0
  0
ARC
  5
C8
330
17
100
AcDbEntity
  8
0
100
AcDbCircle
 10
8.31883541690377
 20
-94.32110421122859
 30
1.0
 40
0.4
100
AcDbArc
 50
182.53025927188966
 51
277.50000000000017
  0
LINE
  5
C9
330
17
100
AcDbEntity
  8
0
100
AcDbLine
 10
6.92283252917344
 20
-71.79088036825105
 30
1.0
 11
7.919225398577284
 21
-94.3387630122384
 31
1.0
  0
ARC
  5
CA
330
17
100
AcDbEntity
  8
0
100
AcDbCircle
 10
7.322442547499926
 20
-71.77322156724124
 30
1.0
 40
0.4
100
AcDbArc
 50
159.74145939893955
 51
182.53025927188966
  0
LINE
  5
CB
330
17
100
AcDbEntity
  8
0
100
AcDbLine
 10
7.579100215277658
 20
-69.92262811191753
 30
1.0
 11
6.947186654406174
 21
-71.63471880662466
 31
1.0
  0
ARC
  5
CC
330
17
100
AcDbEntity
  8
0
100
AcDbCircle
 10
7.9543561083714085
 20
-70.06113087253411
 30
1.0
 40
0.4
100
AcDbArc
 50
97.50000000000001
 51
159.7414593989395
  0
LINE
  5
CD
330
17
100
AcDbEntity
  8
0
100
AcDbLine
 10
19.35883961680957
 20
-67.38567480501906
 30
1.0
 11
16.927590506563774
 21
-68.03712604070832
 31
1.0
  0
ARC
  5
CE
330
17
100
AcDbEntity
  8
0
100
AcDbCircle
 10
19.462367234850575
 20
-67.7720451355347
 30
1.0
 40
0.4
100
AcDbArc
 50
-317.24145939893947
 51
-255.0000000000004
  0
LINE
  5
CF
330
17
100
AcDbEntity
  8
0
100
AcDbLine
 10
20.99505651088569
 20
-68.84042375683099
 30
1.0
 11
19.756055762109344
 21
-67.50048105662039
 31
1.0
  0
ARC
  5
D0
330
17
100
AcDbEntity
  8
0
100
AcDbCircle
 10
20.70136798362692
 20
-69.1119878357453
 30
1.0
 40
0.4
100
AcDbArc
 50
19.96974072810994
 51
42.75854060106059
  0
LINE
  5
D1
330
17
100
AcDbEntity
  8
0
100
AcDbLine
 10
28.785471375511005
 20
-90.18820862664026
 30
1.0
 11
21.077317231127108
 21
-68.9753783071463
 31
1.0
  0
ARC
  5
D2
330
17
100
AcDbEntity
  8
0
100
AcDbCircle
 10
28.409522128010813
 20
-90.32481815523926
 30
1.0
 40
0.4
100
AcDbArc
 50
-75.00000000000043
 51
19.96974072810994
  0
LINE
  5
D3
330
17
100
AcDbEntity
  8
0
100
AcDbLine
 10
20.662568823427033
 20
-92.81471850916813
 30
1.0
 11
28.51304974605182
 21
-90.71118848575489
 31
1.0
  0
ARC
  5
D4
330
17
100
AcDbEntity
  8
0
100
AcDbCircle
 10
20.559041205386027
 20
-92.4283481786525
 30
1.0
 40
0.4
100
AcDbArc
 50
190.03025927188975
 51
284.9999999999996
  0
LINE
  5
D5
330
17
100
AcDbEntity
  8
0
100
AcDbLine
 10
16.23419698779352
 20
-70.27308846519436
 30
1.0
 11
20.165154842217724
 21
-92.49801548023684
 31
1.0
  0
ARC
  5
D6
330
17
100
AcDbEntity
  8
0
100
AcDbCircle
 10
16.628083350961827
 20
-70.20342116361002
 30
1.0
 40
0.4
100
AcDbArc
 50
167.24145939894055
 51
190.03025927188966
  0
LINE
  5
D7
330
17
100
AcDbEntity
  8
0
100
AcDbLine
 10
16.640994359741494
 20
-68.33515924375823
 30
1.0
 11
16.23795958609854
 21
-70.1150840361443
 31
1.0
  0
ARC
  5
D8
330
17
100
AcDbEntity
  8
0
100
AcDbCircle
 10
17.031118124604784
 20
-68.42349637122395
 30
1.0
 40
0.4
100
AcDbArc
 50
105.00000000000006
 51
167.24145939894055
  0
LINE
  5
D9
330
17
100
AcDbEntity
  8
0
100
AcDbLine
 10
27.988817602723454
 20
-64.28234539466195
 30
1.0
 11
25.663399614862175
 21
-65.24556506342043
 31
1.0
  0
ARC
  5
DA
330
17
100
AcDbEntity
  8
0
100
AcDbCircle
 10
28.141890975669483
 20
-64.65189720766645
 30
1.0
 40
0.4
100
AcDbArc
 50
-309.74145939894044
 51
-247.5
  0
LINE
  5
DB
330
17
100
AcDbEntity
  8
0
100
AcDbLine
 10
29.800919275764365
 20
-65.51107960669493
 30
1.0
 11
28.397620731700204
 21
-64.34432235193135
 31
1.0
  0
ARC
  5
DC
330
17
100
AcDbEntity
  8
0
100
AcDbCircle
 10
29.545189519733633
 20
-65.81865446243005
 30
1.0
 40
0.4
100
AcDbArc
 50
27.46974072811051
 51
50.25854060105917
  0
LINE
  5
DD
330
17
100
AcDbEntity
  8
0
100
AcDbLine
 10
40.31113113265632
 20
-85.65937802948686
 30
1.0
 11
29.90009134771605
 21
-65.63414242354168
 31
1.0
  0
ARC
  5
DE
330
17
100
AcDbEntity
  8
0
100
AcDbCircle
 10
39.95622930467391
 20
-85.84389006837523
 30
1.0
 40
0.4
100
AcDbArc
 50
-67.49999999999983
 51
27.469740728110736
  0
LINE
  5
DF
330
17
100
AcDbEntity
  8
0
100
AcDbLine
 10
32.600549471747165
 20
-89.32366929576472
 30
1.0
 11
40.10930267761995
 21
-86.21344188137975
 31
1.0
  0
ARC
  5
E0
330
17
100
AcDbEntity
  8
0
100
AcDbCircle
 10
32.44747609880113
 20
-88.95411748276021
 30
1.0
 40
0.4
100
AcDbArc
 50
197.53025927189032
 51
292.50000000000097
  0
LINE
  5
E1
330
17
100
AcDbEntity
  8
0
100
AcDbLine
 10
25.267789834982782
 20
-67.5529045351172
 30
1.0
 11
32.06605289567075
 21
-89.07460125807356
 31
1.0
  0
ARC
  5
E2
330
17
100
AcDbEntity
  8
0
100
AcDbCircle
 10
25.649213038113167
 20
-67.43242075980385
 30
1.0
 40
0.4
100
AcDbArc
 50
174.7414593989401
 51
197.53025927189015
  0
LINE
  5
E3
330
17
100
AcDbEntity
  8
0
100
AcDbLine
 10
25.41815647695494
 20
-65.57845685485269
 30
1.0
 11
25.2508965272599
 21
-67.39576073823159
 31
1.0
  0
ARC
  5
E4
330
17
100
AcDbEntity
  8
0
100
AcDbCircle
 10
25.81647298780821
 20
-65.61511687642495
 30
1.0
 40
0.4
100
AcDbArc
 50
112.49999999999969
 51
174.7414593989401
  0
LINE
  5
E5
330
17
100
AcDbEntity
  8
0
100
AcDbLine
 10
36.1398991594884
 20
-60.079127232168965
 30
1.0
 11
33.96010084051161
 21
-61.33763437840931
 31
1.0
  0
ARC
  5
E6
330
17
100
AcDbEntity
  8
0
100
AcDbCircle
 10
36.339899159488404
 20
-60.425537393682745
 30
1.0
 40
0.4
100
AcDbArc
 50
-302.2414593989396
 51
-239.99999999999955
  0
LINE
  5
E7
330
17
100
AcDbEntity
  8
0
100
AcDbLine
 10
38.09688004945883
 20
-61.06082272138565
 30
1.0
 11
36.5532945372637
 21
-60.087214452184334
 31
1.0
  0
ARC
  5
E8
330
17
100
AcDbEntity
  8
0
100
AcDbCircle
 10
37.88348467168354
 20
-61.39914566288405
 30
1.0
 40
0.4
100
AcDbArc
 50
34.96974072811051
 51
57.75854060106069
  0
LINE
  5
E9
330
17
100
AcDbEntity
  8
0
100
AcDbLine
 10
51.14705625976479
 20
-79.66489172498262
 30
1.0
 11
38.21126661147402
 21
-61.16988816584809
 31
1.0
  0
ARC
  5
EA
330
17
100
AcDbEntity
  8
0
100
AcDbCircle
 10
50.81927431997431
 20
-79.89414922201858
 30
1.0
 40
0.4
100
AcDbArc
 50
-59.99999999999952
 51
34.96974072811051
  0
LINE
  5
EB
330
17
100
AcDbEntity
  8
0
100
AcDbLine
 10
43.980725680025714
 20
-84.30426733551097
 30
1.0
 11
51.019274319974315
 21
-80.24055938353236
 31
1.0
  0
ARC
  5
EC
330
17
100
AcDbEntity
  8
0
100
AcDbCircle
 10
43.780725680025704
 20
-83.95785717399718
 30
1.0
 40
0.4
100
AcDbArc
 50
205.03025927188924
 51
300.00000000000136
  0
LINE
  5
ED
330
17
100
AcDbEntity
  8
0
100
AcDbLine
 10
33.869043792540566
 20
-63.67687167924069
 30
1.0
 11
43.418291893689286
 21
-84.1270959122395
 31
1.0
  0
ARC
  5
EE
330
17
100
AcDbEntity
  8
0
100
AcDbCircle
 10
34.23147757887698
 20
-63.50763294099838
 30
1.0
 40
0.4
100
AcDbArc
 50
182.2414593989401
 51
205.03025927188963
  0
LINE
  5
EF
330
17
100
AcDbEntity
  8
0
100
AcDbLine
 10
33.76040688960326
 20
-61.69968888737747
 30
1.0
 11
33.83178362796863
 21
-63.52327728845276
 31
1.0
  0
ARC
  5
F0
330
17
100
AcDbEntity
  8
0
100
AcDbCircle
 10
34.16010084051161
 20
-61.684044539923086
 30
1.0
 40
0.4
100
AcDbArc
 50
120.00000000000047
 51
182.24145939894004
  0
LINE
  5
F1
330
17
100
AcDbEntity
  8
0
100
AcDbLine
 10
43.67261702176148
 20
-54.847938545652624
 30
1.0
 11
41.67573532526115
 21
-56.38019976317854
 31
1.0
  0
ARC
  5
F2
330
17
100
AcDbEntity
  8
0
100
AcDbCircle
 10
43.91612159336497
 20
-55.165279881769116
 30
1.0
 40
0.4
100
AcDbArc
 50
-294.7414593989404
 51
-232.49999999999983
  0
LINE
  5
F3
330
17
100
AcDbEntity
  8
0
100
AcDbLine
 10
45.740992643056494
 20
-55.56579823005511
 30
1.0
 11
44.08353133880674
 21
-54.80199765383728
 31
1.0
  0
ARC
  5
F4
330
17
100
AcDbEntity
  8
0
100
AcDbCircle
 10
45.57358289761472
 20
-55.92908045798694
 30
1.0
 40
0.4
100
AcDbArc
 50
42.46974072811028
 51
65.25854060105925
  0
LINE
  5
F5
330
17
100
AcDbEntity
  8
0
100
AcDbLine
 10
61.10784107362566
 20
-72.30731703578317
 30
1.0
 11
45.86863650934512
 21
-55.65900016213987
 31
1.0
  0
ARC
  5
F6
330
17
100
AcDbEntity
  8
0
100
AcDbCircle
 10
60.812787461895255
 20
-72.57739733163025
 30
1.0
 40
0.4
100
AcDbArc
 50
-52.50000000000051
 51
42.46974072811102
  0
LINE
  5
F7
330
17
100
AcDbEntity
  8
0
100
AcDbLine
 10
54.608379478158184
 20
-77.84239598758793
 30
1.0
 11
61.05629203349874
 21
-72.89473866774675
 31
1.0
  0
ARC
  5
F8
330
17
100
AcDbEntity
  8
0
100
AcDbCircle
 10
54.364874906554704
 20
-77.52505465147145
 30
1.0
 40
0.4
100
AcDbArc
 50
212.53025927188912
 51
307.49999999999994
  0
LINE
  5
F9
330
17
100
AcDbEntity
  8
0
100
AcDbLine
 10
41.890789020535024
 20
-58.711309894368206
 30
1.0
 11
54.02763187958211
 21
-77.74015263090956
 31
1.0
  0
ARC
  5
FA
330
17
100
AcDbEntity
  8
0
100
AcDbCircle
 10
42.22803204750762
 20
-58.496211914930086
 30
1.0
 40
0.4
100
AcDbArc
 50
189.7414593989405
 51
212.53025927189
  0
LINE
  5
FB
330
17
100
AcDbEntity
  8
0
100
AcDbLine
 10
41.52500738021735
 20
-56.76522213665368
 30
1.0
 11
41.833799530860325
 21
-58.56389295228874
 31
1.0
  0
ARC
  5
FC
330
17
100
AcDbEntity
  8
0
100
AcDbCircle
 10
41.91923989686464
 20
-56.69754109929503
 30
1.0
 40
0.4
100
AcDbArc
 50
127.50000000000016
 51
189.7414593989405
  0
LINE
  5
FD
330
17
100
AcDbEntity
  8
0
100
AcDbLine
 10
50.45808429845524
 20
-48.67828642389872
 30
1.0
 11
48.67828642389869
 21
-50.45808429845527
 31
1.0
  0
ARC
  5
FE
330
17
100
AcDbEntity
  8
0
100
AcDbCircle
 10
50.74092701092986
 20
-48.96112913637334
 30
1.0
 40
0.4
100
AcDbArc
 50
-287.2414593989399
 51
-225.0
  0
LINE
  5
FF
330
17
100
AcDbEntity
  8
0
100
AcDbLine
 10
52.60246417073239
 20
-49.120027525258564
 30
1.0
 11
50.85948669687884
 21
-48.57910348164884
 31
1.0
  0
ARC
  5
100
330
17
100
AcDbEntity
  8
0
100
AcDbCircle
 10
52.48390448478341
 20
-49.502053179983065
 30
1.0
 40
0.4
100
AcDbArc
 50
49.96974072810991
 51
72.75854060106035
  0
LINE
  5
101
330
17
100
AcDbEntity
  8
0
100
AcDbLine
 10
70.02305378442246
 20
-63.7125441047258
 30
1.0
 11
52.74118131935272
 21
-49.195771234067216
 31
1.0
  0
ARC
  5
102
330
17
100
AcDbEntity
  8
0
100
AcDbCircle
 10
69.76577694985315
 20
-64.01882605064165
 30
1.0
 40
0.4
100
AcDbArc
 50
-45.0
 51
49.96974072810991
  0
LINE
  5
103
330
17
100
AcDbEntity
  8
0
100
AcDbLine
 10
64.30166876311623
 20
-70.0486196623278
 30
1.0
 11
70.04861966232777
 21
-64.30166876311627
 31
1.0
  0
ARC
  5
104
330
17
100
AcDbEntity
  8
0
100
AcDbCircle
 10
64.01882605064161
 20
-69.76577694985318
 30
1.0
 40
0.4
100
AcDbArc
 50
220.0302592718901
 51
315.0
  0
LINE
  5
105
330
17
100
AcDbEntity
  8
0
100
AcDbLine
 10
49.195771234067195
 20
-52.74118131935275
 30
1.0
 11
63.712544104725765
 21
-70.02305378442249
 31
1.0
  0
ARC
  5
106
330
17
100
AcDbEntity
  8
0
100
AcDbCircle
 10
49.50205317998304
 20
-52.48390448478344
 30
1.0
 40
0.4
100
AcDbArc
 50
197.24145939893992
 51
220.0302592718901
  0
LINE
  5
107
330
17
100
AcDbEntity
  8
0
100
AcDbLine
 10
48.579103481648815
 20
-50.85948669687887
 30
1.0
 11
49.12002752525854
 21
-52.60246417073242
 31
1.0
  0
ARC
  5
108
330
17
100
AcDbEntity
  8
0
100
AcDbCircle
 10
48.96112913637331
 20
-50.74092701092989
 30
1.0
 40
0.4
100
AcDbArc
 50
135.0
 51
197.24145939893992
  0
LINE
  5
109
330
17
100
AcDbEntity
  8
0
100
AcDbLine
 10
56.380199763178524
 20
-41.675735325261165
 30
1.0
 11
54.84793854565261
 21
-43.67261702176149
 31
1.0
  0
ARC
  5
10A
330
17
100
AcDbEntity
  8
0
100
AcDbCircle
 10
56.697541099295016
 20
-41.91923989686465
 30
1.0
 40
0.4
100
AcDbArc
 50
-279.7414593989405
 51
-217.50000000000017
  0
LINE
  5
10B
330
17
100
AcDbEntity
  8
0
100
AcDbLine
 10
58.56389295228871
 20
-41.83379953086034
 30
1.0
 11
56.76522213665367
 21
-41.52500738021737
 31
1.0
  0
ARC
  5
10C
330
17
100
AcDbEntity
  8
0
100
AcDbCircle
 10
58.496211914930065
 20
-42.22803204750762
 30
1.0
 40
0.4
100
AcDbArc
 50
57.46974072811004
 51
80.25854060106036
  0
LINE
  5
10D
330
17
100
AcDbEntity
  8
0
100
AcDbLine
 10
77.74015263090953
 20
-54.027631879582124
 30
1.0
 11
58.71130989436818
 21
-41.89078902053503
 31
1.0
  0
ARC
  5
10E
330
17
100
AcDbEntity
  8
0
100
AcDbCircle
 10
77.52505465147142
 20
-54.36487490655472
 30
1.0
 40
0.4
100
AcDbArc
 50
-37.49999999999952
 51
57.46974072811088
  0
LINE
  5
10F
330
17
100
AcDbEntity
  8
0
100
AcDbLine
 10
72.89473866774674
 20
-61.05629203349876
 30
1.0
 11
77.84239598758792
 21
-54.608379478158206
 31
1.0
  0
ARC
  5
110
330
17
100
AcDbEntity
  8
0
100
AcDbCircle
 10
72.57739733163024
 20
-60.812787461895276
 30
1.0
 40
0.4
100
AcDbArc
 50
227.53025927188895
 51
322.5000000000005
  0
LINE
  5
111
330
17
100
AcDbEntity
  8
0
100
AcDbLine
 10
55.65900016213986
 20
-45.868636509345144
 30
1.0
 11
72.30731703578316
 21
-61.10784107362568
 31
1.0
  0
ARC
  5
112
330
17
100
AcDbEntity
  8
0
100
AcDbCircle
 10
55.929080457986935
 20
-45.57358289761474
 30
1.0
 40
0.4
100
AcDbArc
 50
204.74145939894032
 51
227.53025927188972
  0
LINE
  5
113
330
17
100
AcDbEntity
  8
0
100
AcDbLine
 10
54.80199765383726
 20
-44.08353133880675
 30
1.0
 11
55.565798230055094
 21
-45.74099264305651
 31
1.0
  0
ARC
  5
114
330
17
100
AcDbEntity
  8
0
100
AcDbCircle
 10
55.165279881769095
 20
-43.91612159336498
 30
1.0
 40
0.4
100
AcDbArc
 50
142.49999999999923
 51
204.74145939894078
  0
LINE
  5
115
330
17
100
AcDbEntity
  8
0
100
AcDbLine
 10
61.3376343784093
 20
-33.96010084051163
 30
1.0
 11
60.07912723216896
 21
-36.139899159488415
 31
1.0
  0
ARC
  5
116
330
17
100
AcDbEntity
  8
0
100
AcDbCircle
 10
61.68404453992307
 20
-34.16010084051163
 30
1.0
 40
0.4
100
AcDbArc
 50
-272.2414593989401
 51
-210.00000000000045
  0
LINE
  5
117
330
17
100
AcDbEntity
  8
0
100
AcDbLine
 10
63.52327728845273
 20
-33.831783627968655
 30
1.0
 11
61.699688887377455
 21
-33.76040688960329
 31
1.0
  0
ARC
  5
118
330
17
100
AcDbEntity
  8
0
100
AcDbCircle
 10
63.50763294099835
 20
-34.231477578877
 30
1.0
 40
0.4
100
AcDbArc
 50
64.96974072811034
 51
87.75854060105995
  0
LINE
  5
119
330
17
100
AcDbEntity
  8
0
100
AcDbLine
 10
84.12709591223948
 20
-43.41829189368932
 30
1.0
 11
63.67687167924066
 21
-33.86904379254059
 31
1.0
  0
ARC
  5
11A
330
17
100
AcDbEntity
  8
0
100
AcDbCircle
 10
83.95785717399717
 20
-43.78072568002574
 30
1.0
 40
0.4
100
AcDbArc
 50
-29.99999999999949
 51
64.96974072811034
  0
LINE
  5
11B
330
17
100
AcDbEntity
  8
0
100
AcDbLine
 10
80.24055938353234
 20
-51.01927431997435
 30
1.0
 11
84.30426733551096
 21
-43.98072568002575
 31
1.0
  0
ARC
  5
11C
330
17
100
AcDbEntity
  8
0
100
AcDbCircle
 10
79.89414922201857
 20
-50.81927431997435
 30
1.0
 40
0.4
100
AcDbArc
 50
235.0302592718895
 51
329.99999999999955
  0
LINE
  5
11D
330
17
100
AcDbEntity
  8
0
100
AcDbLine
 10
61.16988816584811
 20
-38.21126661147406
 30
1.0
 11
79.66489172498261
 21
-51.147056259764824
 31
1.0
  0
ARC
  5
11E
330
17
100
AcDbEntity
  8
0
100
AcDbCircle
 10
61.39914566288406
 20
-37.88348467168359
 30
1.0
 40
0.4
100
AcDbArc
 50
212.24145939893964
 51
235.03025927188972
  0
LINE
  5
11F
330
17
100
AcDbEntity
  8
0
100
AcDbLine
 10
60.08721445218432
 20
-36.55329453726372
 30
1.0
 11
61.06082272138565
 21
-38.09688004945889
 31
1.0
  0
ARC
  5
120
330
17
100
AcDbEntity
  8
0
100
AcDbCircle
 10
60.42553739368273
 20
-36.33989915948842
 30
1.0
 40
0.4
100
AcDbArc
 50
149.99999999999952
 51
212.24145939893964
  0
LINE
  5
121
330
17
100
AcDbEntity
  8
0
100
AcDbLine
 10
65.24556506342044
 20
-25.66339961486214
 30
1.0
 11
64.28234539466196
 21
-27.98881760272342
 31
1.0
  0
ARC
  5
122
330
17
100
AcDbEntity
  8
0
100
AcDbCircle
 10
65.61511687642496
 20
-25.816472987808176
 30
1.0
 40
0.4
100
AcDbArc
 50
-264.74145939894015
 51
-202.49999999999972
  0
LINE
  5
123
330
17
100
AcDbEntity
  8
0
100
AcDbLine
 10
67.39576073823159
 20
-25.25089652725986
 30
1.0
 11
65.5784568548527
 21
-25.418156476954906
 31
1.0
  0
ARC
  5
124
330
17
100
AcDbEntity
  8
0
100
AcDbCircle
 10
67.43242075980385
 20
-25.649213038113125
 30
1.0
 40
0.4
100
AcDbArc
 50
-287.5302592718903
 51
-264.74145939894004
  0
LINE
  5
125
330
17
100
AcDbEntity
  8
0
100
AcDbLine
 10
89.07460125807359
 20
-32.06605289567071
 30
1.0
 11
67.5529045351172
 21
-25.267789834982743
 31
1.0
  0
ARC
  5
126
330
17
100
AcDbEntity
  8
0
100
AcDbCircle
 10
88.95411748276024
 20
-32.44747609880108
 30
1.0
 40
0.4
100
AcDbArc
 50
-22.5
 51
72.46974072810968
  0
LINE
  5
127
330
17
100
AcDbEntity
  8
0
100
AcDbLine
 10
86.21344188137978
 20
-40.10930267761991
 30
1.0
 11
89.32366929576474
 21
-32.60054947174711
 31
1.0
  0
ARC
  5
128
330
17
100
AcDbEntity
  8
0
100
AcDbCircle
 10
85.84389006837526
 20
-39.95622930467387
 30
1.0
 40
0.4
100
AcDbArc
 50
242.53025927188878
 51
337.49999999999983
  0
LINE
  5
129
330
17
100
AcDbEntity
  8
0
100
AcDbLine
 10
65.63414242354168
 20
-29.900091347716003
 30
1.0
 11
85.65937802948689
 21
-40.31113113265627
 31
1.0
  0
ARC
  5
12A
330
17
100
AcDbEntity
  8
0
100
AcDbCircle
 10
65.81865446243005
 20
-29.54518951973359
 30
1.0
 40
0.4
100
AcDbArc
 50
219.74145939894044
 51
242.53025927188924
  0
LINE
  5
12B
330
17
100
AcDbEntity
  8
0
100
AcDbLine
 10
64.34432235193137
 20
-28.39762073170017
 30
1.0
 11
65.51107960669495
 21
-29.80091927576431
 31
1.0
  0
ARC
  5
12C
330
17
100
AcDbEntity
  8
0
100
AcDbCircle
 10
64.65189720766647
 20
-28.141890975669448
 30
1.0
 40
0.4
100
AcDbArc
 50
157.5000000000008
 51
219.74145939894044
  0
LINE
  5
12D
330
17
100
AcDbEntity
  8
0
100
AcDbLine
 10
68.0371260407083
 20
-16.927590506563806
 30
1.0
 11
67.38567480501905
 21
-19.358839616809597
 31
1.0
  0
ARC
  5
12E
330
17
100
AcDbEntity
  8
0
100
AcDbCircle
 10
68.42349637122393
 20
-17.031118124604813
 30
1.0
 40
0.4
100
AcDbArc
 50
-257.24145939894066
 51
-194.9999999999996
  0
LINE
  5
12F
330
17
100
AcDbEntity
  8
0
100
AcDbLine
 10
70.11508403614427
 20
-16.237959586098572
 30
1.0
 11
68.33515924375821
 21
-16.64099435974152
 31
1.0
  0
ARC
  5
130
330
17
100
AcDbEntity
  8
0
100
AcDbCircle
 10
70.20342116360999
 20
-16.62808335096185
 30
1.0
 40
0.4
100
AcDbArc
 50
-280.03025927188963
 51
-257.24145939894044
  0
LINE
  5
131
330
17
100
AcDbEntity
  8
0
100
AcDbLine
 10
92.49801548023683
 20
-20.16515484221776
 30
1.0
 11
70.27308846519433
 21
-16.23419698779355
 31
1.0
  0
ARC
  5
132
330
17
100
AcDbEntity
  8
0
100
AcDbCircle
 10
92.42834817865248
 20
-20.559041205386066
 30
1.0
 40
0.4
100
AcDbArc
 50
-14.999999999999574
 51
79.96974072811031
  0
LINE
  5
133
330
17
100
AcDbEntity
  8
0
100
AcDbLine
 10
90.71118848575486
 20
-28.513049746051852
 30
1.0
 11
92.81471850916812
 21
-20.662568823427073
 31
1.0
  0
ARC
  5
134
330
17
100
AcDbEntity
  8
0
100
AcDbCircle
 10
90.32481815523924
 20
-28.409522128010845
 30
1.0
 40
0.4
100
AcDbArc
 50
250.03025927189006
 51
344.99999999999943
  0
LINE
  5
135
330
17
100
AcDbEntity
  8
0
100
AcDbLine
 10
68.9753783071463
 20
-21.07731723112714
 30
1.0
 11
90.18820862664025
 21
-28.785471375511037
 31
1.0
  0
ARC
  5
136
330
17
100
AcDbEntity
  8
0
100
AcDbCircle
 10
69.1119878357453
 20
-20.701367983626948
 30
1.0
 40
0.4
100
AcDbArc
 50
227.2414593989394
 51
250.03025927189006
  0
LINE
  5
137
330
17
100
AcDbEntity
  8
0
100
AcDbLine
 10
67.50048105662037
 20
-19.75605576210937
 30
1.0
 11
68.84042375683099
 21
-20.995056510885718
 31
1.0
  0
ARC
  5
138
330
17
100
AcDbEntity
  8
0
100
AcDbCircle
 10
67.77204513553468
 20
-19.462367234850603
 30
1.0
 40
0.4
100
AcDbArc
 50
165.00000000000043
 51
227.24145939893907
  0
LINE
  5
139
330
17
100
AcDbEntity
  8
0
100
AcDbLine
 10
69.66455292798457
 20
-7.902145631483418
 30
1.0
 11
69.33601663662363
 21
-10.397626517767819
 31
1.0
  0
ARC
  5
13A
330
17
100
AcDbEntity
  8
0
100
AcDbCircle
 10
70.06113087253411
 20
-7.9543561083714405
 30
1.0
 40
0.4
100
AcDbArc
 50
-249.74145939893947
 51
-187.4999999999999
  0
LINE
  5
13B
330
17
100
AcDbEntity
  8
0
100
AcDbLine
 10
71.63471880662465
 20
-6.947186654406213
 30
1.0
 11
69.92262811191753
 21
-7.579100215277689
 31
1.0
  0
ARC
  5
13C
330
17
100
AcDbEntity
  8
0
100
AcDbCircle
 10
71.77322156724122
 20
-7.322442547499959
 30
1.0
 40
0.4
100
AcDbArc
 50
447.4697407281103
 51
470.2585406010606
  0
LINE
  5
13D
330
17
100
AcDbEntity
  8
0
100
AcDbLine
 10
94.3387630122384
 20
-7.919225398577327
 30
1.0
 11
71.79088036825104
 21
-6.922832529173472
 31
1.0
  0
ARC
  5
13E
330
17
100
AcDbEntity
  8
0
100
AcDbCircle
 10
94.32110421122859
 20
-8.318835416903815
 30
1.0
 40
0.4
100
AcDbArc
 50
352.5000000000001
 51
447.4697407281103
  0
LINE
  5
13F
330
17
100
AcDbEntity
  8
0
100
AcDbLine
 10
93.65684150524588
 20
-16.42893062801799
 30
1.0
 11
94.7176821557781
 21
-8.371045893791836
 31
1.0
  0
ARC
  5
140
330
17
100
AcDbEntity
  8
0
100
AcDbCircle
 10
93.26026356069636
 20
-16.37672015112997
 30
1.0
 40
0.4
100
AcDbArc
 50
257.53025927188895
 51
352.49999999999983
  0
LINE
  5
141
330
17
100
AcDbEntity
  8
0
100
AcDbLine
 10
71.13642634432789
 20
-11.893904372977328
 30
1.0
 11
93.17389396929637
 21
-16.76728422229038
 31
1.0
  0
ARC
  5
142
330
17
100
AcDbEntity
  8
0
100
AcDbCircle
 10
71.22279593572787
 20
-11.50334030181691
 30
1.0
 40
0.4
100
AcDbArc
 50
234.7414593989409
 51
257.530259271889
  0
LINE
  5
143
330
17
100
AcDbEntity
  8
0
100
AcDbLine
 10
69.50168781576167
 20
-10.77645920101543
 30
1.0
 11
70.99188917031638
 21
-11.829962508176491
 31
1.0
  0
ARC
  5
144
330
17
100
AcDbEntity
  8
0
100
AcDbCircle
 10
69.73259458117316
 20
-10.449836994655842
 30
1.0
 40
0.4
100
AcDbArc
 50
172.4999999999996
 51
234.7414593989412
  0
LINE
  5
145
330
17
100
AcDbEntity
  8
0
100
AcDbLine
 10
-70.1
 20
-1.25850714624033
 30
1.0
 11
-70.1
 21
1.2585071462403474
 31
1.0
  0
ARC
  5
146
330
17
100
AcDbEntity
  8
0
100
AcDbCircle
 10
-70.5
 20
-1.25850714624033
 30
1.0
 40
0.4
100
AcDbArc
 50
-62.24145939894072
 51
0.0
  0
LINE
  5
147
330
17
100
AcDbEntity
  8
0
100
AcDbLine
 10
-71.92866367742747
 20
-2.462454567067082
 30
1.0
 11
-70.31370142686696
 21
-1.6124744351931264
 31
1.0
  0
ARC
  5
148
330
17
100
AcDbEntity
  8
0
100
AcDbCircle
 10
-72.11496225056051
 20
-2.10848727811429
 30
1.0
 40
0.4
100
AcDbArc
 50
-85.03025927188907
 51
-62.24145939894058
  0
LINE
  5
149
330
17
100
AcDbEntity
  8
0
100
AcDbLine
 10
-94.56534815345405
 20
-4.462204187256862
 30
1.0
 11
-72.08031040401457
 21
-2.5069835133925626
 31
1.0
  0
ARC
  5
14A
330
17
100
AcDbEntity
  8
0
100
AcDbCircle
 10
-94.6
 20
-4.06370795197859
 30
1.0
 40
0.4
100
AcDbArc
 50
-180.0
 51
-85.03025927188907
  0
LINE
  5
14B
330
17
100
AcDbEntity
  8
0
100
AcDbLine
 10
-95.0
 20
4.063707951978613
 30
1.0
 11
-95.0
 21
-4.06370795197859
 31
1.0
  0
ARC
  5
14C
330
17
100
AcDbEntity
  8
0
100
AcDbCircle
 10
-94.6
 20
4.063707951978613
 30
1.0
 40
0.4
100
AcDbArc
 50
85.0302592718891
 51
180.0
  0
LINE
  5
14D
330
17
100
AcDbEntity
  8
0
100
AcDbLine
 10
-72.08031040401458
 20
2.506983513392581
 30
1.0
 11
-94.56534815345405
 21
4.462204187256886
 31
1.0
  0
ARC
  5
14E
330
17
100
AcDbEntity
  8
0
100
AcDbCircle
 10
-72.11496225056052
 20
2.1084872781143087
 30
1.0
 40
0.4
100
AcDbArc
 50
62.24145939894063
 51
85.03025927188907
  0
LINE
  5
14F
330
17
100
AcDbEntity
  8
0
100
AcDbLine
 10
-70.31370142686696
 20
1.612474435193144
 30
1.0
 11
-71.92866367742748
 21
2.4624545670671023
 31
1.0
  0
ARC
  5
150
330
17
100
AcDbEntity
  8
0
100
AcDbCircle
 10
-70.5
 20
1.2585071462403472
 30
1.0
 40
0.4
100
AcDbArc
 50
0.0
 51
62.24145939894073
  0
LINE
  5
151
330
17
100
AcDbEntity
  8
0
100
AcDbLine
 10
-69.66455292798457
 20
7.902145631483412
 30
1.0
 11
-69.33601663662363
 21
10.397626517767812
 31
1.0
  0
ARC
  5
152
330
17
100
AcDbEntity
  8
0
100
AcDbCircle
 10
-70.06113087253411
 20
7.954356108371435
 30
1.0
 40
0.4
100
AcDbArc
 50
-69.74145939893961
 51
-7.499999999999886
  0
LINE
  5
153
330
17
100
AcDbEntity
  8
0
100
AcDbLine
 10
-71.63471880662465
 20
6.947186654406205
 30
1.0
 11
-69.92262811191753
 21
7.579100215277682
 31
1.0
  0
ARC
  5
154
330
17
100
AcDbEntity
  8
0
100
AcDbCircle
 10
-71.77322156724122
 20
7.322442547499951
 30
1.0
 40
0.4
100
AcDbArc
 50
-92.53025927188969
 51
-69.74145939893938
  0
LINE
  5
155
330
17
100
AcDbEntity
  8
0
100
AcDbLine
 10
-94.3387630122384
 20
7.919225398577315
 30
1.0
 11
-71.79088036825104
 21
6.922832529173463
 31
1.0
  0
ARC
  5
156
330
17
100
AcDbEntity
  8
0
100
AcDbCircle
 10
-94.32110421122859
 20
8.3188354169038
 30
1.0
 40
0.4
100
AcDbArc
 50
-187.5000000000004
 51
-92.53025927188969
  0
LINE
  5
157
330
17
100
AcDbEntity
  8
0
100
AcDbLine
 10
-93.65684150524588
 20
16.428930628017977
 30
1.0
 11
-94.7176821557781
 21
8.371045893791822
 31
1.0
  0
ARC
  5
158
330
17
100
AcDbEntity
  8
0
100
AcDbCircle
 10
-93.26026356069636
 20
16.376720151129955
 30
1.0
 40
0.4
100
AcDbArc
 50
77.53025927188897
 51
172.49999999999986
  0
LINE
  5
159
330
17
100
AcDbEntity
  8
0
100
AcDbLine
 10
-71.13642634432789
 20
11.89390437297732
 30
1.0
 11
-93.17389396929637
 21
16.76728422229037
 31
1.0
  0
ARC
  5
15A
330
17
100
AcDbEntity
  8
0
100
AcDbCircle
 10
-71.22279593572787
 20
11.5033403018169
 30
1.0
 40
0.4
100
AcDbArc
 50
54.74145939894104
 51
77.53025927188902
  0
LINE
  5
15B
330
17
100
AcDbEntity
  8
0
100
AcDbLine
 10
-69.50168781576167
 20
10.776459201015422
 30
1.0
 11
-70.99188917031638
 21
11.829962508176482
 31
1.0
  0
ARC
  5
15C
330
17
100
AcDbEntity
  8
0
100
AcDbCircle
 10
-69.73259458117316
 20
10.449836994655834
 30
1.0
 40
0.4
100
AcDbArc
 50
-7.500000000000157
 51
54.741459398941196
  0
LINE
  5
15D
330
17
100
AcDbEntity
  8
0
100
AcDbLine
 10
-68.0371260407083
 20
16.927590506563824
 30
1.0
 11
-67.38567480501905
 21
19.358839616809615
 31
1.0
  0
ARC
  5
15E
330
17
100
AcDbEntity
  8
0
100
AcDbCircle
 10
-68.42349637122393
 20
17.031118124604834
 30
1.0
 40
0.4
100
AcDbArc
 50
-77.24145939894055
 51
-15.000000000000085
  0
LINE
  5
15F
330
17
100
AcDbEntity
  8
0
100
AcDbLine
 10
-70.11508403614425
 20
16.237959586098597
 30
1.0
 11
-68.33515924375821
 21
16.640994359741548
 31
1.0
  0
ARC
  5
160
330
17
100
AcDbEntity
  8
0
100
AcDbCircle
 10
-70.20342116360997
 20
16.628083350961877
 30
1.0
 40
0.4
100
AcDbArc
 50
-100.03025927188963
 51
-77.24145939894044
  0
LINE
  5
161
330
17
100
AcDbEntity
  8
0
100
AcDbLine
 10
-92.49801548023682
 20
20.16515484221779
 30
1.0
 11
-70.27308846519432
 21
16.23419698779357
 31
1.0
  0
ARC
  5
162
330
17
100
AcDbEntity
  8
0
100
AcDbCircle
 10
-92.42834817865247
 20
20.559041205386098
 30
1.0
 40
0.4
100
AcDbArc
 50
-195.00000000000006
 51
-100.03025927188963
  0
LINE
  5
163
330
17
100
AcDbEntity
  8
0
100
AcDbLine
 10
-90.71118848575486
 20
28.513049746051884
 30
1.0
 11
-92.8147185091681
 21
20.662568823427108
 31
1.0
  0
ARC
  5
164
330
17
100
AcDbEntity
  8
0
100
AcDbCircle
 10
-90.32481815523924
 20
28.409522128010877
 30
1.0
 40
0.4
100
AcDbArc
 50
70.03025927189007
 51
164.99999999999991
  0
LINE
  5
165
330
17
100
AcDbEntity
  8
0
100
AcDbLine
 10
-68.97537830714627
 20
21.077317231127154
 30
1.0
 11
-90.18820862664025
 21
28.78547137551107
 31
1.0
  0
ARC
  5
166
330
17
100
AcDbEntity
  8
0
100
AcDbCircle
 10
-69.11198783574527
 20
20.701367983626962
 30
1.0
 40
0.4
100
AcDbArc
 50
47.241459398939064
 51
70.03025927189007
  0
LINE
  5
167
330
17
100
AcDbEntity
  8
0
100
AcDbLine
 10
-67.50048105662037
 20
19.756055762109394
 30
1.0
 11
-68.84042375683096
 21
20.995056510885725
 31
1.0
  0
ARC
  5
168
330
17
100
AcDbEntity
  8
0
100
AcDbCircle
 10
-67.77204513553468
 20
19.462367234850625
 30
1.0
 40
0.4
100
AcDbArc
 50
-15.000000000000073
 51
47.24145939893942
  0
LINE
  5
169
330
17
100
AcDbEntity
  8
0
100
AcDbLine
 10
-65.24556506342044
 20
25.663399614862154
 30
1.0
 11
-64.28234539466195
 21
27.988817602723454
 31
1.0
  0
ARC
  5
16A
330
17
100
AcDbEntity
  8
0
100
AcDbCircle
 10
-65.61511687642498
 20
25.816472987808197
 30
1.0
 40
0.4
100
AcDbArc
 50
-84.7414593989401
 51
-22.50000000000017
  0
LINE
  5
16B
330
17
100
AcDbEntity
  8
0
100
AcDbLine
 10
-67.39576073823157
 20
25.25089652725989
 30
1.0
 11
-65.57845685485272
 21
25.418156476954927
 31
1.0
  0
ARC
  5
16C
330
17
100
AcDbEntity
  8
0
100
AcDbCircle
 10
-67.43242075980383
 20
25.649213038113146
 30
1.0
 40
0.4
100
AcDbArc
 50
-107.53025927189015
 51
-84.74145939893998
  0
LINE
  5
16D
330
17
100
AcDbEntity
  8
0
100
AcDbLine
 10
-89.07460125807357
 20
32.06605289567074
 30
1.0
 11
-67.55290453511718
 21
25.26778983498276
 31
1.0
  0
ARC
  5
16E
330
17
100
AcDbEntity
  8
0
100
AcDbCircle
 10
-88.95411748276022
 20
32.44747609880111
 30
1.0
 40
0.4
100
AcDbArc
 50
-202.4999999999992
 51
-107.53025927189032
  0
LINE
  5
16F
330
17
100
AcDbEntity
  8
0
100
AcDbLine
 10
-86.21344188137977
 20
40.10930267761994
 30
1.0
 11
-89.32366929576473
 21
32.600549471747144
 31
1.0
  0
ARC
  5
170
330
17
100
AcDbEntity
  8
0
100
AcDbCircle
 10
-85.84389006837525
 20
39.9562293046739
 30
1.0
 40
0.4
100
AcDbArc
 50
62.53025927188879
 51
157.49999999999983
  0
LINE
  5
171
330
17
100
AcDbEntity
  8
0
100
AcDbLine
 10
-65.63414242354166
 20
29.900091347716028
 30
1.0
 11
-85.65937802948687
 21
40.3111311326563
 31
1.0
  0
ARC
  5
172
330
17
100
AcDbEntity
  8
0
100
AcDbCircle
 10
-65.81865446243003
 20
29.54518951973362
 30
1.0
 40
0.4
100
AcDbArc
 50
39.74145939894083
 51
62.53025927188927
  0
LINE
  5
173
330
17
100
AcDbEntity
  8
0
100
AcDbLine
 10
-64.34432235193135
 20
28.397620731700197
 30
1.0
 11
-65.51107960669493
 21
29.800919275764343
 31
1.0
  0
ARC
  5
174
330
17
100
AcDbEntity
  8
0
100
AcDbCircle
 10
-64.65189720766645
 20
28.141890975669483
 30
1.0
 40
0.4
100
AcDbArc
 50
-22.5
 51
39.741459398940044
  0
LINE
  5
175
330
17
100
AcDbEntity
  8
0
100
AcDbLine
 10
-61.33763437840933
 20
33.9601008405116
 30
1.0
 11
-60.079127232168986
 21
36.13989915948838
 31
1.0
  0
ARC
  5
176
330
17
100
AcDbEntity
  8
0
100
AcDbCircle
 10
-61.6840445399231
 20
34.1601008405116
 30
1.0
 40
0.4
100
AcDbArc
 50
-92.24145939894004
 51
-30.00000000000051
  0
LINE
  5
177
330
17
100
AcDbEntity
  8
0
100
AcDbLine
 10
-63.52327728845276
 20
33.83178362796862
 30
1.0
 11
-61.699688887377484
 21
33.76040688960325
 31
1.0
  0
ARC
  5
178
330
17
100
AcDbEntity
  8
0
100
AcDbCircle
 10
-63.50763294099838
 20
34.23147757887696
 30
1.0
 40
0.4
100
AcDbArc
 50
-115.03025927188963
 51
-92.2414593989401
  0
LINE
  5
179
330
17
100
AcDbEntity
  8
0
100
AcDbLine
 10
-84.12709591223953
 20
43.41829189368927
 30
1.0
 11
-63.67687167924069
 21
33.869043792540545
 31
1.0
  0
ARC
  5
17A
330
17
100
AcDbEntity
  8
0
100
AcDbCircle
 10
-83.95785717399721
 20
43.7807256800257
 30
1.0
 40
0.4
100
AcDbArc
 50
-210.00000000000045
 51
-115.03025927188924
  0
LINE
  5
17B
330
17
100
AcDbEntity
  8
0
100
AcDbLine
 10
-80.24055938353239
 20
51.01927431997431
 30
1.0
 11
-84.30426733551099
 21
43.9807256800257
 31
1.0
  0
ARC
  5
17C
330
17
100
AcDbEntity
  8
0
100
AcDbCircle
 10
-79.89414922201861
 20
50.819274319974305
 30
1.0
 40
0.4
100
AcDbArc
 50
55.030259271889484
 51
149.99999999999952
  0
LINE
  5
17D
330
17
100
AcDbEntity
  8
0
100
AcDbLine
 10
-61.16988816584815
 20
38.21126661147403
 30
1.0
 11
-79.66489172498265
 21
51.147056259764774
 31
1.0
  0
ARC
  5
17E
330
17
100
AcDbEntity
  8
0
100
AcDbCircle
 10
-61.3991456628841
 20
37.88348467168356
 30
1.0
 40
0.4
100
AcDbArc
 50
32.24145939893965
 51
55.03025927188973
  0
LINE
  5
17F
330
17
100
AcDbEntity
  8
0
100
AcDbLine
 10
-60.087214452184355
 20
36.55329453726368
 30
1.0
 11
-61.0608227213857
 21
38.09688004945886
 31
1.0
  0
ARC
  5
180
330
17
100
AcDbEntity
  8
0
100
AcDbCircle
 10
-60.42553739368276
 20
36.33989915948838
 30
1.0
 40
0.4
100
AcDbArc
 50
-30.000000000000487
 51
32.24145939894018
  0
LINE
  5
181
330
17
100
AcDbEntity
  8
0
100
AcDbLine
 10
-56.380199763178524
 20
41.675735325261165
 30
1.0
 11
-54.84793854565261
 21
43.67261702176149
 31
1.0
  0
ARC
  5
182
330
17
100
AcDbEntity
  8
0
100
AcDbCircle
 10
-56.697541099295016
 20
41.91923989686465
 30
1.0
 40
0.4
100
AcDbArc
 50
-99.74145939894049
 51
-37.50000000000017
  0
LINE
  5
183
330
17
100
AcDbEntity
  8
0
100
AcDbLine
 10
-58.56389295228871
 20
41.83379953086034
 30
1.0
 11
-56.76522213665367
 21
41.52500738021737
 31
1.0
  0
ARC
  5
184
330
17
100
AcDbEntity
  8
0
100
AcDbCircle
 10
-58.496211914930065
 20
42.22803204750762
 30
1.0
 40
0.4
100
AcDbArc
 50
-122.53025927188912
 51
-99.74145939893964
  0
LINE
  5
185
330
17
100
AcDbEntity
  8
0
100
AcDbLine
 10
-77.74015263090953
 20
54.027631879582124
 30
1.0
 11
-58.71130989436818
 21
41.89078902053503
 31
1.0
  0
ARC
  5
186
330
17
100
AcDbEntity
  8
0
100
AcDbCircle
 10
-77.52505465147142
 20
54.36487490655472
 30
1.0
 40
0.4
100
AcDbArc
 50
-217.4999999999995
 51
-122.53025927188912
  0
LINE
  5
187
330
17
100
AcDbEntity
  8
0
100
AcDbLine
 10
-72.89473866774674
 20
61.05629203349876
 30
1.0
 11
-77.84239598758792
 21
54.608379478158206
 31
1.0
  0
ARC
  5
188
330
17
100
AcDbEntity
  8
0
100
AcDbCircle
 10
-72.57739733163024
 20
60.812787461895276
 30
1.0
 40
0.4
100
AcDbArc
 50
47.53025927189048
 51
142.5000000000005
  0
LINE
  5
189
330
17
100
AcDbEntity
  8
0
100
AcDbLine
 10
-55.65900016213986
 20
45.868636509345144
 30
1.0
 11
-72.30731703578316
 21
61.10784107362568
 31
1.0
  0
ARC
  5
18A
330
17
100
AcDbEntity
  8
0
100
AcDbCircle
 10
-55.929080457986935
 20
45.57358289761474
 30
1.0
 40
0.4
100
AcDbArc
 50
24.74145939894034
 51
47.53025927188972
  0
LINE
  5
18B
330
17
100
AcDbEntity
  8
0
100
AcDbLine
 10
-54.80199765383726
 20
44.08353133880675
 30
1.0
 11
-55.565798230055094
 21
45.74099264305651
 31
1.0
  0
ARC
  5
18C
330
17
100
AcDbEntity
  8
0
100
AcDbCircle
 10
-55.165279881769095
 20
43.91612159336498
 30
1.0
 40
0.4
100
AcDbArc
 50
-37.50000000000076
 51
24.741459398940744
  0
LINE
  5
18D
330
17
100
AcDbEntity
  8
0
100
AcDbLine
 10
-50.45808429845524
 20
48.67828642389871
 30
1.0
 11
-48.6782864238987
 21
50.458084298455255
 31
1.0
  0
ARC
  5
18E
330
17
100
AcDbEntity
  8
0
100
AcDbCircle
 10
-50.74092701092986
 20
48.96112913637333
 30
1.0
 40
0.4
100
AcDbArc
 50
-107.24145939893958
 51
-45.0
  0
LINE
  5
18F
330
17
100
AcDbEntity
  8
0
100
AcDbLine
 10
-52.60246417073239
 20
49.12002752525856
 30
1.0
 11
-50.85948669687884
 21
48.57910348164883
 31
1.0
  0
ARC
  5
190
330
17
100
AcDbEntity
  8
0
100
AcDbCircle
 10
-52.48390448478341
 20
49.502053179983044
 30
1.0
 40
0.4
100
AcDbArc
 50
-130.0302592718894
 51
-107.24145939893992
  0
LINE
  5
191
330
17
100
AcDbEntity
  8
0
100
AcDbLine
 10
-70.02305378442246
 20
63.71254410472579
 30
1.0
 11
-52.74118131935272
 21
49.195771234067195
 31
1.0
  0
ARC
  5
192
330
17
100
AcDbEntity
  8
0
100
AcDbCircle
 10
-69.76577694985315
 20
64.01882605064164
 30
1.0
 40
0.4
100
AcDbArc
 50
-225.0
 51
-130.0302592718901
  0
LINE
  5
193
330
17
100
AcDbEntity
  8
0
100
AcDbLine
 10
-64.30166876311624
 20
70.04861966232778
 30
1.0
 11
-70.04861966232777
 21
64.30166876311625
 31
1.0
  0
ARC
  5
194
330
17
100
AcDbEntity
  8
0
100
AcDbCircle
 10
-64.01882605064162
 20
69.76577694985316
 30
1.0
 40
0.4
100
AcDbArc
 50
40.03025927189008
 51
135.00000000000145
  0
LINE
  5
195
330
17
100
AcDbEntity
  8
0
100
AcDbLine
 10
-49.1957712340672
 20
52.741181319352734
 30
1.0
 11
-63.71254410472578
 21
70.02305378442247
 31
1.0
  0
ARC
  5
196
330
17
100
AcDbEntity
  8
0
100
AcDbCircle
 10
-49.502053179983044
 20
52.48390448478342
 30
1.0
 40
0.4
100
AcDbArc
 50
17.24145939893994
 51
40.03025927189008
  0
LINE
  5
197
330
17
100
AcDbEntity
  8
0
100
AcDbLine
 10
-48.57910348164882
 20
50.859486696878854
 30
1.0
 11
-49.12002752525854
 21
52.602464170732404
 31
1.0
  0
ARC
  5
198
330
17
100
AcDbEntity
  8
0
100
AcDbCircle
 10
-48.961129136373316
 20
50.74092701092987
 30
1.0
 40
0.4
100
AcDbArc
 50
-45.0
 51
17.24145939893994
  0
LINE
  5
199
330
17
100
AcDbEntity
  8
0
100
AcDbLine
 10
-43.67261702176148
 20
54.847938545652624
 30
1.0
 11
-41.67573532526115
 21
56.38019976317854
 31
1.0
  0
ARC
  5
19A
330
17
100
AcDbEntity
  8
0
100
AcDbCircle
 10
-43.91612159336497
 20
55.165279881769116
 30
1.0
 40
0.4
100
AcDbArc
 50
-114.74145939894038
 51
-52.49999999999983
  0
LINE
  5
19B
330
17
100
AcDbEntity
  8
0
100
AcDbLine
 10
-45.740992643056494
 20
55.56579823005511
 30
1.0
 11
-44.08353133880674
 21
54.80199765383728
 31
1.0
  0
ARC
  5
19C
330
17
100
AcDbEntity
  8
0
100
AcDbCircle
 10
-45.57358289761472
 20
55.92908045798694
 30
1.0
 40
0.4
100
AcDbArc
 50
-137.5302592718897
 51
-114.74145939894078
  0
LINE
  5
19D
330
17
100
AcDbEntity
  8
0
100
AcDbLine
 10
-61.10784107362566
 20
72.30731703578317
 30
1.0
 11
-45.86863650934512
 21
55.65900016213987
 31
1.0
  0
ARC
  5
19E
330
17
100
AcDbEntity
  8
0
100
AcDbCircle
 10
-60.812787461895255
 20
72.57739733163025
 30
1.0
 40
0.4
100
AcDbArc
 50
-232.5000000000005
 51
-137.53025927188895
  0
LINE
  5
19F
330
17
100
AcDbEntity
  8
0
100
AcDbLine
 10
-54.608379478158184
 20
77.84239598758793
 30
1.0
 11
-61.05629203349874
 21
72.89473866774675
 31
1.0
  0
ARC
  5
1A0
330
17
100
AcDbEntity
  8
0
100
AcDbCircle
 10
-54.364874906554704
 20
77.52505465147145
 30
1.0
 40
0.4
100
AcDbArc
 50
32.53025927188912
 51
127.49999999999996
  0
LINE
  5
1A1
330
17
100
AcDbEntity
  8
0
100
AcDbLine
 10
-41.890789020535024
 20
58.711309894368206
 30
1.0
 11
-54.02763187958211
 21
77.74015263090956
 31
1.0
  0
ARC
  5
1A2
330
17
100
AcDbEntity
  8
0
100
AcDbCircle
 10
-42.22803204750762
 20
58.496211914930086
 30
1.0
 40
0.4
100
AcDbArc
 50
9.741459398940483
 51
32.53025927188999
  0
LINE
  5
1A3
330
17
100
AcDbEntity
  8
0
100
AcDbLine
 10
-41.52500738021735
 20
56.76522213665368
 30
1.0
 11
-41.833799530860325
 21
58.56389295228874
 31
1.0
  0
ARC
  5
1A4
330
17
100
AcDbEntity
  8
0
100
AcDbCircle
 10
-41.91923989686464
 20
56.69754109929503
 30
1.0
 40
0.4
100
AcDbArc
 50
-52.49999999999985
 51
9.741459398940483
  0
LINE
  5
1A5
330
17
100
AcDbEntity
  8
0
100
AcDbLine
 10
-36.13989915948837
 20
60.07912723216898
 30
1.0
 11
-33.960100840511586
 21
61.33763437840932
 31
1.0
  0
ARC
  5
1A6
330
17
100
AcDbEntity
  8
0
100
AcDbCircle
 10
-36.339899159488375
 20
60.42553739368275
 30
1.0
 40
0.4
100
AcDbArc
 50
-122.24145939893964
 51
-59.99999999999952
  0
LINE
  5
1A7
330
17
100
AcDbEntity
  8
0
100
AcDbLine
 10
-38.09688004945882
 20
61.06082272138566
 30
1.0
 11
-36.553294537263675
 21
60.08721445218434
 31
1.0
  0
ARC
  5
1A8
330
17
100
AcDbEntity
  8
0
100
AcDbCircle
 10
-37.88348467168352
 20
61.39914566288407
 30
1.0
 40
0.4
100
AcDbArc
 50
-145.03025927188946
 51
-122.24145939894021
  0
LINE
  5
1A9
330
17
100
AcDbEntity
  8
0
100
AcDbLine
 10
-51.14705625976476
 20
79.66489172498264
 30
1.0
 11
-38.211266611473995
 21
61.16988816584811
 31
1.0
  0
ARC
  5
1AA
330
17
100
AcDbEntity
  8
0
100
AcDbCircle
 10
-50.81927431997429
 20
79.8941492220186
 30
1.0
 40
0.4
100
AcDbArc
 50
-239.99999999999955
 51
-145.03025927188946
  0
LINE
  5
1AB
330
17
100
AcDbEntity
  8
0
100
AcDbLine
 10
-43.98072568002568
 20
84.30426733551097
 30
1.0
 11
-51.01927431997429
 21
80.24055938353237
 31
1.0
  0
ARC
  5
1AC
330
17
100
AcDbEntity
  8
0
100
AcDbCircle
 10
-43.780725680025675
 20
83.9578571739972
 30
1.0
 40
0.4
100
AcDbArc
 50
25.030259271889236
 51
120.00000000000047
  0
LINE
  5
1AD
330
17
100
AcDbEntity
  8
0
100
AcDbLine
 10
-33.869043792540545
 20
63.6768716792407
 30
1.0
 11
-43.41829189368926
 21
84.12709591223951
 31
1.0
  0
ARC
  5
1AE
330
17
100
AcDbEntity
  8
0
100
AcDbCircle
 10
-34.23147757887696
 20
63.507632940998384
 30
1.0
 40
0.4
100
AcDbArc
 50
2.241459398940046
 51
25.03025927188967
  0
LINE
  5
1AF
330
17
100
AcDbEntity
  8
0
100
AcDbLine
 10
-33.76040688960324
 20
61.69968888737748
 30
1.0
 11
-33.83178362796861
 21
63.52327728845277
 31
1.0
  0
ARC
  5
1B0
330
17
100
AcDbEntity
  8
0
100
AcDbCircle
 10
-34.16010084051159
 20
61.68404453992309
 30
1.0
 40
0.4
100
AcDbArc
 50
-59.99999999999951
 51
2.241459398940046
  0
LINE
  5
1B1
330
17
100
AcDbEntity
  8
0
100
AcDbLine
 10
-27.988817602723422
 20
64.28234539466196
 30
1.0
 11
-25.663399614862143
 21
65.24556506342044
 31
1.0
  0
ARC
  5
1B2
330
17
100
AcDbEntity
  8
0
100
AcDbCircle
 10
-28.141890975669455
 20
64.65189720766647
 30
1.0
 40
0.4
100
AcDbArc
 50
-129.74145939894044
 51
-67.5000000000008
  0
LINE
  5
1B3
330
17
100
AcDbEntity
  8
0
100
AcDbLine
 10
-29.800919275764304
 20
65.51107960669492
 30
1.0
 11
-28.397620731700176
 21
64.34432235193137
 31
1.0
  0
ARC
  5
1B4
330
17
100
AcDbEntity
  8
0
100
AcDbCircle
 10
-29.545189519733583
 20
65.81865446243002
 30
1.0
 40
0.4
100
AcDbArc
 50
-152.53025927188924
 51
-129.74145939894044
  0
LINE
  5
1B5
330
17
100
AcDbEntity
  8
0
100
AcDbLine
 10
-40.31113113265628
 20
85.65937802948687
 30
1.0
 11
-29.900091347715996
 21
65.63414242354165
 31
1.0
  0
ARC
  5
1B6
330
17
100
AcDbEntity
  8
0
100
AcDbCircle
 10
-39.95622930467387
 20
85.84389006837525
 30
1.0
 40
0.4
100
AcDbArc
 50
-247.49999999999983
 51
-152.53025927188924
  0
LINE
  5
1B7
330
17
100
AcDbEntity
  8
0
100
AcDbLine
 10
-32.60054947174711
 20
89.32366929576472
 30
1.0
 11
-40.1093026776199
 21
86.21344188137975
 31
1.0
  0
ARC
  5
1B8
330
17
100
AcDbEntity
  8
0
100
AcDbCircle
 10
-32.44747609880108
 20
88.95411748276021
 30
1.0
 40
0.4
100
AcDbArc
 50
17.530259271890007
 51
112.5
  0
LINE
  5
1B9
330
17
100
AcDbEntity
  8
0
100
AcDbLine
 10
-25.267789834982754
 20
67.55290453511722
 30
1.0
 11
-32.0660528956707
 21
89.07460125807356
 31
1.0
  0
ARC
  5
1BA
330
17
100
AcDbEntity
  8
0
100
AcDbCircle
 10
-25.649213038113132
 20
67.43242075980388
 30
1.0
 40
0.4
100
AcDbArc
 50
-5.2585406010599325
 51
17.530259271890312
  0
LINE
  5
1BB
330
17
100
AcDbEntity
  8
0
100
AcDbLine
 10
-25.41815647695491
 20
65.5784568548527
 30
1.0
 11
-25.250896527259865
 21
67.39576073823162
 31
1.0
  0
ARC
  5
1BC
330
17
100
AcDbEntity
  8
0
100
AcDbCircle
 10
-25.81647298780818
 20
65.61511687642496
 30
1.0
 40
0.4
100
AcDbArc
 50
-67.5000000000003
 51
-5.2585406010599325
  0
LINE
  5
1BD
330
17
100
AcDbEntity
  8
0
100
AcDbLine
 10
-19.358839616809608
 20
67.38567480501906
 30
1.0
 11
-16.927590506563806
 21
68.03712604070832
 31
1.0
  0
ARC
  5
1BE
330
17
100
AcDbEntity
  8
0
100
AcDbCircle
 10
-19.46236723485061
 20
67.77204513553468
 30
1.0
 40
0.4
100
AcDbArc
 50
-137.24145939893936
 51
-75.00000000000043
  0
LINE
  5
1BF
330
17
100
AcDbEntity
  8
0
100
AcDbLine
 10
-20.995056510885703
 20
68.84042375683096
 30
1.0
 11
-19.75605576210938
 21
67.50048105662037
 31
1.0
  0
ARC
  5
1C0
330
17
100
AcDbEntity
  8
0
100
AcDbCircle
 10
-20.70136798362694
 20
69.11198783574527
 30
1.0
 40
0.4
100
AcDbArc
 50
-160.03025927189003
 51
-137.24145939893907
  0
LINE
  5
1C1
330
17
100
AcDbEntity
  8
0
100
AcDbLine
 10
-28.785471375511047
 20
90.18820862664025
 30
1.0
 11
-21.077317231127132
 21
68.97537830714627
 31
1.0
  0
ARC
  5
1C2
330
17
100
AcDbEntity
  8
0
100
AcDbCircle
 10
-28.409522128010853
 20
90.32481815523924
 30
1.0
 40
0.4
100
AcDbArc
 50
-254.99999999999943
 51
-160.03025927189003
  0
LINE
  5
1C3
330
17
100
AcDbEntity
  8
0
100
AcDbLine
 10
-20.662568823427076
 20
92.81471850916812
 30
1.0
 11
-28.51304974605186
 21
90.71118848575486
 31
1.0
  0
ARC
  5
1C4
330
17
100
AcDbEntity
  8
0
100
AcDbCircle
 10
-20.55904120538607
 20
92.42834817865248
 30
1.0
 40
0.4
100
AcDbArc
 50
10.030259271889786
 51
104.99999999999957
  0
LINE
  5
1C5
330
17
100
AcDbEntity
  8
0
100
AcDbLine
 10
-16.234196987793556
 20
70.27308846519436
 30
1.0
 11
-20.165154842217767
 21
92.49801548023683
 31
1.0
  0
ARC
  5
1C6
330
17
100
AcDbEntity
  8
0
100
AcDbCircle
 10
-16.62808335096186
 20
70.20342116361002
 30
1.0
 40
0.4
100
AcDbArc
 50
-12.75854060105944
 51
10.030259271889685
  0
LINE
  5
1C7
330
17
100
AcDbEntity
  8
0
100
AcDbLine
 10
-16.640994359741526
 20
68.33515924375821
 30
1.0
 11
-16.237959586098572
 21
70.1150840361443
 31
1.0
  0
ARC
  5
1C8
330
17
100
AcDbEntity
  8
0
100
AcDbCircle
 10
-17.031118124604813
 20
68.42349637122393
 30
1.0
 40
0.4
100
AcDbArc
 50
-74.99999999999993
 51
-12.75854060105944
  0
LINE
  5
1C9
330
17
100
AcDbEntity
  8
0
100
AcDbLine
 10
-10.397626517767813
 20
69.33601663662364
 30
1.0
 11
-7.9021456314834095
 21
69.66455292798459
 31
1.0
  0
ARC
  5
1CA
330
17
100
AcDbEntity
  8
0
100
AcDbCircle
 10
-10.449836994655834
 20
69.73259458117316
 30
1.0
 40
0.4
100
AcDbArc
 50
-144.74145939894134
 51
-82.49999999999983
  0
LINE
  5
1CB
330
17
100
AcDbEntity
  8
0
100
AcDbLine
 10
-11.829962508176479
 20
70.99188917031637
 30
1.0
 11
-10.776459201015424
 21
69.50168781576167
 31
1.0
  0
ARC
  5
1CC
330
17
100
AcDbEntity
  8
0
100
AcDbCircle
 10
-11.503340301816896
 20
71.22279593572786
 30
1.0
 40
0.4
100
AcDbArc
 50
-167.530259271889
 51
-144.74145939894106
  0
LINE
  5
1CD
330
17
100
AcDbEntity
  8
0
100
AcDbLine
 10
-16.767284222290368
 20
93.17389396929636
 30
1.0
 11
-11.893904372977314
 21
71.13642634432787
 31
1.0
  0
ARC
  5
1CE
330
17
100
AcDbEntity
  8
0
100
AcDbCircle
 10
-16.376720151129952
 20
93.26026356069634
 30
1.0
 40
0.4
100
AcDbArc
 50
-262.49999999999983
 51
-167.53025927188907
  0
LINE
  5
1CF
330
17
100
AcDbEntity
  8
0
100
AcDbLine
 10
-8.371045893791823
 20
94.71768215577809
 30
1.0
 11
-16.428930628017973
 21
93.65684150524586
 31
1.0
  0
ARC
  5
1D0
330
17
100
AcDbEntity
  8
0
100
AcDbCircle
 10
-8.318835416903802
 20
94.32110421122857
 30
1.0
 40
0.4
100
AcDbArc
 50
2.5302592718896677
 51
97.50000000000014
  0
LINE
  5
1D1
330
17
100
AcDbEntity
  8
0
100
AcDbLine
 10
-6.922832529173465
 20
71.79088036825105
 30
1.0
 11
-7.919225398577315
 21
94.33876301223839
 31
1.0
  0
ARC
  5
1D2
330
17
100
AcDbEntity
  8
0
100
AcDbCircle
 10
-7.32244254749995
 20
71.77322156724124
 30
1.0
 40
0.4
100
AcDbArc
 50
-20.258540601060528
 51
2.5302592718896806
  0
LINE
  5
1D3
330
17
100
AcDbEntity
  8
0
100
AcDbLine
 10
-7.579100215277682
 20
69.92262811191753
 30
1.0
 11
-6.947186654406201
 21
71.63471880662466
 31
1.0
  0
ARC
  5
1D4
330
17
100
AcDbEntity
  8
0
100
AcDbCircle
 10
-7.95435610837143
 20
70.06113087253411
 30
1.0
 40
0.4
100
AcDbArc
 50
-82.49999999999999
 51
-20.258540601060563
  0
LINE
  5
1D5
330
17
100
AcDbEntity
  8
0
100
AcDbLine
 10
70.1
 20
1.2585071462403388
 30
1.0
 11
70.1
 21
-1.2585071462403383
 31
1.0
  0
ARC
  5
1D6
330
17
100
AcDbEntity
  8
0
100
AcDbCircle
 10
70.5
 20
1.2585071462403388
 30
1.0
 40
0.4
100
AcDbArc
 50
-242.24145939894066
 51
-180.0
  0
LINE
  5
1D7
330
17
100
AcDbEntity
  8
0
100
AcDbLine
 10
71.92866367742748
 20
2.462454567067092
 30
1.0
 11
70.31370142686696
 21
1.6124744351931342
 31
1.0
  0
ARC
  5
1D8
330
17
100
AcDbEntity
  8
0
100
AcDbCircle
 10
72.11496225056052
 20
2.1084872781143003
 30
1.0
 40
0.4
100
AcDbArc
 50
-265.03025927188907
 51
-242.24145939894055
  0
LINE
  5
1D9
330
17
100
AcDbEntity
  8
0
100
AcDbLine
 10
94.56534815345405
 20
4.462204187256874
 30
1.0
 11
72.08031040401458
 21
2.5069835133925724
 31
1.0
  0
ARC
  5
1DA
330
17
100
AcDbEntity
  8
0
100
AcDbCircle
 10
94.6
 20
4.063707951978602
 30
1.0
 40
0.4
100
AcDbArc
 50
-360.0
 51
-265.03025927188907
  0
LINE
  5
1DB
330
17
100
AcDbEntity
  8
0
100
AcDbLine
 10
95.0
 20
-4.063707951978602
 30
1.0
 11
95.0
 21
4.063707951978602
 31
1.0
  0
ARC
  5
1DC
330
17
100
AcDbEntity
  8
0
100
AcDbCircle
 10
94.6
 20
-4.063707951978602
 30
1.0
 40
0.4
100
AcDbArc
 50
265.03025927188907
 51
360.0
  0
LINE
  5
1DD
330
17
100
AcDbEntity
  8
0
100
AcDbLine
 10
72.08031040401458
 20
-2.506983513392572
 30
1.0
 11
94.56534815345405
 21
-4.462204187256875
 31
1.0
  0
ARC
  5
1DE
330
17
100
AcDbEntity
  8
0
100
AcDbCircle
 10
72.11496225056052
 20
-2.1084872781143
 30
1.0
 40
0.4
100
AcDbArc
 50
242.24145939894063
 51
265.03025927188907
  0
LINE
  5
1DF
330
17
100
AcDbEntity
  8
0
100
AcDbLine
 10
70.31370142686696
 20
-1.612474435193134
 30
1.0
 11
71.92866367742748
 21
-2.4624545670670925
 31
1.0
  0
ARC
  5
1E0
330
17
100
AcDbEntity
  8
0
100
AcDbCircle
 10
70.5
 20
-1.2585071462403383
 30
1.0
 40
0.4
100
AcDbArc
 50
180.0
 51
242.24145939894072
  0
LINE
  5
1E1
330
17
100
AcDbEntity
  8
0
100
AcDbLine
 10
69.33601663662364
 20
10.397626517767817
 30
1.0
 11
69.66455292798459
 21
7.9021456314834095
 31
1.0
  0
ARC
  5
1E2
330
17
100
AcDbEntity
  8
0
100
AcDbCircle
 10
69.73259458117316
 20
10.449836994655838
 30
1.0
 40
0.4
100
AcDbArc
 50
-234.74145939894117
 51
-172.49999999999983
  0
LINE
  5
1E3
330
17
100
AcDbEntity
  8
0
100
AcDbLine
 10
70.99188917031638
 20
11.829962508176486
 30
1.0
 11
69.50168781576167
 21
10.776459201015426
 31
1.0
  0
ARC
  5
1E4
330
17
100
AcDbEntity
  8
0
100
AcDbCircle
 10
71.22279593572787
 20
11.503340301816898
 30
1.0
 40
0.4
100
AcDbArc
 50
-257.53025927188907
 51
-234.74145939894117
  0
LINE
  5
1E5
330
17
100
AcDbEntity
  8
0
100
AcDbLine
 10
93.17389396929636
 20
16.767284222290368
 30
1.0
 11
71.13642634432789
 21
11.893904372977318
 31
1.0
  0
ARC
  5
1E6
330
17
100
AcDbEntity
  8
0
100
AcDbCircle
 10
93.26026356069634
 20
16.376720151129955
 30
1.0
 40
0.4
100
AcDbArc
 50
-352.4999999999999
 51
-257.53025927188895
  0
LINE
  5
1E7
330
17
100
AcDbEntity
  8
0
100
AcDbLine
 10
94.71768215577809
 20
8.371045893791823
 30
1.0
 11
93.65684150524586
 21
16.428930628017977
 31
1.0
  0
ARC
  5
1E8
330
17
100
AcDbEntity
  8
0
100
AcDbCircle
 10
94.32110421122857
 20
8.318835416903802
 30
1.0
 40
0.4
100
AcDbArc
 50
-87.46974072811032
 51
7.500000000000157
  0
LINE
  5
1E9
330
17
100
AcDbEntity
  8
0
100
AcDbLine
 10
71.79088036825105
 20
6.922832529173465
 30
1.0
 11
94.33876301223839
 21
7.919225398577316
 31
1.0
  0
ARC
  5
1EA
330
17
100
AcDbEntity
  8
0
100
AcDbCircle
 10
71.77322156724124
 20
7.322442547499951
 30
1.0
 40
0.4
100
AcDbArc
 50
249.74145939893955
 51
272.5302592718897
  0
LINE
  5
1EB
330
17
100
AcDbEntity
  8
0
100
AcDbLine
 10
69.92262811191753
 20
7.579100215277681
 30
1.0
 11
71.63471880662466
 21
6.947186654406198
 31
1.0
  0
ARC
  5
1EC
330
17
100
AcDbEntity
  8
0
100
AcDbCircle
 10
70.06113087253411
 20
7.95435610837143
 30
1.0
 40
0.4
100
AcDbArc
 50
187.50000000000014
 51
249.74145939893944
  0
LINE
  5
1ED
330
17
100
AcDbEntity
  8
0
100
AcDbLine
 10
67.38567480501906
 20
19.35883961680961
 30
1.0
 11
68.03712604070832
 21
16.927590506563803
 31
1.0
  0
ARC
  5
1EE
330
17
100
AcDbEntity
  8
0
100
AcDbCircle
 10
67.7720451355347
 20
19.462367234850618
 30
1.0
 40
0.4
100
AcDbArc
 50
-227.2414593989394
 51
-165.0000000000004
  0
LINE
  5
1EF
330
17
100
AcDbEntity
  8
0
100
AcDbLine
 10
68.84042375683096
 20
20.995056510885707
 30
1.0
 11
67.50048105662039
 21
19.756055762109387
 31
1.0
  0
ARC
  5
1F0
330
17
100
AcDbEntity
  8
0
100
AcDbCircle
 10
69.11198783574527
 20
20.701367983626938
 30
1.0
 40
0.4
100
AcDbArc
 50
-250.03025927189026
 51
-227.2414593989394
  0
LINE
  5
1F1
330
17
100
AcDbEntity
  8
0
100
AcDbLine
 10
90.18820862664025
 20
28.785471375511044
 30
1.0
 11
68.97537830714627
 21
21.077317231127132
 31
1.0
  0
ARC
  5
1F2
330
17
100
AcDbEntity
  8
0
100
AcDbCircle
 10
90.32481815523924
 20
28.40952212801085
 30
1.0
 40
0.4
100
AcDbArc
 50
-345.00000000000045
 51
-250.03025927189026
  0
LINE
  5
1F3
330
17
100
AcDbEntity
  8
0
100
AcDbLine
 10
92.81471850916812
 20
20.662568823427076
 30
1.0
 11
90.71118848575487
 21
28.513049746051855
 31
1.0
  0
ARC
  5
1F4
330
17
100
AcDbEntity
  8
0
100
AcDbCircle
 10
92.42834817865248
 20
20.55904120538607
 30
1.0
 40
0.4
100
AcDbArc
 50
-79.96974072811021
 51
14.999999999999575
  0
LINE
  5
1F5
330
17
100
AcDbEntity
  8
0
100
AcDbLine
 10
70.27308846519435
 20
16.234196987793553
 30
1.0
 11
92.49801548023683
 21
20.165154842217767
 31
1.0
  0
ARC
  5
1F6
330
17
100
AcDbEntity
  8
0
100
AcDbCircle
 10
70.20342116361
 20
16.62808335096186
 30
1.0
 40
0.4
100
AcDbArc
 50
257.24145939894044
 51
280.0302592718897
  0
LINE
  5
1F7
330
17
100
AcDbEntity
  8
0
100
AcDbLine
 10
68.33515924375823
 20
16.640994359741526
 30
1.0
 11
70.11508403614428
 21
16.237959586098576
 31
1.0
  0
ARC
  5
1F8
330
17
100
AcDbEntity
  8
0
100
AcDbCircle
 10
68.42349637122395
 20
17.031118124604813
 30
1.0
 40
0.4
100
AcDbArc
 50
195.00000000000009
 51
257.24145939894055
  0
LINE
  5
1F9
330
17
100
AcDbEntity
  8
0
100
AcDbLine
 10
64.28234539466195
 20
27.988817602723426
 30
1.0
 11
65.24556506342043
 21
25.663399614862154
 31
1.0
  0
ARC
  5
1FA
330
17
100
AcDbEntity
  8
0
100
AcDbCircle
 10
64.65189720766645
 20
28.141890975669455
 30
1.0
 40
0.4
100
AcDbArc
 50
-219.74145939894044
 51
-157.5
  0
LINE
  5
1FB
330
17
100
AcDbEntity
  8
0
100
AcDbLine
 10
65.51107960669493
 20
29.800919275764322
 30
1.0
 11
64.34432235193135
 21
28.397620731700176
 31
1.0
  0
ARC
  5
1FC
330
17
100
AcDbEntity
  8
0
100
AcDbCircle
 10
65.81865446243003
 20
29.5451895197336
 30
1.0
 40
0.4
100
AcDbArc
 50
-242.53025927188952
 51
-219.74145939894044
  0
LINE
  5
1FD
330
17
100
AcDbEntity
  8
0
100
AcDbLine
 10
85.65937802948687
 20
40.31113113265629
 30
1.0
 11
65.63414242354166
 21
29.900091347716014
 31
1.0
  0
ARC
  5
1FE
330
17
100
AcDbEntity
  8
0
100
AcDbCircle
 10
85.84389006837525
 20
39.95622930467388
 30
1.0
 40
0.4
100
AcDbArc
 50
-337.4999999999999
 51
-242.53025927188924
  0
LINE
  5
1FF
330
17
100
AcDbEntity
  8
0
100
AcDbLine
 10
89.32366929576472
 20
32.60054947174714
 30
1.0
 11
86.21344188137975
 21
40.10930267761992
 31
1.0
  0
ARC
  5
200
330
17
100
AcDbEntity
  8
0
100
AcDbCircle
 10
88.95411748276021
 20
32.447476098801104
 30
1.0
 40
0.4
100
AcDbArc
 50
-72.46974072811
 51
22.50000000000094
  0
LINE
  5
201
330
17
100
AcDbEntity
  8
0
100
AcDbLine
 10
67.55290453511721
 20
25.26778983498276
 30
1.0
 11
89.07460125807356
 21
32.066052895670715
 31
1.0
  0
ARC
  5
202
330
17
100
AcDbEntity
  8
0
100
AcDbCircle
 10
67.43242075980386
 20
25.649213038113146
 30
1.0
 40
0.4
100
AcDbArc
 50
264.7414593989401
 51
287.53025927189015
  0
LINE
  5
203
330
17
100
AcDbEntity
  8
0
100
AcDbLine
 10
65.57845685485269
 20
25.418156476954923
 30
1.0
 11
67.3957607382316
 21
25.25089652725988
 31
1.0
  0
ARC
  5
204
330
17
100
AcDbEntity
  8
0
100
AcDbCircle
 10
65.61511687642495
 20
25.81647298780819
 30
1.0
 40
0.4
100
AcDbArc
 50
202.49999999999972
 51
264.7414593989401
  0
LINE
  5
205
330
17
100
AcDbEntity
  8
0
100
AcDbLine
 10
60.07912723216898
 20
36.13989915948838
 30
1.0
 11
61.33763437840932
 21
33.96010084051159
 31
1.0
  0
ARC
  5
206
330
17
100
AcDbEntity
  8
0
100
AcDbCircle
 10
60.42553739368275
 20
36.33989915948838
 30
1.0
 40
0.4
100
AcDbArc
 50
-212.24145939893964
 51
-149.99999999999955
  0
LINE
  5
207
330
17
100
AcDbEntity
  8
0
100
AcDbLine
 10
61.060822721385655
 20
38.096880049458825
 30
1.0
 11
60.08721445218434
 21
36.55329453726368
 31
1.0
  0
ARC
  5
208
330
17
100
AcDbEntity
  8
0
100
AcDbCircle
 10
61.39914566288407
 20
37.88348467168353
 30
1.0
 40
0.4
100
AcDbArc
 50
-235.03025927188952
 51
-212.24145939893964
  0
LINE
  5
209
330
17
100
AcDbEntity
  8
0
100
AcDbLine
 10
79.66489172498265
 20
51.147056259764774
 30
1.0
 11
61.16988816584811
 21
38.21126661147401
 31
1.0
  0
ARC
  5
20A
330
17
100
AcDbEntity
  8
0
100
AcDbCircle
 10
79.8941492220186
 20
50.8192743199743
 30
1.0
 40
0.4
100
AcDbArc
 50
-329.99999999999955
 51
-235.0302592718911
  0
LINE
  5
20B
330
17
100
AcDbEntity
  8
0
100
AcDbLine
 10
84.30426733551097
 20
43.9807256800257
 30
1.0
 11
80.24055938353237
 21
51.0192743199743
 31
1.0
  0
ARC
  5
20C
330
17
100
AcDbEntity
  8
0
100
AcDbCircle
 10
83.9578571739972
 20
43.7807256800257
 30
1.0
 40
0.4
100
AcDbArc
 50
-64.96974072811219
 51
30.0000000000005
  0
LINE
  5
20D
330
17
100
AcDbEntity
  8
0
100
AcDbLine
 10
63.67687167924068
 20
33.86904379254055
 30
1.0
 11
84.12709591223951
 21
43.41829189368928
 31
1.0
  0
ARC
  5
20E
330
17
100
AcDbEntity
  8
0
100
AcDbCircle
 10
63.50763294099836
 20
34.23147757887696
 30
1.0
 40
0.4
100
AcDbArc
 50
-87.75854060105992
 51
-64.96974072811034
  0
LINE
  5
20F
330
17
100
AcDbEntity
  8
0
100
AcDbLine
 10
61.69968888737748
 20
33.760406889603246
 30
1.0
 11
63.523277288452746
 21
33.83178362796862
 31
1.0
  0
ARC
  5
210
330
17
100
AcDbEntity
  8
0
100
AcDbCircle
 10
61.68404453992309
 20
34.160100840511596
 30
1.0
 40
0.4
100
AcDbArc
 50
210.00000000000048
 51
272.24145939894004
  0
LINE
  5
211
330
17
100
AcDbEntity
  8
0
100
AcDbLine
 10
-1.258507146240329
 20
70.1
 30
1.0
 11
1.2585071462403483
 21
70.1
 31
1.0
  0
ARC
  5
212
330
17
100
AcDbEntity
  8
0
100
AcDbCircle
 10
-1.258507146240329
 20
70.5
 30
1.0
 40
0.4
100
AcDbArc
 50
-152.24145939894078
 51
-90.0
  0
LINE
  5
213
330
17
100
AcDbEntity
  8
0
100
AcDbLine
 10
-2.4624545670670837
 20
71.92866367742748
 30
1.0
 11
-1.6124744351931266
 21
70.31370142686696
 31
1.0
  0
ARC
  5
214
330
17
100
AcDbEntity
  8
0
100
AcDbCircle
 10
-2.1084872781142923
 20
72.11496225056052
 30
1.0
 40
0.4
100
AcDbArc
 50
-175.03025927188907
 51
-152.24145939894055
  0
LINE
  5
215
330
17
100
AcDbEntity
  8
0
100
AcDbLine
 10
-4.462204187256863
 20
94.56534815345405
 30
1.0
 11
-2.5069835133925644
 21
72.08031040401458
 31
1.0
  0
ARC
  5
216
330
17
100
AcDbEntity
  8
0
100
AcDbCircle
 10
-4.063707951978591
 20
94.6
 30
1.0
 40
0.4
100
AcDbArc
 50
-270.0
 51
-175.03025927188907
  0
LINE
  5
217
330
17
100
AcDbEntity
  8
0
100
AcDbLine
 10
4.063707951978612
 20
95.0
 30
1.0
 11
-4.063707951978591
 21
95.0
 31
1.0
  0
ARC
  5
218
330
17
100
AcDbEntity
  8
0
100
AcDbCircle
 10
4.063707951978612
 20
94.6
 30
1.0
 40
0.4
100
AcDbArc
 50
-4.969740728110922
 51
90.0
  0
LINE
  5
219
330
17
100
AcDbEntity
  8
0
100
AcDbLine
 10
2.50698351339258
 20
72.08031040401458
 30
1.0
 11
4.4622041872568845
 21
94.56534815345405
 31
1.0
  0
ARC
  5
21A
330
17
100
AcDbEntity
  8
0
100
AcDbCircle
 10
2.1084872781143082
 20
72.11496225056052
 30
1.0
 40
0.4
100
AcDbArc
 50
-27.758540601059437
 51
-4.969740728110922
  0
LINE
  5
21B
330
17
100
AcDbEntity
  8
0
100
AcDbLine
 10
1.612474435193142
 20
70.31370142686696
 30
1.0
 11
2.4624545670671
 21
71.92866367742748
 31
1.0
  0
ARC
  5
21C
330
17
100
AcDbEntity
  8
0
100
AcDbCircle
 10
1.258507146240348
 20
70.5
 30
1.0
 40
0.4
100
AcDbArc
 50
-90.0
 51
-27.75854060105936
  0
LINE
  5
21D
330
17
100
AcDbEntity
  8
0
100
AcDbLine
 10
7.902145631483418
 20
69.66455292798457
 30
1.0
 11
10.397626517767822
 21
69.33601663662363
 31
1.0
  0
ARC
  5
21E
330
17
100
AcDbEntity
  8
0
100
AcDbCircle
 10
7.9543561083714405
 20
70.06113087253411
 30
1.0
 40
0.4
100
AcDbArc
 50
-159.74145939893953
 51
-97.49999999999989
  0
LINE
  5
21F
330
17
100
AcDbEntity
  8
0
100
AcDbLine
 10
6.947186654406205
 20
71.63471880662468
 30
1.0
 11
7.579100215277689
 21
69.92262811191753
 31
1.0
  0
ARC
  5
220
330
17
100
AcDbEntity
  8
0
100
AcDbCircle
 10
7.322442547499961
 20
71.77322156724125
 30
1.0
 40
0.4
100
AcDbArc
 50
-182.5302592718897
 51
-159.74145939893958
  0
LINE
  5
221
330
17
100
AcDbEntity
  8
0
100
AcDbLine
 10
7.919225398577327
 20
94.3387630122384
 30
1.0
 11
6.922832529173473
 21
71.79088036825107
 31
1.0
  0
ARC
  5
222
330
17
100
AcDbEntity
  8
0
100
AcDbCircle
 10
8.318835416903815
 20
94.32110421122859
 30
1.0
 40
0.4
100
AcDbArc
 50
-277.4999999999999
 51
-182.5302592718897
  0
LINE
  5
223
330
17
100
AcDbEntity
  8
0
100
AcDbLine
 10
16.42893062801799
 20
93.65684150524588
 30
1.0
 11
8.371045893791836
 21
94.7176821557781
 31
1.0
  0
ARC
  5
224
330
17
100
AcDbEntity
  8
0
100
AcDbCircle
 10
16.376720151129966
 20
93.26026356069634
 30
1.0
 40
0.4
100
AcDbArc
 50
-12.469740728110914
 51
82.49999999999986
  0
LINE
  5
225
330
17
100
AcDbEntity
  8
0
100
AcDbLine
 10
11.893904372977328
 20
71.13642634432789
 30
1.0
 11
16.767284222290378
 21
93.17389396929636
 31
1.0
  0
ARC
  5
226
330
17
100
AcDbEntity
  8
0
100
AcDbCircle
 10
11.503340301816909
 20
71.22279593572787
 30
1.0
 40
0.4
100
AcDbArc
 50
-35.25854060105909
 51
-12.469740728110914
  0
LINE
  5
227
330
17
100
AcDbEntity
  8
0
100
AcDbLine
 10
10.776459201015427
 20
69.50168781576167
 30
1.0
 11
11.82996250817649
 21
70.99188917031638
 31
1.0
  0
ARC
  5
228
330
17
100
AcDbEntity
  8
0
100
AcDbCircle
 10
10.449836994655845
 20
69.73259458117316
 30
1.0
 40
0.4
100
AcDbArc
 50
262.4999999999996
 51
324.74145939894106
  0
LINE
  5
229
330
17
100
AcDbEntity
  8
0
100
AcDbLine
 10
16.927590506563803
 20
68.0371260407083
 30
1.0
 11
19.358839616809593
 21
67.38567480501905
 31
1.0
  0
ARC
  5
22A
330
17
100
AcDbEntity
  8
0
100
AcDbCircle
 10
17.031118124604813
 20
68.42349637122393
 30
1.0
 40
0.4
100
AcDbArc
 50
-167.24145939894055
 51
-105.00000000000006
  0
LINE
  5
22B
330
17
100
AcDbEntity
  8
0
100
AcDbLine
 10
16.237959586098576
 20
70.11508403614425
 30
1.0
 11
16.640994359741526
 21
68.33515924375821
 31
1.0
  0
ARC
  5
22C
330
17
100
AcDbEntity
  8
0
100
AcDbCircle
 10
16.62808335096186
 20
70.20342116360997
 30
1.0
 40
0.4
100
AcDbArc
 50
-190.03025927188963
 51
-167.24145939894044
  0
LINE
  5
22D
330
17
100
AcDbEntity
  8
0
100
AcDbLine
 10
20.16515484221777
 20
92.49801548023684
 30
1.0
 11
16.234196987793553
 21
70.27308846519432
 31
1.0
  0
ARC
  5
22E
330
17
100
AcDbEntity
  8
0
100
AcDbCircle
 10
20.559041205386077
 20
92.4283481786525
 30
1.0
 40
0.4
100
AcDbArc
 50
-284.9999999999991
 51
-190.03025927188963
  0
LINE
  5
22F
330
17
100
AcDbEntity
  8
0
100
AcDbLine
 10
28.513049746051863
 20
90.71118848575486
 30
1.0
 11
20.66256882342708
 21
92.81471850916812
 31
1.0
  0
ARC
  5
230
330
17
100
AcDbEntity
  8
0
100
AcDbCircle
 10
28.409522128010856
 20
90.32481815523924
 30
1.0
 40
0.4
100
AcDbArc
 50
-19.969740728110114
 51
74.99999999999989
  0
LINE
  5
231
330
17
100
AcDbEntity
  8
0
100
AcDbLine
 10
21.077317231127147
 20
68.9753783071463
 30
1.0
 11
28.785471375511044
 21
90.18820862664025
 31
1.0
  0
ARC
  5
232
330
17
100
AcDbEntity
  8
0
100
AcDbCircle
 10
20.70136798362696
 20
69.1119878357453
 30
1.0
 40
0.4
100
AcDbArc
 50
-42.75854060106093
 51
-19.969740728110114
  0
LINE
  5
233
330
17
100
AcDbEntity
  8
0
100
AcDbLine
 10
19.756055762109376
 20
67.50048105662039
 30
1.0
 11
20.995056510885725
 21
68.84042375683099
 31
1.0
  0
ARC
  5
234
330
17
100
AcDbEntity
  8
0
100
AcDbCircle
 10
19.462367234850603
 20
67.7720451355347
 30
1.0
 40
0.4
100
AcDbArc
 50
255.00000000000094
 51
317.24145939893975
  0
LINE
  5
235
330
17
100
AcDbEntity
  8
0
100
AcDbLine
 10
25.663399614862158
 20
65.24556506342044
 30
1.0
 11
27.988817602723447
 21
64.28234539466195
 31
1.0
  0
ARC
  5
236
330
17
100
AcDbEntity
  8
0
100
AcDbCircle
 10
25.816472987808194
 20
65.61511687642496
 30
1.0
 40
0.4
100
AcDbArc
 50
-174.7414593989401
 51
-112.49999999999972
  0
LINE
  5
237
330
17
100
AcDbEntity
  8
0
100
AcDbLine
 10
25.250896527259883
 20
67.39576073823159
 30
1.0
 11
25.418156476954927
 21
65.5784568548527
 31
1.0
  0
ARC
  5
238
330
17
100
AcDbEntity
  8
0
100
AcDbCircle
 10
25.649213038113146
 20
67.43242075980385
 30
1.0
 40
0.4
100
AcDbArc
 50
-197.53025927189015
 51
-174.74145939894004
  0
LINE
  5
239
330
17
100
AcDbEntity
  8
0
100
AcDbLine
 10
32.06605289567072
 20
89.07460125807356
 30
1.0
 11
25.26778983498276
 21
67.5529045351172
 31
1.0
  0
ARC
  5
23A
330
17
100
AcDbEntity
  8
0
100
AcDbCircle
 10
32.44747609880111
 20
88.95411748276021
 30
1.0
 40
0.4
100
AcDbArc
 50
-292.5000000000002
 51
-197.53025927189003
  0
LINE
  5
23B
330
17
100
AcDbEntity
  8
0
100
AcDbLine
 10
40.10930267761994
 20
86.21344188137977
 30
1.0
 11
32.60054947174715
 21
89.32366929576473
 31
1.0
  0
ARC
  5
23C
330
17
100
AcDbEntity
  8
0
100
AcDbCircle
 10
39.9562293046739
 20
85.84389006837525
 30
1.0
 40
0.4
100
AcDbArc
 50
-27.4697407281112
 51
67.49999999999982
  0
LINE
  5
23D
330
17
100
AcDbEntity
  8
0
100
AcDbLine
 10
29.90009134771602
 20
65.63414242354165
 30
1.0
 11
40.3111311326563
 21
85.65937802948687
 31
1.0
  0
ARC
  5
23E
330
17
100
AcDbEntity
  8
0
100
AcDbCircle
 10
29.54518951973361
 20
65.81865446243002
 30
1.0
 40
0.4
100
AcDbArc
 50
-50.258540601059565
 51
-27.469740728110732
  0
LINE
  5
23F
330
17
100
AcDbEntity
  8
0
100
AcDbLine
 10
28.397620731700197
 20
64.34432235193135
 30
1.0
 11
29.800919275764333
 21
65.51107960669492
 31
1.0
  0
ARC
  5
240
330
17
100
AcDbEntity
  8
0
100
AcDbCircle
 10
28.141890975669476
 20
64.65189720766645
 30
1.0
 40
0.4
100
AcDbArc
 50
247.49999999999997
 51
309.74145939894044
  0
LINE
  5
241
330
17
100
AcDbEntity
  8
0
100
AcDbLine
 10
33.96010084051161
 20
61.33763437840931
 30
1.0
 11
36.13989915948839
 21
60.07912723216897
 31
1.0
  0
ARC
  5
242
330
17
100
AcDbEntity
  8
0
100
AcDbCircle
 10
34.16010084051161
 20
61.684044539923086
 30
1.0
 40
0.4
100
AcDbArc
 50
-182.24145939894004
 51
-120.00000000000045
  0
LINE
  5
243
330
17
100
AcDbEntity
  8
0
100
AcDbLine
 10
33.831783627968626
 20
63.523277288452725
 30
1.0
 11
33.76040688960326
 21
61.69968888737747
 31
1.0
  0
ARC
  5
244
330
17
100
AcDbEntity
  8
0
100
AcDbCircle
 10
34.23147757887697
 20
63.50763294099834
 30
1.0
 40
0.4
100
AcDbArc
 50
-205.03025927188963
 51
-182.24145939894004
  0
LINE
  5
245
330
17
100
AcDbEntity
  8
0
100
AcDbLine
 10
43.41829189368929
 20
84.1270959122395
 30
1.0
 11
33.86904379254056
 21
63.676871679240655
 31
1.0
  0
ARC
  5
246
330
17
100
AcDbEntity
  8
0
100
AcDbCircle
 10
43.78072568002571
 20
83.95785717399718
 30
1.0
 40
0.4
100
AcDbArc
 50
-300.00000000000045
 51
-205.03025927188963
  0
LINE
  5
247
330
17
100
AcDbEntity
  8
0
100
AcDbLine
 10
51.01927431997432
 20
80.24055938353236
 30
1.0
 11
43.980725680025714
 21
84.30426733551096
 31
1.0
  0
ARC
  5
248
330
17
100
AcDbEntity
  8
0
100
AcDbCircle
 10
50.81927431997432
 20
79.89414922201858
 30
1.0
 40
0.4
100
AcDbArc
 50
-34.96974072811052
 51
59.999999999999524
  0
LINE
  5
249
330
17
100
AcDbEntity
  8
0
100
AcDbLine
 10
38.211266611474045
 20
61.16988816584813
 30
1.0
 11
51.14705625976479
 21
79.66489172498262
 31
1.0
  0
ARC
  5
24A
330
17
100
AcDbEntity
  8
0
100
AcDbCircle
 10
37.88348467168357
 20
61.39914566288408
 30
1.0
 40
0.4
100
AcDbArc
 50
-57.75854060106037
 51
-34.96974072811052
  0
LINE
  5
24B
330
17
100
AcDbEntity
  8
0
100
AcDbLine
 10
36.55329453726369
 20
60.08721445218433
 30
1.0
 11
38.09688004945887
 21
61.06082272138567
 31
1.0
  0
ARC
  5
24C
330
17
100
AcDbEntity
  8
0
100
AcDbCircle
 10
36.33989915948839
 20
60.425537393682745
 30
1.0
 40
0.4
100
AcDbArc
 50
239.99999999999952
 51
302.24145939893907
  0
LINE
  5
24D
330
17
100
AcDbEntity
  8
0
100
AcDbLine
 10
54.847938545652624
 20
43.67261702176148
 30
1.0
 11
56.38019976317853
 21
41.67573532526116
 31
1.0
  0
ARC
  5
24E
330
17
100
AcDbEntity
  8
0
100
AcDbCircle
 10
55.165279881769116
 20
43.91612159336497
 30
1.0
 40
0.4
100
AcDbArc
 50
-204.74145939894032
 51
-142.49999999999983
  0
LINE
  5
24F
330
17
100
AcDbEntity
  8
0
100
AcDbLine
 10
55.56579823005512
 20
45.740992643056515
 30
1.0
 11
54.80199765383728
 21
44.08353133880674
 31
1.0
  0
ARC
  5
250
330
17
100
AcDbEntity
  8
0
100
AcDbCircle
 10
55.92908045798696
 20
45.57358289761474
 30
1.0
 40
0.4
100
AcDbArc
 50
-227.5302592718897
 51
-204.74145939894032
  0
LINE
  5
251
330
17
100
AcDbEntity
  8
0
100
AcDbLine
 10
72.30731703578317
 20
61.10784107362566
 30
1.0
 11
55.65900016213989
 21
45.868636509345144
 31
1.0
  0
ARC
  5
252
330
17
100
AcDbEntity
  8
0
100
AcDbCircle
 10
72.57739733163025
 20
60.812787461895255
 30
1.0
 40
0.4
100
AcDbArc
 50
-322.5000000000005
 51
-227.53025927188895
  0
LINE
  5
253
330
17
100
AcDbEntity
  8
0
100
AcDbLine
 10
77.84239598758793
 20
54.608379478158184
 30
1.0
 11
72.89473866774675
 21
61.05629203349874
 31
1.0
  0
ARC
  5
254
330
17
100
AcDbEntity
  8
0
100
AcDbCircle
 10
77.52505465147145
 20
54.364874906554704
 30
1.0
 40
0.4
100
AcDbArc
 50
-57.469740728110885
 51
37.49999999999996
  0
LINE
  5
255
330
17
100
AcDbEntity
  8
0
100
AcDbLine
 10
58.711309894368206
 20
41.890789020535024
 30
1.0
 11
77.74015263090956
 21
54.02763187958211
 31
1.0
  0
ARC
  5
256
330
17
100
AcDbEntity
  8
0
100
AcDbCircle
 10
58.496211914930086
 20
42.22803204750762
 30
1.0
 40
0.4
100
AcDbArc
 50
-80.25854060105952
 51
-57.46974072811003
  0
LINE
  5
257
330
17
100
AcDbEntity
  8
0
100
AcDbLine
 10
56.76522213665368
 20
41.52500738021735
 30
1.0
 11
58.56389295228874
 21
41.833799530860325
 31
1.0
  0
ARC
  5
258
330
17
100
AcDbEntity
  8
0
100
AcDbCircle
 10
56.69754109929503
 20
41.919239896864646
 30
1.0
 40
0.4
100
AcDbArc
 50
217.50000000000017
 51
279.7414593989405
  0
LINE
  5
259
330
17
100
AcDbEntity
  8
0
100
AcDbLine
 10
41.67573532526115
 20
56.38019976317854
 30
1.0
 11
43.67261702176148
 21
54.84793854565262
 31
1.0
  0
ARC
  5
25A
330
17
100
AcDbEntity
  8
0
100
AcDbCircle
 10
41.91923989686464
 20
56.69754109929503
 30
1.0
 40
0.4
100
AcDbArc
 50
-189.7414593989405
 51
-127.50000000000017
  0
LINE
  5
25B
330
17
100
AcDbEntity
  8
0
100
AcDbLine
 10
41.83379953086033
 20
58.563892952288754
 30
1.0
 11
41.52500738021735
 21
56.76522213665368
 31
1.0
  0
ARC
  5
25C
330
17
100
AcDbEntity
  8
0
100
AcDbCircle
 10
42.22803204750762
 20
58.4962119149301
 30
1.0
 40
0.4
100
AcDbArc
 50
-212.53025927188997
 51
-189.7414593989406
  0
LINE
  5
25D
330
17
100
AcDbEntity
  8
0
100
AcDbLine
 10
54.027631879582096
 20
77.74015263090956
 30
1.0
 11
41.890789020535024
 21
58.71130989436822
 31
1.0
  0
ARC
  5
25E
330
17
100
AcDbEntity
  8
0
100
AcDbCircle
 10
54.36487490655469
 20
77.52505465147145
 30
1.0
 40
0.4
100
AcDbArc
 50
-307.4999999999995
 51
-212.53025927188912
  0
LINE
  5
25F
330
17
100
AcDbEntity
  8
0
100
AcDbLine
 10
61.056292033498735
 20
72.89473866774675
 30
1.0
 11
54.60837947815818
 21
77.84239598758795
 31
1.0
  0
ARC
  5
260
330
17
100
AcDbEntity
  8
0
100
AcDbCircle
 10
60.812787461895255
 20
72.57739733163025
 30
1.0
 40
0.4
100
AcDbArc
 50
-42.46974072811103
 51
52.500000000001286
  0
LINE
  5
261
330
17
100
AcDbEntity
  8
0
100
AcDbLine
 10
45.86863650934512
 20
55.659000162139876
 30
1.0
 11
61.10784107362566
 21
72.30731703578317
 31
1.0
  0
ARC
  5
262
330
17
100
AcDbEntity
  8
0
100
AcDbCircle
 10
45.57358289761472
 20
55.92908045798695
 30
1.0
 40
0.4
100
AcDbArc
 50
-65.25854060105968
 51
-42.46974072811029
  0
LINE
  5
263
330
17
100
AcDbEntity
  8
0
100
AcDbLine
 10
44.08353133880674
 20
54.801997653837276
 30
1.0
 11
45.740992643056494
 21
55.56579823005511
 31
1.0
  0
ARC
  5
264
330
17
100
AcDbEntity
  8
0
100
AcDbCircle
 10
43.91612159336497
 20
55.165279881769116
 30
1.0
 40
0.4
100
AcDbArc
 50
232.49999999999983
 51
294.7414593989403
  0
LINE
  5
265
330
17
100
AcDbEntity
  8
0
100
AcDbLine
 10
48.678286423898705
 20
50.45808429845525
 30
1.0
 11
50.458084298455255
 21
48.6782864238987
 31
1.0
  0
ARC
  5
266
330
17
100
AcDbEntity
  8
0
100
AcDbCircle
 10
48.96112913637332
 20
50.740927010929866
 30
1.0
 40
0.4
100
AcDbArc
 50
-197.24145939893992
 51
-135.0
  0
LINE
  5
267
330
17
100
AcDbEntity
  8
0
100
AcDbLine
 10
49.12002752525856
 20
52.6024641707324
 30
1.0
 11
48.579103481648836
 21
50.85948669687885
 31
1.0
  0
ARC
  5
268
330
17
100
AcDbEntity
  8
0
100
AcDbCircle
 10
49.50205317998305
 20
52.483904484783416
 30
1.0
 40
0.4
100
AcDbArc
 50
-220.0302592718901
 51
-197.24145939893992
  0
LINE
  5
269
330
17
100
AcDbEntity
  8
0
100
AcDbLine
 10
63.712544104725794
 20
70.02305378442247
 30
1.0
 11
49.1957712340672
 21
52.74118131935273
 31
1.0
  0
ARC
  5
26A
330
17
100
AcDbEntity
  8
0
100
AcDbCircle
 10
64.01882605064164
 20
69.76577694985316
 30
1.0
 40
0.4
100
AcDbArc
 50
-314.99999999999994
 51
-220.0302592718901
  0
LINE
  5
26B
330
17
100
AcDbEntity
  8
0
100
AcDbLine
 10
70.04861966232778
 20
64.30166876311624
 30
1.0
 11
64.30166876311625
 21
70.04861966232778
 31
1.0
  0
ARC
  5
26C
330
17
100
AcDbEntity
  8
0
100
AcDbCircle
 10
69.76577694985316
 20
64.01882605064162
 30
1.0
 40
0.4
100
AcDbArc
 50
-49.969740728109926
 51
45.0
  0
LINE
  5
26D
330
17
100
AcDbEntity
  8
0
100
AcDbLine
 10
52.741181319352734
 20
49.1957712340672
 30
1.0
 11
70.02305378442247
 21
63.71254410472578
 31
1.0
  0
ARC
  5
26E
330
17
100
AcDbEntity
  8
0
100
AcDbCircle
 10
52.48390448478342
 20
49.50205317998304
 30
1.0
 40
0.4
100
AcDbArc
 50
-72.75854060106006
 51
-49.969740728109926
  0
LINE
  5
26F
330
17
100
AcDbEntity
  8
0
100
AcDbLine
 10
50.859486696878854
 20
48.57910348164882
 30
1.0
 11
52.602464170732404
 21
49.12002752525854
 31
1.0
  0
ARC
  5
270
330
17
100
AcDbEntity
  8
0
100
AcDbCircle
 10
50.74092701092987
 20
48.961129136373316
 30
1.0
 40
0.4
100
AcDbArc
 50
225.0
 51
287.24145939894
  0
ENDSEC
  0
SECTION
  2
OBJECTS
  0
DICTIONARY
  5
A
330
0
100
AcDbDictionary
281
1
  3
ACAD_COLOR
350
B
  3
ACAD_GROUP
350
C
  3
ACAD_LAYOUT
350
D
  3
ACAD_MATERIAL
350
E
  3
ACAD_MLEADERSTYLE
350
F
  3
ACAD_MLINESTYLE
350
10
  3
ACAD_PLOTSETTINGS
350
11
  3
ACAD_PLOTSTYLENAME
350
12
  3
ACAD_SCALELIST
350
14
  3
ACAD_TABLESTYLE
350
15
  3
ACAD_VISUALSTYLE
350
16
  3
EZDXF_META
350
2D
  0
DICTIONARY
  5
B
330
A
100
AcDbDictionary
281
1
  0
DICTIONARY
  5
C
330
A
100
AcDbDictionary
281
1
  0
DICTIONARY
  5
D
330
A
100
AcDbDictionary
281
1
  3
Model
350
1A
  3
Layout1
350
1E
  0
DICTIONARY
  5
E
330
A
100
AcDbDictionary
281
1
  3
ByBlock
350
1F
  3
ByLayer
350
20
  3
Global
350
21
  0
DICTIONARY
  5
F
330
A
100
AcDbDictionary
281
1
  3
Standard
350
2C
  0
DICTIONARY
  5
10
330
A
100
AcDbDictionary
281
1
  3
Standard
350
22
  0
DICTIONARY
  5
11
330
A
100
AcDbDictionary
281
1
  0
ACDBDICTIONARYWDFLT
  5
12
330
A
100
AcDbDictionary
281
1
  3
Normal
350
13
100
AcDbDictionaryWithDefault
340
13
  0
ACDBPLACEHOLDER
  5
13
330
12
  0
DICTIONARY
  5
14
330
A
100
AcDbDictionary
281
1
  0
DICTIONARY
  5
15
330
A
100
AcDbDictionary
281
1
  0
DICTIONARY
  5
16
330
A
100
AcDbDictionary
281
1
  0
LAYOUT
  5
1A
330
D
100
AcDbPlotSettings
  1

  4
A3
  6

 40
7.5
 41
20.0
 42
7.5
 43
20.0
 44
420.0
 45
297.0
 46
0.0
 47
0.0
 48
0.0
 49
0.0
140
0.0
141
0.0
142
1.0
143
1.0
 70
1024
 72
1
 73
0
 74
5
  7

 75
16
 76
0
 77
2
 78
300
147
1.0
148
0.0
149
0.0
100
AcDbLayout
  1
Model
 70
1
 71
0
 10
0.0
 20
0.0
 11
420.0
 21
297.0
 12
0.0
 22
0.0
 32
0.0
 14
1e+20
 24
1e+20
 34
1e+20
 15
-1e+20
 25
-1e+20
 35
-1e+20
146
0.0
 13
0.0
 23
0.0
 33
0.0
 16
1.0
 26
0.0
 36
0.0
 17
0.0
 27
1.0
 37
0.0
 76
1
330
17
  0
LAYOUT
  5
1E
330
D
100
AcDbPlotSettings
  1

  4
A3
  6

 40
7.5
 41
20.0
 42
7.5
 43
20.0
 44
420.0
 45
297.0
 46
0.0
 47
0.0
 48
0.0
 49
0.0
140
0.0
141
0.0
142
1.0
143
1.0
 70
0
 72
1
 73
0
 74
5
  7

 75
16
 76
0
 77
2
 78
300
147
1.0
148
0.0
149
0.0
100
AcDbLayout
  1
Layout1
 70
1
 71
1
 10
0.0
 20
0.0
 11
420.0
 21
297.0
 12
0.0
 22
0.0
 32
0.0
 14
1e+20
 24
1e+20
 34
1e+20
 15
-1e+20
 25
-1e+20
 35
-1e+20
146
0.0
 13
0.0
 23
0.0
 33
0.0
 16
1.0
 26
0.0
 36
0.0
 17
0.0
 27
1.0
 37
0.0
 76
1
330
1B
  0
MATERIAL
  5
1F
102
{ACAD_REACTORS
330
E
102
}
330
E
100
AcDbMaterial
  1
ByBlock
  2

 70
0
 40
1.0
 71
1
 41
1.0
 91
-1023410177
 42
1.0
 72
1
  3

 73
1
 74
1
 75
1
 44
0.5
 73
0
 45
1.0
 46
1.0
 77
1
  4

 78
1
 79
1
170
1
 48
1.0
171
1
  6

172
1
173
1
174
1
140
1.0
141
1.0
175
1
  7

176
1
177
1
178
1
143
1.0
179
1
  8

270
1
271
1
272
1
145
1.0
146
1.0
273
1
  9

274
1
275
1
276
1
 42
1.0
 72
1
  3

 73
1
 74
1
 75
1
 94
63
  0
MATERIAL
  5
20
102
{ACAD_REACTORS
330
E
102
}
330
E
100
AcDbMaterial
  1
ByLayer
  2

 70
0
 40
1.0
 71
1
 41
1.0
 91
-1023410177
 42
1.0
 72
1
  3

 73
1
 74
1
 75
1
 44
0.5
 73
0
 45
1.0
 46
1.0
 77
1
  4

 78
1
 79
1
170
1
 48
1.0
171
1
  6

172
1
173
1
174
1
140
1.0
141
1.0
175
1
  7

176
1
177
1
178
1
143
1.0
179
1
  8

270
1
271
1
272
1
145
1.0
146
1.0
273
1
  9

274
1
275
1
276
1
 42
1.0
 72
1
  3

 73
1
 74
1
 75
1
 94
63
  0
MATERIAL
  5
21
102
{ACAD_REACTORS
330
E
102
}
330
E
100
AcDbMaterial
  1
Global
  2

 70
0
 40
1.0
 71
1
 41
1.0
 91
-1023410177
 42
1.0
 72
1
  3

 73
1
 74
1
 75
1
 44
0.5
 73
0
 45
1.0
 46
1.0
 77
1
  4

 78
1
 79
1
170
1
 48
1.0
171
1
  6

172
1
173
1
174
1
140
1.0
141
1.0
175
1
  7

176
1
177
1
178
1
143
1.0
179
1
  8

270
1
271
1
272
1
145
1.0
146
1.0
273
1
  9

274
1
275
1
276
1
 42
1.0
 72
1
  3

 73
1
 74
1
 75
1
 94
63
  0
MLINESTYLE
  5
22
102
{ACAD_REACTORS
330
10
102
}
330
10
100
AcDbMlineStyle
  2
Standard
 70
0
  3

 62
256
 51
90.0
 52
90.0
 71
2
 49
0.5
 62
256
  6
BYLAYER
 49
-0.5
 62
256
  6
BYLAYER
  0
MLEADERSTYLE
  5
2C
102
{ACAD_REACTORS
330
F
102
}
330
F
100
AcDbMLeaderStyle
179
2
170
2
171
1
172
0
 90
2
 40
0.0
 41
0.0
173
1
 91
-1056964608
 92
-2
290
1
 42
2.0
291
1
 43
8.0
  3
Standard
 44
4.0
300

342
29
174
1
175
1
176
0
178
1
 93
-1056964608
 45
4.0
292
0
297
0
 46
4.0
 94
-1056964608
 47
1.0
 49
1.0
140
1.0
294
1
141
0.0
177
0
142
1.0
295
0
296
0
143
3.75
271
0
272
9
273
9
  0
DICTIONARY
  5
2D
330
A
100
AcDbDictionary
280
1
281
1
  3
CREATED_BY_EZDXF
350
2E
  3
WRITTEN_BY_EZDXF
350
274
  0
DICTIONARYVAR
  5
2E
330
2D
100
DictionaryVariables
280
0
  1
1.4.3 @ 2026-01-12T08:13:01.777089+00:00
  0
DICTIONARYVAR
  5
274
330
2D
100
DictionaryVariables
280
0
  1
1.4.3 @ 2026-01-12T08:13:01.797463+00:00
  0
ENDSEC
  0
EOF
