  0
SECTION
  2
HEADER
  9
$ACADVER
  1
AC1027
  9
$ACADMAINTVER
 70
105
  9
$DWGCODEPAGE
  3
ANSI_1252
  9
$LASTSAVEDBY
  1
ezdxf
  9
$REQUIREDVERSIONS
160
0
  9
$INSBASE
 10
0.0
 20
0.0
 30
0.0
  9
$EXTMIN
 10
1e+20
 20
1e+20
 30
1e+20
  9
$EXTMAX
 10
-1e+20
 20
-1e+20
 30
-1e+20
  9
$LIMMIN
 10
0.0
 20
0.0
  9
$LIMMAX
 10
420.0
 20
297.0
  9
$ORTHOMODE
 70
0
  9
$REGENMODE
 70
1
  9
$FILLMODE
 70
1
  9
$QTEXTMODE
 70
0
  9
$MIRRTEXT
 70
1
  9
$LTSCALE
 40
1.0
  9
$ATTMODE
 70
1
  9
$TEXTSIZE
 40
2.5
  9
$TRACEWID
 40
1.0
  9
$TEXTSTYLE
  7
Standard
  9
$CLAYER
  8
0
  9
$CELTYPE
  6
ByLayer
  9
$CECOLOR
 62
256
  9
$CELTSCALE
 40
1.0
  9
$DISPSILH
 70
0
  9
$DIMSCALE
 40
1.0
  9
$DIMASZ
 40
2.5
  9
$DIMEXO
 40
0.625
  9
$DIMDLI
 40
3.75
  9
$DIMRND
 40
0.0
  9
$DIMDLE
 40
0.0
  9
$DIMEXE
 40
1.25
  9
$DIMTP
 40
0.0
  9
$DIMTM
 40
0.0
  9
$DIMTXT
 40
2.5
  9
$DIMCEN
 40
2.5
  9
$DIMTSZ
 40
0.0
  9
$DIMTOL
 70
0
  9
$DIMLIM
 70
0
  9
$DIMTIH
 70
0
  9
$DIMTOH
 70
0
  9
$DIMSE1
 70
0
  9
$DIMSE2
 70
0
  9
$DIMTAD
 70
1
  9
$DIMZIN
 70
8
  9
$DIMBLK
  1

  9
$DIMASO
 70
1
  9
$DIMSHO
 70
1
  9
$DIMPOST
  1

  9
$DIMAPOST
  1

  9
$DIMALT
 70
0
  9
$DIMALTD
 70
3
  9
$DIMALTF
 40
0.03937007874
  9
$DIMLFAC
 40
1.0
  9
$DIMTOFL
 70
1
  9
$DIMTVP
 40
0.0
  9
$DIMTIX
 70
0
  9
$DIMSOXD
 70
0
  9
$DIMSAH
 70
0
  9
$DIMBLK1
  1

  9
$DIMBLK2
  1

  9
$DIMSTYLE
  2
ISO-25
  9
$DIMCLRD
 70
0
  9
$DIMCLRE
 70
0
  9
$DIMCLRT
 70
0
  9
$DIMTFAC
 40
1.0
  9
$DIMGAP
 40
0.625
  9
$DIMJUST
 70
0
  9
$DIMSD1
 70
0
  9
$DIMSD2
 70
0
  9
$DIMTOLJ
 70
0
  9
$DIMTZIN
 70
8
  9
$DIMALTZ
 70
0
  9
$DIMALTTZ
 70
0
  9
$DIMUPT
 70
0
  9
$DIMDEC
 70
2
  9
$DIMTDEC
 70
2
  9
$DIMALTU
 70
2
  9
$DIMALTTD
 70
3
  9
$DIMTXSTY
  7
Standard
  9
$DIMAUNIT
 70
0
  9
$DIMADEC
 70
0
  9
$DIMALTRND
 40
0.0
  9
$DIMAZIN
 70
0
  9
$DIMDSEP
 70
44
  9
$DIMATFIT
 70
3
  9
$DIMFRAC
 70
0
  9
$DIMLDRBLK
  1

  9
$DIMLUNIT
 70
2
  9
$DIMLWD
 70
-2
  9
$DIMLWE
 70
-2
  9
$DIMTMOVE
 70
0
  9
$DIMFXL
 40
1.0
  9
$DIMFXLON
 70
0
  9
$DIMJOGANG
 40
0.785398163397
  9
$DIMTFILL
 70
0
  9
$DIMTFILLCLR
 70
0
  9
$DIMARCSYM
 70
0
  9
$DIMLTYPE
  6

  9
$DIMLTEX1
  6

  9
$DIMLTEX2
  6

  9
$DIMTXTDIRECTION
 70
0
  9
$LUNITS
 70
2
  9
$LUPREC
 70
4
  9
$SKETCHINC
 40
1.0
  9
$FILLETRAD
 40
10.0
  9
$AUNITS
 70
0
  9
$AUPREC
 70
2
  9
$MENU
  1
.
  9
$ELEVATION
 40
0.0
  9
$PELEVATION
 40
0.0
  9
$THICKNESS
 40
0.0
  9
$LIMCHECK
 70
0
  9
$CHAMFERA
 40
0.0
  9
$CHAMFERB
 40
0.0
  9
$CHAMFERC
 40
0.0
  9
$CHAMFERD
 40
0.0
  9
$SKPOLY
 70
0
  9
$TDCREATE
 40
2461053.055046296
  9
$TDUCREATE
 40
2458532.153996898
  9
$TDUPDATE
 40
2461053.055046296
  9
$TDUUPDATE
 40
2458532.1544311
  9
$TDINDWG
 40
0.0
  9
$TDUSRTIMER
 40
0.0
  9
$USRTIMER
 70
1
  9
$ANGBASE
 50
0.0
  9
$ANGDIR
 70
0
  9
$PDMODE
 70
0
  9
$PDSIZE
 40
0.0
  9
$PLINEWID
 40
0.0
  9
$SPLFRAME
 70
0
  9
$SPLINETYPE
 70
6
  9
$SPLINESEGS
 70
8
  9
$HANDSEED
  5
295
  9
$SURFTAB1
 70
6
  9
$SURFTAB2
 70
6
  9
$SURFTYPE
 70
6
  9
$SURFU
 70
6
  9
$SURFV
 70
6
  9
$UCSBASE
  2

  9
$UCSNAME
  2

  9
$UCSORG
 10
0.0
 20
0.0
 30
0.0
  9
$UCSXDIR
 10
1.0
 20
0.0
 30
0.0
  9
$UCSYDIR
 10
0.0
 20
1.0
 30
0.0
  9
$UCSORTHOREF
  2

  9
$UCSORTHOVIEW
 70
0
  9
$UCSORGTOP
 10
0.0
 20
0.0
 30
0.0
  9
$UCSORGBOTTOM
 10
0.0
 20
0.0
 30
0.0
  9
$UCSORGLEFT
 10
0.0
 20
0.0
 30
0.0
  9
$UCSORGRIGHT
 10
0.0
 20
0.0
 30
0.0
  9
$UCSORGFRONT
 10
0.0
 20
0.0
 30
0.0
  9
$UCSORGBACK
 10
0.0
 20
0.0
 30
0.0
  9
$PUCSBASE
  2

  9
$PUCSNAME
  2

  9
$PUCSORG
 10
0.0
 20
0.0
 30
0.0
  9
$PUCSXDIR
 10
1.0
 20
0.0
 30
0.0
  9
$PUCSYDIR
 10
0.0
 20
1.0
 30
0.0
  9
$PUCSORTHOREF
  2

  9
$PUCSORTHOVIEW
 70
0
  9
$PUCSORGTOP
 10
0.0
 20
0.0
 30
0.0
  9
$PUCSORGBOTTOM
 10
0.0
 20
0.0
 30
0.0
  9
$PUCSORGLEFT
 10
0.0
 20
0.0
 30
0.0
  9
$PUCSORGRIGHT
 10
0.0
 20
0.0
 30
0.0
  9
$PUCSORGFRONT
 10
0.0
 20
0.0
 30
0.0
  9
$PUCSORGBACK
 10
0.0
 20
0.0
 30
0.0
  9
$USERI1
 70
0
  9
$USERI2
 70
0
  9
$USERI3
 70
0
  9
$USERI4
 70
0
  9
$USERI5
 70
0
  9
$USERR1
 40
0.0
  9
$USERR2
 40
0.0
  9
$USERR3
 40
0.0
  9
$USERR4
 40
0.0
  9
$USERR5
 40
0.0
  9
$WORLDVIEW
 70
1
  9
$SHADEDGE
 70
3
  9
$SHADEDIF
 70
70
  9
$TILEMODE
 70
1
  9
$MAXACTVP
 70
64
  9
$PINSBASE
 10
0.0
 20
0.0
 30
0.0
  9
$PLIMCHECK
 70
0
  9
$PEXTMIN
 10
1e+20
 20
1e+20
 30
1e+20
  9
$PEXTMAX
 10
-1e+20
 20
-1e+20
 30
-1e+20
  9
$PLIMMIN
 10
0.0
 20
0.0
  9
$PLIMMAX
 10
420.0
 20
297.0
  9
$UNITMODE
 70
0
  9
$VISRETAIN
 70
1
  9
$PLINEGEN
 70
0
  9
$PSLTSCALE
 70
1
  9
$TREEDEPTH
 70
3020
  9
$CMLSTYLE
  2
Standard
  9
$CMLJUST
 70
0
  9
$CMLSCALE
 40
20.0
  9
$PROXYGRAPHICS
 70
1
  9
$MEASUREMENT
 70
1
  9
$CELWEIGHT
370
-1
  9
$ENDCAPS
280
0
  9
$JOINSTYLE
280
0
  9
$LWDISPLAY
290
0
  9
$INSUNITS
 70
4
  9
$HYPERLINKBASE
  1

  9
$STYLESHEET
  1

  9
$XEDIT
290
1
  9
$CEPSNTYPE
380
0
  9
$PSTYLEMODE
290
1
  9
$FINGERPRINTGUID
  2
{DAAFE8AD-A7D6-4750-A82B-94A184FFADF1}
  9
$VERSIONGUID
  2
{75CEC9C7-954D-4680-A388-FD41F0ED23EF}
  9
$EXTNAMES
290
1
  9
$PSVPSCALE
 40
0.0
  9
$OLESTARTUP
290
0
  9
$SORTENTS
280
127
  9
$INDEXCTL
280
0
  9
$HIDETEXT
280
1
  9
$XCLIPFRAME
280
1
  9
$HALOGAP
280
0
  9
$OBSCOLOR
 70
257
  9
$OBSLTYPE
280
0
  9
$INTERSECTIONDISPLAY
280
0
  9
$INTERSECTIONCOLOR
 70
257
  9
$DIMASSOC
280
2
  9
$PROJECTNAME
  1

  9
$CAMERADISPLAY
290
0
  9
$LENSLENGTH
 40
50.0
  9
$CAMERAHEIGHT
 40
0.0
  9
$STEPSPERSEC
 40
24.0
  9
$STEPSIZE
 40
100.0
  9
$3DDWFPREC
 40
2.0
  9
$PSOLWIDTH
 40
0.005
  9
$PSOLHEIGHT
 40
0.08
  9
$LOFTANG1
 40
1.570796326795
  9
$LOFTANG2
 40
1.570796326795
  9
$LOFTMAG1
 40
0.0
  9
$LOFTMAG2
 40
0.0
  9
$LOFTPARAM
 70
7
  9
$LOFTNORMALS
280
1
  9
$LATITUDE
 40
37.795
  9
$LONGITUDE
 40
-122.394
  9
$NORTHDIRECTION
 40
0.0
  9
$TIMEZONE
 70
-8000
  9
$LIGHTGLYPHDISPLAY
280
1
  9
$TILEMODELIGHTSYNCH
280
1
  9
$CMATERIAL
347
20
  9
$SOLIDHIST
280
0
  9
$SHOWHIST
280
1
  9
$DWFFRAME
280
2
  9
$DGNFRAME
280
2
  9
$REALWORLDSCALE
290
1
  9
$INTERFERECOLOR
 62
256
  9
$CSHADOW
280
0
  9
$SHADOWPLANELOCATION
 40
0.0
  0
ENDSEC
  0
SECTION
  2
CLASSES
  0
CLASS
  1
ACDBDICTIONARYWDFLT
  2
AcDbDictionaryWithDefault
  3
ObjectDBX Classes
 90
0
 91
0
280
0
281
0
  0
CLASS
  1
SUN
  2
AcDbSun
  3
SCENEOE
 90
1153
 91
0
280
0
281
0
  0
CLASS
  1
VISUALSTYLE
  2
AcDbVisualStyle
  3
ObjectDBX Classes
 90
4095
 91
0
280
0
281
0
  0
CLASS
  1
MATERIAL
  2
AcDbMaterial
  3
ObjectDBX Classes
 90
1153
 91
0
280
0
281
0
  0
CLASS
  1
SCALE
  2
AcDbScale
  3
ObjectDBX Classes
 90
1153
 91
0
280
0
281
0
  0
CLASS
  1
TABLESTYLE
  2
AcDbTableStyle
  3
ObjectDBX Classes
 90
4095
 91
0
280
0
281
0
  0
CLASS
  1
MLEADERSTYLE
  2
AcDbMLeaderStyle
  3
ACDB_MLEADERSTYLE_CLASS
 90
4095
 91
0
280
0
281
0
  0
CLASS
  1
DICTIONARYVAR
  2
AcDbDictionaryVar
  3
ObjectDBX Classes
 90
0
 91
0
280
0
281
0
  0
CLASS
  1
CELLSTYLEMAP
  2
AcDbCellStyleMap
  3
ObjectDBX Classes
 90
1152
 91
0
280
0
281
0
  0
CLASS
  1
MENTALRAYRENDERSETTINGS
  2
AcDbMentalRayRenderSettings
  3
SCENEOE
 90
1024
 91
0
280
0
281
0
  0
CLASS
  1
ACDBDETAILVIEWSTYLE
  2
AcDbDetailViewStyle
  3
ObjectDBX Classes
 90
1025
 91
0
280
0
281
0
  0
CLASS
  1
ACDBSECTIONVIEWSTYLE
  2
AcDbSectionViewStyle
  3
ObjectDBX Classes
 90
1025
 91
0
280
0
281
0
  0
CLASS
  1
RASTERVARIABLES
  2
AcDbRasterVariables
  3
ISM
 90
0
 91
0
280
0
281
0
  0
CLASS
  1
ACDBPLACEHOLDER
  2
AcDbPlaceHolder
  3
ObjectDBX Classes
 90
0
 91
0
280
0
281
0
  0
CLASS
  1
LAYOUT
  2
AcDbLayout
  3
ObjectDBX Classes
 90
0
 91
0
280
0
281
0
  0
ENDSEC
  0
SECTION
  2
TABLES
  0
TABLE
  2
VPORT
  5
8
330
0
100
AcDbSymbolTable
 70
1
  0
VPORT
  5
291
330
8
100
AcDbSymbolTableRecord
100
AcDbViewportTableRecord
  2
*Active
 70
0
 10
0.0
 20
0.0
 11
1.0
 21
1.0
 12
0.0
 22
0.0
 13
0.0
 23
0.0
 14
0.5
 24
0.5
 15
0.5
 25
0.5
 16
0.0
 26
0.0
 36
1.0
 17
0.0
 27
0.0
 37
0.0
 40
138.0
 41
1.34
 42
50.0
 43
0.0
 44
0.0
 50
0.0
 51
0.0
 71
0
 72
1000
 73
1
 74
3
 75
0
 76
0
 77
0
 78
0
281
0
 65
1
110
0.0
120
0.0
130
0.0
111
1.0
121
0.0
131
0.0
112
0.0
122
1.0
132
0.0
 79
0
146
0.0
  0
ENDTAB
  0
TABLE
  2
LTYPE
  5
2
330
0
100
AcDbSymbolTable
 70
3
  0
LTYPE
  5
24
330
2
100
AcDbSymbolTableRecord
100
AcDbLinetypeTableRecord
  2
ByBlock
 70
0
  3

 72
65
 73
0
 40
0.0
  0
LTYPE
  5
25
330
2
100
AcDbSymbolTableRecord
100
AcDbLinetypeTableRecord
  2
ByLayer
 70
0
  3

 72
65
 73
0
 40
0.0
  0
LTYPE
  5
26
330
2
100
AcDbSymbolTableRecord
100
AcDbLinetypeTableRecord
  2
Continuous
 70
0
  3

 72
65
 73
0
 40
0.0
  0
ENDTAB
  0
TABLE
  2
LAYER
  5
1
330
0
100
AcDbSymbolTable
 70
2
  0
LAYER
  5
27
330
1
100
AcDbSymbolTableRecord
100
AcDbLayerTableRecord
  2
0
 70
0
 62
7
  6
Continuous
370
-3
390
13
347
21
  0
LAYER
  5
28
330
1
100
AcDbSymbolTableRecord
100
AcDbLayerTableRecord
  2
Defpoints
 70
0
 62
7
  6
Continuous
290
0
370
-3
390
13
347
21
  0
ENDTAB
  0
TABLE
  2
STYLE
  5
5
330
0
100
AcDbSymbolTable
 70
1
  0
STYLE
  5
29
330
5
100
AcDbSymbolTableRecord
100
AcDbTextStyleTableRecord
  2
Standard
 70
0
 40
0.0
 41
1.0
 50
0.0
 71
0
 42
2.5
  3
txt
  4

  0
ENDTAB
  0
TABLE
  2
VIEW
  5
7
330
0
100
AcDbSymbolTable
 70
0
  0
ENDTAB
  0
TABLE
  2
UCS
  5
6
330
0
100
AcDbSymbolTable
 70
0
  0
ENDTAB
  0
TABLE
  2
APPID
  5
3
330
0
100
AcDbSymbolTable
 70
3
  0
APPID
  5
2A
330
3
100
AcDbSymbolTableRecord
100
AcDbRegAppTableRecord
  2
ACAD
 70
0
  0
APPID
  5
292
330
3
100
AcDbSymbolTableRecord
100
AcDbRegAppTableRecord
  2
HATCHBACKGROUNDCOLOR
 70
0
  0
APPID
  5
293
330
3
100
AcDbSymbolTableRecord
100
AcDbRegAppTableRecord
  2
EZDXF
 70
0
  0
ENDTAB
  0
TABLE
  2
DIMSTYLE
  5
4
330
0
100
AcDbSymbolTable
 70
1
100
AcDbDimStyleTable
  0
DIMSTYLE
105
2B
330
4
100
AcDbSymbolTableRecord
100
AcDbDimStyleTableRecord
  2
Standard
 70
0
 40
1.0
 41
2.5
 42
0.625
 43
3.75
 44
1.25
 45
0.0
 46
0.0
 47
0.0
 48
0.0
 49
2.5
140
2.5
141
2.5
142
0.0
143
0.03937007874
144
1.0
145
0.0
146
1.0
147
0.625
148
0.0
 69
0
 70
0
 71
0
 72
0
 73
0
 74
0
 75
0
 76
0
 77
1
 78
8
 79
3
170
0
171
3
172
1
173
0
174
0
175
0
176
0
177
0
178
0
179
2
271
2
272
2
273
2
274
3
275
0
276
0
277
2
278
44
279
0
280
0
281
0
282
0
283
0
284
8
285
0
286
0
288
0
289
3
290
0
371
-2
372
-2
  0
ENDTAB
  0
TABLE
  2
BLOCK_RECORD
  5
9
330
0
100
AcDbSymbolTable
 70
2
  0
BLOCK_RECORD
  5
17
330
9
100
AcDbSymbolTableRecord
100
AcDbBlockTableRecord
  2
*Model_Space
340
1A
 70
0
280
1
281
0
  0
BLOCK_RECORD
  5
1B
330
9
100
AcDbSymbolTableRecord
100
AcDbBlockTableRecord
  2
*Paper_Space
340
1E
 70
0
280
1
281
0
  0
ENDTAB
  0
ENDSEC
  0
SECTION
  2
BLOCKS
  0
BLOCK
  5
18
330
17
100
AcDbEntity
  8
0
100
AcDbBlockBegin
  2
*Model_Space
 70
0
 10
0.0
 20
0.0
 30
0.0
  3
*Model_Space
  1

  0
ENDBLK
  5
19
330
17
100
AcDbEntity
  8
0
100
AcDbBlockEnd
  0
BLOCK
  5
1C
330
1B
100
AcDbEntity
  8
0
100
AcDbBlockBegin
  2
*Paper_Space
 70
0
 10
0.0
 20
0.0
 30
0.0
  3
*Paper_Space
  1

  0
ENDBLK
  5
1D
330
1B
100
AcDbEntity
  8
0
100
AcDbBlockEnd
  0
ENDSEC
  0
SECTION
  2
ENTITIES
  0
CIRCLE
  5
2F
330
17
100
AcDbEntity
  8
0
100
AcDbCircle
 10
0.0
 20
0.0
 30
1.0
 40
69.0
  0
LINE
  5
30
330
17
100
AcDbEntity
  8
0
100
AcDbLine
 10
-17.324521059453087
 20
-32.62423899588413
 30
1.0
 11
-29.202747365527014
 21
-60.60758654083831
 31
1.0
  0
LINE
  5
31
330
17
100
AcDbEntity
  8
0
100
AcDbLine
 10
-14.083286559433438
 20
-34.000061414572194
 30
1.0
 11
-17.324521059453087
 21
-32.62423899588413
 31
1.0
  0
LINE
  5
32
330
17
100
AcDbEntity
  8
0
100
AcDbLine
 10
-10.818534303091852
 20
-35.3191069469887
 30
1.0
 11
-14.083286559433436
 21
-34.000061414572194
 31
1.0
  0
LINE
  5
33
330
17
100
AcDbEntity
  8
0
100
AcDbLine
 10
-22.206574742935587
 20
-63.50549612581903
 30
1.0
 11
-10.81853430309185
 21
-35.3191069469887
 31
1.0
  0
LINE
  5
34
330
17
100
AcDbEntity
  8
0
100
AcDbLine
 10
-23.29369124186715
 20
-63.06627254971258
 30
1.0
 11
-22.20657474293559
 21
-63.50549612581903
 31
1.0
  0
LINE
  5
35
330
17
100
AcDbEntity
  8
0
100
AcDbLine
 10
-23.311516303431393
 20
-63.108265763169655
 30
1.0
 11
-23.29369124186715
 21
-63.06627254971258
 31
1.0
  0
LINE
  5
36
330
17
100
AcDbEntity
  8
0
100
AcDbLine
 10
-25.717305891139034
 20
-62.08706867008848
 30
1.0
 11
-23.311516303431393
 21
-63.108265763169655
 31
1.0
  0
LINE
  5
37
330
17
100
AcDbEntity
  8
0
100
AcDbLine
 10
-28.140551412163028
 20
-61.10801392795719
 30
1.0
 11
-25.71730589113903
 21
-62.08706867008846
 31
1.0
  0
LINE
  5
38
330
17
100
AcDbEntity
  8
0
100
AcDbLine
 10
-28.123461948070855
 20
-61.06571602005072
 30
1.0
 11
-28.140551412163028
 21
-61.10801392795719
 31
1.0
  0
LINE
  5
39
330
17
100
AcDbEntity
  8
0
100
AcDbLine
 10
-29.20274736552701
 20
-60.607586540838305
 30
1.0
 11
-28.123461948070855
 21
-61.065716020050715
 31
1.0
  0
LINE
  5
3A
330
17
100
AcDbEntity
  8
0
100
AcDbLine
 10
-35.3191069469887
 20
-10.818534303091843
 30
1.0
 11
-63.505496125819036
 21
-22.20657474293557
 31
1.0
  0
LINE
  5
3B
330
17
100
AcDbEntity
  8
0
100
AcDbLine
 10
-34.00006141457214
 20
-14.08328655943358
 30
1.0
 11
-35.3191069469887
 21
-10.818534303091843
 31
1.0
  0
LINE
  5
3C
330
17
100
AcDbEntity
  8
0
100
AcDbLine
 10
-32.62423899588413
 20
-17.324521059453076
 30
1.0
 11
-34.00006141457213
 21
-14.083286559433578
 31
1.0
  0
LINE
  5
3D
330
17
100
AcDbEntity
  8
0
100
AcDbLine
 10
-60.60758654083832
 20
-29.202747365526996
 30
1.0
 11
-32.62423899588413
 21
-17.32452105945308
 31
1.0
  0
LINE
  5
3E
330
17
100
AcDbEntity
  8
0
100
AcDbLine
 10
-61.06571602005073
 20
-28.12346194807083
 30
1.0
 11
-60.60758654083832
 21
-29.202747365526996
 31
1.0
  0
LINE
  5
3F
330
17
100
AcDbEntity
  8
0
100
AcDbLine
 10
-61.1080139279572
 20
-28.140551412163006
 30
1.0
 11
-61.06571602005073
 21
-28.12346194807083
 31
1.0
  0
LINE
  5
40
330
17
100
AcDbEntity
  8
0
100
AcDbLine
 10
-62.08706867008802
 20
-25.717305891140118
 30
1.0
 11
-61.1080139279572
 21
-28.14055141216301
 31
1.0
  0
LINE
  5
41
330
17
100
AcDbEntity
  8
0
100
AcDbLine
 10
-63.10826576316967
 20
-23.311516303431375
 30
1.0
 11
-62.08706867008802
 21
-25.717305891140118
 31
1.0
  0
LINE
  5
42
330
17
100
AcDbEntity
  8
0
100
AcDbLine
 10
-63.06627254971259
 20
-23.29369124186713
 30
1.0
 11
-63.10826576316967
 21
-23.31151630343137
 31
1.0
  0
LINE
  5
43
330
17
100
AcDbEntity
  8
0
100
AcDbLine
 10
-63.505496125819036
 20
-22.20657474293557
 30
1.0
 11
-63.066272549712586
 21
-23.293691241867126
 31
1.0
  0
LINE
  5
44
330
17
100
AcDbEntity
  8
0
100
AcDbLine
 10
-34.64101615137754
 20
-20.000000000000004
 30
1.0
 11
-34.30914440001089
 21
-20.564109767728862
 31
1.0
  0
LINE
  5
45
330
17
100
AcDbEntity
  8
0
100
AcDbLine
 10
-24.24871130596428
 20
-14.000000000000004
 30
1.0
 11
-34.64101615137754
 21
-20.000000000000004
 31
1.0
  0
LINE
  5
46
330
17
100
AcDbEntity
  8
0
100
AcDbLine
 10
-24.016401080007622
 20
-14.394876837410203
 30
1.0
 11
-24.24871130596428
 21
-14.000000000000004
 31
1.0
  0
LINE
  5
47
330
17
100
AcDbEntity
  8
0
100
AcDbLine
 10
-23.777661082744213
 20
-14.7858998182103
 30
1.0
 11
-24.016401080007622
 21
-14.394876837410203
 31
1.0
  0
LINE
  5
48
330
17
100
AcDbEntity
  8
0
100
AcDbLine
 10
-23.532555230644263
 20
-15.17296425609305
 30
1.0
 11
-23.777661082744213
 21
-14.7858998182103
 31
1.0
  0
LINE
  5
49
330
17
100
AcDbEntity
  8
0
100
AcDbLine
 10
-23.281149144471268
 20
-15.555966524548865
 30
1.0
 11
-23.532555230644263
 21
-15.17296425609305
 31
1.0
  0
LINE
  5
4A
330
17
100
AcDbEntity
  8
0
100
AcDbLine
 10
-23.02351013171371
 20
-15.934804084609144
 30
1.0
 11
-23.281149144471268
 21
-15.555966524548865
 31
1.0
  0
LINE
  5
4B
330
17
100
AcDbEntity
  8
0
100
AcDbLine
 10
-22.759707168565228
 20
-16.30937551229846
 30
1.0
 11
-23.02351013171371
 21
-15.934804084609144
 31
1.0
  0
LINE
  5
4C
330
17
100
AcDbEntity
  8
0
100
AcDbLine
 10
-22.48981088145806
 20
-16.679580525788133
 30
1.0
 11
-22.759707168565228
 21
-16.30937551229846
 31
1.0
  0
LINE
  5
4D
330
17
100
AcDbEntity
  8
0
100
AcDbLine
 10
-22.213893528154586
 20
-17.04532001224418
 30
1.0
 11
-22.48981088145806
 21
-16.679580525788133
 31
1.0
  0
LINE
  5
4E
330
17
100
AcDbEntity
  8
0
100
AcDbLine
 10
-21.932028978402215
 20
-17.40649605436216
 30
1.0
 11
-22.213893528154586
 21
-17.04532001224418
 31
1.0
  0
LINE
  5
4F
330
17
100
AcDbEntity
  8
0
100
AcDbLine
 10
-21.64429269415664
 20
-17.76301195658207
 30
1.0
 11
-21.932028978402215
 21
-17.40649605436216
 31
1.0
  0
LINE
  5
50
330
17
100
AcDbEntity
  8
0
100
AcDbLine
 10
-21.35076170937887
 20
-18.114772270976005
 30
1.0
 11
-21.64429269415664
 21
-17.76301195658207
 31
1.0
  0
LINE
  5
51
330
17
100
AcDbEntity
  8
0
100
AcDbLine
 10
-21.05151460941137
 20
-18.461682822801926
 30
1.0
 11
-21.35076170937887
 21
-18.114772270976005
 31
1.0
  0
LINE
  5
52
330
17
100
AcDbEntity
  8
0
100
AcDbLine
 10
-20.74663150993886
 20
-18.803650735716506
 30
1.0
 11
-21.05151460941137
 21
-18.461682822801926
 31
1.0
  0
LINE
  5
53
330
17
100
AcDbEntity
  8
0
100
AcDbLine
 10
-20.436194035539398
 20
-19.140584456640397
 30
1.0
 11
-20.74663150993886
 21
-18.803650735716506
 31
1.0
  0
LINE
  5
54
330
17
100
AcDbEntity
  8
0
100
AcDbLine
 10
-20.120285297831554
 20
-19.472393780269122
 30
1.0
 11
-20.436194035539398
 21
-19.140584456640397
 31
1.0
  0
LINE
  5
55
330
17
100
AcDbEntity
  8
0
100
AcDbLine
 10
-19.798989873223334
 20
-19.798989873223327
 30
1.0
 11
-20.120285297831554
 21
-19.472393780269122
 31
1.0
  0
LINE
  5
56
330
17
100
AcDbEntity
  8
0
100
AcDbLine
 10
-19.472393780269137
 20
-20.120285297831536
 30
1.0
 11
-19.798989873223334
 21
-19.798989873223327
 31
1.0
  0
LINE
  5
57
330
17
100
AcDbEntity
  8
0
100
AcDbLine
 10
-19.140584456640394
 20
-20.436194035539398
 30
1.0
 11
-19.472393780269137
 21
-20.120285297831536
 31
1.0
  0
LINE
  5
58
330
17
100
AcDbEntity
  8
0
100
AcDbLine
 10
-18.803650735716523
 20
-20.746631509938847
 30
1.0
 11
-19.140584456640394
 21
-20.436194035539398
 31
1.0
  0
LINE
  5
59
330
17
100
AcDbEntity
  8
0
100
AcDbLine
 10
-18.461682822801933
 20
-21.051514609411363
 30
1.0
 11
-18.803650735716523
 21
-20.746631509938847
 31
1.0
  0
LINE
  5
5A
330
17
100
AcDbEntity
  8
0
100
AcDbLine
 10
-18.11477227097601
 20
-21.350761709378865
 30
1.0
 11
-18.461682822801933
 21
-21.051514609411363
 31
1.0
  0
LINE
  5
5B
330
17
100
AcDbEntity
  8
0
100
AcDbLine
 10
-17.763011956582066
 20
-21.644292694156643
 30
1.0
 11
-18.11477227097601
 21
-21.350761709378865
 31
1.0
  0
LINE
  5
5C
330
17
100
AcDbEntity
  8
0
100
AcDbLine
 10
-17.40649605436217
 20
-21.93202897840221
 30
1.0
 11
-17.763011956582066
 21
-21.644292694156643
 31
1.0
  0
LINE
  5
5D
330
17
100
AcDbEntity
  8
0
100
AcDbLine
 10
-17.045320012244183
 20
-22.21389352815458
 30
1.0
 11
-17.40649605436217
 21
-21.93202897840221
 31
1.0
  0
LINE
  5
5E
330
17
100
AcDbEntity
  8
0
100
AcDbLine
 10
-16.67958052578813
 20
-22.489810881458062
 30
1.0
 11
-17.045320012244183
 21
-22.21389352815458
 31
1.0
  0
LINE
  5
5F
330
17
100
AcDbEntity
  8
0
100
AcDbLine
 10
-16.309375512298462
 20
-22.759707168565225
 30
1.0
 11
-16.67958052578813
 21
-22.489810881458062
 31
1.0
  0
LINE
  5
60
330
17
100
AcDbEntity
  8
0
100
AcDbLine
 10
-15.93480408460916
 20
-23.023510131713696
 30
1.0
 11
-16.309375512298462
 21
-22.759707168565225
 31
1.0
  0
LINE
  5
61
330
17
100
AcDbEntity
  8
0
100
AcDbLine
 10
-15.555966524548882
 20
-23.281149144471254
 30
1.0
 11
-15.93480408460916
 21
-23.023510131713696
 31
1.0
  0
LINE
  5
62
330
17
100
AcDbEntity
  8
0
100
AcDbLine
 10
-15.172964256093055
 20
-23.53255523064426
 30
1.0
 11
-15.555966524548882
 21
-23.281149144471254
 31
1.0
  0
LINE
  5
63
330
17
100
AcDbEntity
  8
0
100
AcDbLine
 10
-14.785899818210297
 20
-23.777661082744213
 30
1.0
 11
-15.172964256093055
 21
-23.53255523064426
 31
1.0
  0
LINE
  5
64
330
17
100
AcDbEntity
  8
0
100
AcDbLine
 10
-14.394876837410209
 20
-24.016401080007615
 30
1.0
 11
-14.785899818210297
 21
-23.777661082744213
 31
1.0
  0
LINE
  5
65
330
17
100
AcDbEntity
  8
0
100
AcDbLine
 10
-14.000000000000012
 20
-24.248711305964274
 30
1.0
 11
-14.394876837410209
 21
-24.016401080007615
 31
1.0
  0
LINE
  5
66
330
17
100
AcDbEntity
  8
0
100
AcDbLine
 10
-20.000000000000018
 20
-34.641016151377535
 30
1.0
 11
-14.000000000000012
 21
-24.248711305964274
 31
1.0
  0
LINE
  5
67
330
17
100
AcDbEntity
  8
0
100
AcDbLine
 10
-20.564109767728873
 20
-34.30914440001088
 30
1.0
 11
-20.000000000000018
 21
-34.641016151377535
 31
1.0
  0
LINE
  5
68
330
17
100
AcDbEntity
  8
0
100
AcDbLine
 10
-21.122714026014712
 20
-33.96808726106316
 30
1.0
 11
-20.564109767728873
 21
-34.30914440001088
 31
1.0
  0
LINE
  5
69
330
17
100
AcDbEntity
  8
0
100
AcDbLine
 10
-21.675663222990078
 20
-33.61793604377751
 30
1.0
 11
-21.122714026014712
 21
-33.96808726106316
 31
1.0
  0
LINE
  5
6A
330
17
100
AcDbEntity
  8
0
100
AcDbLine
 10
-22.22280932078412
 20
-33.25878449210179
 30
1.0
 11
-21.675663222990078
 21
-33.61793604377751
 31
1.0
  0
LINE
  5
6B
330
17
100
AcDbEntity
  8
0
100
AcDbLine
 10
-22.764005835155942
 20
-32.89072875959099
 30
1.0
 11
-22.22280932078412
 21
-33.25878449210179
 31
1.0
  0
LINE
  5
6C
330
17
100
AcDbEntity
  8
0
100
AcDbLine
 10
-23.299107874712092
 20
-32.5138673836646
 30
1.0
 11
-22.764005835155942
 21
-32.89072875959099
 31
1.0
  0
LINE
  5
6D
330
17
100
AcDbEntity
  8
0
100
AcDbLine
 10
-23.827972179697326
 20
-32.1283012592258
 30
1.0
 11
-23.299107874712092
 21
-32.5138673836646
 31
1.0
  0
LINE
  5
6E
330
17
100
AcDbEntity
  8
0
100
AcDbLine
 10
-24.350457160348835
 20
-31.734133611649398
 30
1.0
 11
-23.827972179697326
 21
-32.1283012592258
 31
1.0
  0
LINE
  5
6F
330
17
100
AcDbEntity
  8
0
100
AcDbLine
 10
-24.866422934803097
 20
-31.331469969146013
 30
1.0
 11
-24.350457160348835
 21
-31.734133611649398
 31
1.0
  0
LINE
  5
70
330
17
100
AcDbEntity
  8
0
100
AcDbLine
 10
-25.375731366545807
 20
-30.92041813450949
 30
1.0
 11
-24.866422934803097
 21
-31.331469969146013
 31
1.0
  0
LINE
  5
71
330
17
100
AcDbEntity
  8
0
100
AcDbLine
 10
-25.8782461013943
 20
-30.501088156255523
 30
1.0
 11
-25.375731366545807
 21
-30.92041813450949
 31
1.0
  0
LINE
  5
72
330
17
100
AcDbEntity
  8
0
100
AcDbLine
 10
-26.373832604002764
 20
-30.073592299159092
 30
1.0
 11
-25.8782461013943
 21
-30.501088156255523
 31
1.0
  0
LINE
  5
73
330
17
100
AcDbEntity
  8
0
100
AcDbLine
 10
-26.862358193880745
 20
-29.638045014198354
 30
1.0
 11
-26.373832604002764
 21
-30.073592299159092
 31
1.0
  0
LINE
  5
74
330
17
100
AcDbEntity
  8
0
100
AcDbLine
 10
-27.34369208091485
 20
-29.194562907913422
 30
1.0
 11
-26.862358193880745
 21
-29.638045014198354
 31
1.0
  0
LINE
  5
75
330
17
100
AcDbEntity
  8
0
100
AcDbLine
 10
-27.81770540038448
 20
-28.743264711187912
 30
1.0
 11
-27.34369208091485
 21
-29.194562907913422
 31
1.0
  0
LINE
  5
76
330
17
100
AcDbEntity
  8
0
100
AcDbLine
 10
-28.28427124746191
 20
-28.2842712474619
 30
1.0
 11
-27.81770540038448
 21
-28.743264711187912
 31
1.0
  0
LINE
  5
77
330
17
100
AcDbEntity
  8
0
100
AcDbLine
 10
-28.743264711187933
 20
-27.817705400384458
 30
1.0
 11
-28.28427124746191
 21
-28.2842712474619
 31
1.0
  0
LINE
  5
78
330
17
100
AcDbEntity
  8
0
100
AcDbLine
 10
-29.194562907913422
 20
-27.343692080914856
 30
1.0
 11
-28.743264711187933
 21
-27.817705400384458
 31
1.0
  0
LINE
  5
79
330
17
100
AcDbEntity
  8
0
100
AcDbLine
 10
-29.638045014198372
 20
-26.862358193880723
 30
1.0
 11
-29.194562907913422
 21
-27.343692080914856
 31
1.0
  0
LINE
  5
7A
330
17
100
AcDbEntity
  8
0
100
AcDbLine
 10
-30.0735922991591
 20
-26.373832604002754
 30
1.0
 11
-29.638045014198372
 21
-26.862358193880723
 31
1.0
  0
LINE
  5
7B
330
17
100
AcDbEntity
  8
0
100
AcDbLine
 10
-30.501088156255527
 20
-25.87824610139429
 30
1.0
 11
-30.0735922991591
 21
-26.373832604002754
 31
1.0
  0
LINE
  5
7C
330
17
100
AcDbEntity
  8
0
100
AcDbLine
 10
-30.920418134509482
 20
-25.37573136654581
 30
1.0
 11
-30.501088156255527
 21
-25.87824610139429
 31
1.0
  0
LINE
  5
7D
330
17
100
AcDbEntity
  8
0
100
AcDbLine
 10
-31.331469969146024
 20
-24.866422934803087
 30
1.0
 11
-30.920418134509482
 21
-25.37573136654581
 31
1.0
  0
LINE
  5
7E
330
17
100
AcDbEntity
  8
0
100
AcDbLine
 10
-31.734133611649405
 20
-24.350457160348824
 30
1.0
 11
-31.331469969146024
 21
-24.866422934803087
 31
1.0
  0
LINE
  5
7F
330
17
100
AcDbEntity
  8
0
100
AcDbLine
 10
-32.1283012592258
 20
-23.82797217969733
 30
1.0
 11
-31.734133611649405
 21
-24.350457160348824
 31
1.0
  0
LINE
  5
80
330
17
100
AcDbEntity
  8
0
100
AcDbLine
 10
-32.51386738366462
 20
-23.29910787471208
 30
1.0
 11
-32.1283012592258
 21
-23.82797217969733
 31
1.0
  0
LINE
  5
81
330
17
100
AcDbEntity
  8
0
100
AcDbLine
 10
-32.89072875959101
 20
-22.76400583515592
 30
1.0
 11
-32.51386738366462
 21
-23.29910787471208
 31
1.0
  0
LINE
  5
82
330
17
100
AcDbEntity
  8
0
100
AcDbLine
 10
-33.25878449210181
 20
-22.22280932078409
 30
1.0
 11
-32.89072875959101
 21
-22.76400583515592
 31
1.0
  0
LINE
  5
83
330
17
100
AcDbEntity
  8
0
100
AcDbLine
 10
-33.61793604377752
 20
-21.675663222990067
 30
1.0
 11
-33.25878449210181
 21
-22.22280932078409
 31
1.0
  0
LINE
  5
84
330
17
100
AcDbEntity
  8
0
100
AcDbLine
 10
-33.96808726106316
 20
-21.122714026014716
 30
1.0
 11
-33.61793604377752
 21
-21.675663222990067
 31
1.0
  0
LINE
  5
85
330
17
100
AcDbEntity
  8
0
100
AcDbLine
 10
-34.30914440001089
 20
-20.564109767728862
 30
1.0
 11
-33.96808726106316
 21
-21.122714026014716
 31
1.0
  0
LINE
  5
86
330
17
100
AcDbEntity
  8
0
100
AcDbLine
 10
10.818534303091841
 20
-35.3191069469887
 30
1.0
 11
22.206574742935565
 21
-63.505496125819036
 31
1.0
  0
LINE
  5
87
330
17
100
AcDbEntity
  8
0
100
AcDbLine
 10
14.08328655943384
 20
-34.00006141457203
 30
1.0
 11
10.81853430309184
 21
-35.3191069469887
 31
1.0
  0
LINE
  5
88
330
17
100
AcDbEntity
  8
0
100
AcDbLine
 10
17.324521059453076
 20
-32.624238995884134
 30
1.0
 11
14.083286559433839
 21
-34.00006141457203
 31
1.0
  0
LINE
  5
89
330
17
100
AcDbEntity
  8
0
100
AcDbLine
 10
29.20274736552699
 20
-60.60758654083833
 30
1.0
 11
17.324521059453076
 21
-32.624238995884134
 31
1.0
  0
LINE
  5
8A
330
17
100
AcDbEntity
  8
0
100
AcDbLine
 10
28.12346194807083
 20
-61.065716020050736
 30
1.0
 11
29.20274736552699
 21
-60.60758654083833
 31
1.0
  0
LINE
  5
8B
330
17
100
AcDbEntity
  8
0
100
AcDbLine
 10
28.140551412163003
 20
-61.1080139279572
 30
1.0
 11
28.12346194807083
 21
-61.065716020050736
 31
1.0
  0
LINE
  5
8C
330
17
100
AcDbEntity
  8
0
100
AcDbLine
 10
25.717305891140168
 20
-62.087068670088
 30
1.0
 11
28.140551412163006
 21
-61.1080139279572
 31
1.0
  0
LINE
  5
8D
330
17
100
AcDbEntity
  8
0
100
AcDbLine
 10
23.311516303431368
 20
-63.108265763169676
 30
1.0
 11
25.717305891140168
 21
-62.087068670088
 31
1.0
  0
LINE
  5
8E
330
17
100
AcDbEntity
  8
0
100
AcDbLine
 10
23.293691241867126
 20
-63.06627254971259
 30
1.0
 11
23.311516303431368
 21
-63.108265763169676
 31
1.0
  0
LINE
  5
8F
330
17
100
AcDbEntity
  8
0
100
AcDbLine
 10
22.206574742935565
 20
-63.505496125819036
 30
1.0
 11
23.293691241867123
 21
-63.06627254971259
 31
1.0
  0
LINE
  5
90
330
17
100
AcDbEntity
  8
0
100
AcDbLine
 10
-10.352761804100826
 20
-38.63703305156273
 30
1.0
 11
-9.719207196130565
 21
-38.801250127781756
 31
1.0
  0
LINE
  5
91
330
17
100
AcDbEntity
  8
0
100
AcDbLine
 10
-7.246933262870577
 20
-27.04592313609391
 30
1.0
 11
-10.352761804100826
 21
-38.63703305156273
 31
1.0
  0
LINE
  5
92
330
17
100
AcDbEntity
  8
0
100
AcDbLine
 10
-6.803445037291396
 20
-27.16087508944723
 30
1.0
 11
-7.246933262870577
 21
-27.04592313609391
 31
1.0
  0
LINE
  5
93
330
17
100
AcDbEntity
  8
0
100
AcDbLine
 10
-6.358135364962466
 20
-27.268555419765338
 30
1.0
 11
-6.803445037291396
 21
-27.16087508944723
 31
1.0
  0
LINE
  5
94
330
17
100
AcDbEntity
  8
0
100
AcDbLine
 10
-5.911123466051025
 20
-27.368935298420013
 30
1.0
 11
-6.358135364962466
 21
-27.268555419765338
 31
1.0
  0
LINE
  5
95
330
17
100
AcDbEntity
  8
0
100
AcDbLine
 10
-5.462529016451603
 20
-27.46198785129045
 30
1.0
 11
-5.911123466051025
 21
-27.368935298420013
 31
1.0
  0
LINE
  5
96
330
17
100
AcDbEntity
  8
0
100
AcDbLine
 10
-5.0124721157457355
 20
-27.547688165958164
 30
1.0
 11
-5.462529016451603
 21
-27.46198785129045
 31
1.0
  0
LINE
  5
97
330
17
100
AcDbEntity
  8
0
100
AcDbLine
 10
-4.561073255048491
 20
-27.626013298376613
 30
1.0
 11
-5.0124721157457355
 21
-27.547688165958164
 31
1.0
  0
LINE
  5
98
330
17
100
AcDbEntity
  8
0
100
AcDbLine
 10
-4.10845328475012
 20
-27.696942279013868
 30
1.0
 11
-4.561073255048491
 21
-27.626013298376613
 31
1.0
  0
LINE
  5
99
330
17
100
AcDbEntity
  8
0
100
AcDbLine
 10
-3.654733382161446
 20
-27.760456118466692
 30
1.0
 11
-4.10845328475012
 21
-27.696942279013868
 31
1.0
  0
LINE
  5
9A
330
17
100
AcDbEntity
  8
0
100
AcDbLine
 10
-3.2000350190717097
 20
-27.816537812544443
 30
1.0
 11
-3.654733382161446
 21
-27.760456118466692
 31
1.0
  0
LINE
  5
9B
330
17
100
AcDbEntity
  8
0
100
AcDbLine
 10
-2.7444799292276927
 20
-27.865172346821513
 30
1.0
 11
-3.2000350190717097
 21
-27.816537812544443
 31
1.0
  0
LINE
  5
9C
330
17
100
AcDbEntity
  8
0
100
AcDbLine
 10
-2.288190075742716
 20
-27.90634670065705
 30
1.0
 11
-2.7444799292276927
 21
-27.865172346821513
 31
1.0
  0
LINE
  5
9D
330
17
100
AcDbEntity
  8
0
100
AcDbLine
 10
-1.8312876184440212
 20
-27.940049850680897
 30
1.0
 11
-2.288190075742716
 21
-27.90634670065705
 31
1.0
  0
LINE
  5
9E
330
17
100
AcDbEntity
  8
0
100
AcDbLine
 10
-1.3738948811677296
 20
-27.966272773744823
 30
1.0
 11
-1.8312876184440212
 21
-27.940049850680897
 31
1.0
  0
LINE
  5
9F
330
17
100
AcDbEntity
  8
0
100
AcDbLine
 10
-0.9161343190097423
 20
-27.98500844933824
 30
1.0
 11
-1.3738948811677296
 21
-27.966272773744823
 31
1.0
  0
LINE
  5
A0
330
17
100
AcDbEntity
  8
0
100
AcDbLine
 10
-0.45812848554162516
 20
-27.99625186146773
 30
1.0
 11
-0.9161343190097423
 21
-27.98500844933824
 31
1.0
  0
LINE
  5
A1
330
17
100
AcDbEntity
  8
0
100
AcDbLine
 10
-5.143516556418883e-15
 20
-28.0
 30
1.0
 11
-0.45812848554162516
 21
-27.99625186146773
 31
1.0
  0
LINE
  5
A2
330
17
100
AcDbEntity
  8
0
100
AcDbLine
 10
0.45812848554163976
 20
-27.99625186146773
 30
1.0
 11
-5.1690874267730235e-15
 21
-28.0
 31
1.0
  0
LINE
  5
A3
330
17
100
AcDbEntity
  8
0
100
AcDbLine
 10
0.916134319009732
 20
-27.98500844933824
 30
1.0
 11
0.45812848554163976
 21
-27.99625186146773
 31
1.0
  0
LINE
  5
A4
330
17
100
AcDbEntity
  8
0
100
AcDbLine
 10
1.3738948811676945
 20
-27.966272773744826
 30
1.0
 11
0.916134319009732
 21
-27.98500844933824
 31
1.0
  0
LINE
  5
A5
330
17
100
AcDbEntity
  8
0
100
AcDbLine
 10
1.8312876184439864
 20
-27.9400498506809
 30
1.0
 11
1.3738948811676945
 21
-27.966272773744826
 31
1.0
  0
LINE
  5
A6
330
17
100
AcDbEntity
  8
0
100
AcDbLine
 10
2.2881900757427056
 20
-27.90634670065705
 30
1.0
 11
1.8312876184439864
 21
-27.9400498506809
 31
1.0
  0
LINE
  5
A7
330
17
100
AcDbEntity
  8
0
100
AcDbLine
 10
2.7444799292276825
 20
-27.865172346821513
 30
1.0
 11
2.2881900757427056
 21
-27.90634670065705
 31
1.0
  0
LINE
  5
A8
330
17
100
AcDbEntity
  8
0
100
AcDbLine
 10
3.2000350190716995
 20
-27.816537812544443
 30
1.0
 11
2.7444799292276825
 21
-27.865172346821513
 31
1.0
  0
LINE
  5
A9
330
17
100
AcDbEntity
  8
0
100
AcDbLine
 10
3.6547333821614596
 20
-27.760456118466692
 30
1.0
 11
3.2000350190716995
 21
-27.816537812544443
 31
1.0
  0
LINE
  5
AA
330
17
100
AcDbEntity
  8
0
100
AcDbLine
 10
4.1084532847501345
 20
-27.696942279013864
 30
1.0
 11
3.6547333821614596
 21
-27.760456118466692
 31
1.0
  0
LINE
  5
AB
330
17
100
AcDbEntity
  8
0
100
AcDbLine
 10
4.5610732550484805
 20
-27.626013298376613
 30
1.0
 11
4.1084532847501345
 21
-27.696942279013864
 31
1.0
  0
LINE
  5
AC
330
17
100
AcDbEntity
  8
0
100
AcDbLine
 10
5.012472115745702
 20
-27.54768816595817
 30
1.0
 11
4.5610732550484805
 21
-27.626013298376613
 31
1.0
  0
LINE
  5
AD
330
17
100
AcDbEntity
  8
0
100
AcDbLine
 10
5.462529016451592
 20
-27.461987851290452
 30
1.0
 11
5.012472115745702
 21
-27.54768816595817
 31
1.0
  0
LINE
  5
AE
330
17
100
AcDbEntity
  8
0
100
AcDbLine
 10
5.911123466051016
 20
-27.368935298420013
 30
1.0
 11
5.462529016451592
 21
-27.461987851290452
 31
1.0
  0
LINE
  5
AF
330
17
100
AcDbEntity
  8
0
100
AcDbLine
 10
6.358135364962432
 20
-27.26855541976535
 30
1.0
 11
5.911123466051016
 21
-27.368935298420013
 31
1.0
  0
LINE
  5
B0
330
17
100
AcDbEntity
  8
0
100
AcDbLine
 10
6.803445037291385
 20
-27.16087508944723
 30
1.0
 11
6.358135364962432
 21
-27.26855541976535
 31
1.0
  0
LINE
  5
B1
330
17
100
AcDbEntity
  8
0
100
AcDbLine
 10
7.246933262870591
 20
-27.04592313609391
 30
1.0
 11
6.803445037291385
 21
-27.16087508944723
 31
1.0
  0
LINE
  5
B2
330
17
100
AcDbEntity
  8
0
100
AcDbLine
 10
10.352761804100846
 20
-38.637033051562724
 30
1.0
 11
7.246933262870591
 21
-27.04592313609391
 31
1.0
  0
LINE
  5
B3
330
17
100
AcDbEntity
  8
0
100
AcDbLine
 10
9.71920719613055
 20
-38.801250127781756
 30
1.0
 11
10.352761804100846
 21
-38.637033051562724
 31
1.0
  0
LINE
  5
B4
330
17
100
AcDbEntity
  8
0
100
AcDbLine
 10
9.083050521374902
 20
-38.95507917109335
 30
1.0
 11
9.71920719613055
 21
-38.801250127781756
 31
1.0
  0
LINE
  5
B5
330
17
100
AcDbEntity
  8
0
100
AcDbLine
 10
8.444462094358595
 20
-39.09847899774287
 30
1.0
 11
9.083050521374902
 21
-38.95507917109335
 31
1.0
  0
LINE
  5
B6
330
17
100
AcDbEntity
  8
0
100
AcDbLine
 10
7.803612880645132
 20
-39.23141121612922
 30
1.0
 11
8.444462094358595
 21
-39.09847899774287
 31
1.0
  0
LINE
  5
B7
330
17
100
AcDbEntity
  8
0
100
AcDbLine
 10
7.1606744510652875
 20
-39.3538402370831
 30
1.0
 11
7.803612880645132
 21
-39.23141121612922
 31
1.0
  0
LINE
  5
B8
330
17
100
AcDbEntity
  8
0
100
AcDbLine
 10
6.515818935783544
 20
-39.46573328339516
 30
1.0
 11
7.1606744510652875
 21
-39.3538402370831
 31
1.0
  0
LINE
  5
B9
330
17
100
AcDbEntity
  8
0
100
AcDbLine
 10
5.8692189782144775
 20
-39.56706039859124
 30
1.0
 11
6.515818935783544
 21
-39.46573328339516
 31
1.0
  0
LINE
  5
BA
330
17
100
AcDbEntity
  8
0
100
AcDbLine
 10
5.221047688802085
 20
-39.657794454952416
 30
1.0
 11
5.8692189782144775
 21
-39.56706039859124
 31
1.0
  0
LINE
  5
BB
330
17
100
AcDbEntity
  8
0
100
AcDbLine
 10
4.571478598673856
 20
-39.73791116077778
 30
1.0
 11
5.221047688802085
 21
-39.657794454952416
 31
1.0
  0
LINE
  5
BC
330
17
100
AcDbEntity
  8
0
100
AcDbLine
 10
3.9206856131824037
 20
-39.80738906688788
 30
1.0
 11
4.571478598673856
 21
-39.73791116077778
 31
1.0
  0
LINE
  5
BD
330
17
100
AcDbEntity
  8
0
100
AcDbLine
 10
3.268842965346722
 20
-39.86620957236721
 30
1.0
 11
3.9206856131824037
 21
-39.80738906688788
 31
1.0
  0
LINE
  5
BE
330
17
100
AcDbEntity
  8
0
100
AcDbLine
 10
2.6161251692056946
 20
-39.91435692954414
 30
1.0
 11
3.268842965346722
 21
-39.86620957236721
 31
1.0
  0
LINE
  5
BF
330
17
100
AcDbEntity
  8
0
100
AcDbLine
 10
1.9627069730967064
 20
-39.9518182482069
 30
1.0
 11
2.6161251692056946
 21
-39.91435692954414
 31
1.0
  0
LINE
  5
C0
330
17
100
AcDbEntity
  8
0
100
AcDbLine
 10
1.3087633128710459
 20
-39.97858349905463
 30
1.0
 11
1.9627069730967064
 21
-39.9518182482069
 31
1.0
  0
LINE
  5
C1
330
17
100
AcDbEntity
  8
0
100
AcDbLine
 10
0.6544692650594853
 20
-39.99464551638247
 30
1.0
 11
1.3087633128710459
 21
-39.97858349905463
 31
1.0
  0
LINE
  5
C2
330
17
100
AcDbEntity
  8
0
100
AcDbLine
 10
-7.347880794884118e-15
 20
-40.0
 30
1.0
 11
0.6544692650594853
 21
-39.99464551638247
 31
1.0
  0
LINE
  5
C3
330
17
100
AcDbEntity
  8
0
100
AcDbLine
 10
-0.6544692650594646
 20
-39.99464551638247
 30
1.0
 11
-7.301066080694657e-15
 21
-40.0
 31
1.0
  0
LINE
  5
C4
330
17
100
AcDbEntity
  8
0
100
AcDbLine
 10
-1.3087633128710605
 20
-39.97858349905463
 30
1.0
 11
-0.6544692650594646
 21
-39.99464551638247
 31
1.0
  0
LINE
  5
C5
330
17
100
AcDbEntity
  8
0
100
AcDbLine
 10
-1.9627069730967568
 20
-39.95181824820689
 30
1.0
 11
-1.3087633128710605
 21
-39.97858349905463
 31
1.0
  0
LINE
  5
C6
330
17
100
AcDbEntity
  8
0
100
AcDbLine
 10
-2.616125169205745
 20
-39.91435692954414
 30
1.0
 11
-1.9627069730967568
 21
-39.95181824820689
 31
1.0
  0
LINE
  5
C7
330
17
100
AcDbEntity
  8
0
100
AcDbLine
 10
-3.268842965346737
 20
-39.86620957236721
 30
1.0
 11
-2.616125169205745
 21
-39.91435692954414
 31
1.0
  0
LINE
  5
C8
330
17
100
AcDbEntity
  8
0
100
AcDbLine
 10
-3.920685613182418
 20
-39.80738906688788
 30
1.0
 11
-3.268842965346737
 21
-39.86620957236721
 31
1.0
  0
LINE
  5
C9
330
17
100
AcDbEntity
  8
0
100
AcDbLine
 10
-4.571478598673871
 20
-39.73791116077778
 30
1.0
 11
-3.920685613182418
 21
-39.80738906688788
 31
1.0
  0
LINE
  5
CA
330
17
100
AcDbEntity
  8
0
100
AcDbLine
 10
-5.221047688802065
 20
-39.657794454952416
 30
1.0
 11
-4.571478598673871
 21
-39.73791116077778
 31
1.0
  0
LINE
  5
CB
330
17
100
AcDbEntity
  8
0
100
AcDbLine
 10
-5.869218978214458
 20
-39.56706039859124
 30
1.0
 11
-5.221047688802065
 21
-39.657794454952416
 31
1.0
  0
LINE
  5
CC
330
17
100
AcDbEntity
  8
0
100
AcDbLine
 10
-6.5158189357835585
 20
-39.46573328339516
 30
1.0
 11
-5.869218978214458
 21
-39.56706039859124
 31
1.0
  0
LINE
  5
CD
330
17
100
AcDbEntity
  8
0
100
AcDbLine
 10
-7.160674451065336
 20
-39.35384023708309
 30
1.0
 11
-6.5158189357835585
 21
-39.46573328339516
 31
1.0
  0
LINE
  5
CE
330
17
100
AcDbEntity
  8
0
100
AcDbLine
 10
-7.803612880645146
 20
-39.23141121612921
 30
1.0
 11
-7.160674451065336
 21
-39.35384023708309
 31
1.0
  0
LINE
  5
CF
330
17
100
AcDbEntity
  8
0
100
AcDbLine
 10
-8.444462094358608
 20
-39.09847899774287
 30
1.0
 11
-7.803612880645146
 21
-39.23141121612921
 31
1.0
  0
LINE
  5
D0
330
17
100
AcDbEntity
  8
0
100
AcDbLine
 10
-9.08305052137495
 20
-38.95507917109334
 30
1.0
 11
-8.444462094358608
 21
-39.09847899774287
 31
1.0
  0
LINE
  5
D1
330
17
100
AcDbEntity
  8
0
100
AcDbLine
 10
-9.719207196130565
 20
-38.801250127781756
 30
1.0
 11
-9.08305052137495
 21
-38.95507917109334
 31
1.0
  0
LINE
  5
D2
330
17
100
AcDbEntity
  8
0
100
AcDbLine
 10
20.000000000000004
 20
-34.64101615137754
 30
1.0
 11
20.564109767728862
 21
-34.30914440001089
 31
1.0
  0
LINE
  5
D3
330
17
100
AcDbEntity
  8
0
100
AcDbLine
 10
14.000000000000004
 20
-24.24871130596428
 30
1.0
 11
20.000000000000004
 21
-34.64101615137754
 31
1.0
  0
LINE
  5
D4
330
17
100
AcDbEntity
  8
0
100
AcDbLine
 10
14.394876837410203
 20
-24.016401080007622
 30
1.0
 11
14.000000000000004
 21
-24.24871130596428
 31
1.0
  0
LINE
  5
D5
330
17
100
AcDbEntity
  8
0
100
AcDbLine
 10
14.78589981821031
 20
-23.777661082744206
 30
1.0
 11
14.394876837410203
 21
-24.016401080007622
 31
1.0
  0
LINE
  5
D6
330
17
100
AcDbEntity
  8
0
100
AcDbLine
 10
15.172964256093046
 20
-23.532555230644267
 30
1.0
 11
14.78589981821031
 21
-23.777661082744206
 31
1.0
  0
LINE
  5
D7
330
17
100
AcDbEntity
  8
0
100
AcDbLine
 10
15.555966524548852
 20
-23.28114914447127
 30
1.0
 11
15.172964256093046
 21
-23.532555230644267
 31
1.0
  0
LINE
  5
D8
330
17
100
AcDbEntity
  8
0
100
AcDbLine
 10
15.934804084609153
 20
-23.023510131713703
 30
1.0
 11
15.555966524548852
 21
-23.28114914447127
 31
1.0
  0
LINE
  5
D9
330
17
100
AcDbEntity
  8
0
100
AcDbLine
 10
16.309375512298455
 20
-22.759707168565228
 30
1.0
 11
15.934804084609153
 21
-23.023510131713703
 31
1.0
  0
LINE
  5
DA
330
17
100
AcDbEntity
  8
0
100
AcDbLine
 10
16.679580525788122
 20
-22.48981088145807
 30
1.0
 11
16.309375512298455
 21
-22.759707168565228
 31
1.0
  0
LINE
  5
DB
330
17
100
AcDbEntity
  8
0
100
AcDbLine
 10
17.04532001224418
 20
-22.213893528154586
 30
1.0
 11
16.679580525788122
 21
-22.48981088145807
 31
1.0
  0
LINE
  5
DC
330
17
100
AcDbEntity
  8
0
100
AcDbLine
 10
17.406496054362176
 20
-21.9320289784022
 30
1.0
 11
17.04532001224418
 21
-22.213893528154586
 31
1.0
  0
LINE
  5
DD
330
17
100
AcDbEntity
  8
0
100
AcDbLine
 10
17.763011956582076
 20
-21.644292694156633
 30
1.0
 11
17.406496054362176
 21
-21.9320289784022
 31
1.0
  0
LINE
  5
DE
330
17
100
AcDbEntity
  8
0
100
AcDbLine
 10
18.114772270976
 20
-21.350761709378872
 30
1.0
 11
17.763011956582076
 21
-21.644292694156633
 31
1.0
  0
LINE
  5
DF
330
17
100
AcDbEntity
  8
0
100
AcDbLine
 10
18.461682822801915
 20
-21.051514609411377
 30
1.0
 11
18.114772270976
 21
-21.350761709378872
 31
1.0
  0
LINE
  5
E0
330
17
100
AcDbEntity
  8
0
100
AcDbLine
 10
18.803650735716516
 20
-20.746631509938855
 30
1.0
 11
18.461682822801915
 21
-21.051514609411377
 31
1.0
  0
LINE
  5
E1
330
17
100
AcDbEntity
  8
0
100
AcDbLine
 10
19.14058445664039
 20
-20.436194035539405
 30
1.0
 11
18.803650735716516
 21
-20.746631509938855
 31
1.0
  0
LINE
  5
E2
330
17
100
AcDbEntity
  8
0
100
AcDbLine
 10
19.472393780269112
 20
-20.12028529783156
 30
1.0
 11
19.14058445664039
 21
-20.436194035539405
 31
1.0
  0
LINE
  5
E3
330
17
100
AcDbEntity
  8
0
100
AcDbLine
 10
19.798989873223327
 20
-19.798989873223334
 30
1.0
 11
19.472393780269112
 21
-20.12028529783156
 31
1.0
  0
LINE
  5
E4
330
17
100
AcDbEntity
  8
0
100
AcDbLine
 10
20.120285297831554
 20
-19.472393780269122
 30
1.0
 11
19.798989873223327
 21
-19.798989873223334
 31
1.0
  0
LINE
  5
E5
330
17
100
AcDbEntity
  8
0
100
AcDbLine
 10
20.436194035539398
 20
-19.140584456640397
 30
1.0
 11
20.120285297831554
 21
-19.472393780269122
 31
1.0
  0
LINE
  5
E6
330
17
100
AcDbEntity
  8
0
100
AcDbLine
 10
20.746631509938844
 20
-18.803650735716523
 30
1.0
 11
20.436194035539398
 21
-19.140584456640397
 31
1.0
  0
LINE
  5
E7
330
17
100
AcDbEntity
  8
0
100
AcDbLine
 10
21.05151460941137
 20
-18.461682822801926
 30
1.0
 11
20.746631509938844
 21
-18.803650735716523
 31
1.0
  0
LINE
  5
E8
330
17
100
AcDbEntity
  8
0
100
AcDbLine
 10
21.35076170937886
 20
-18.11477227097601
 30
1.0
 11
21.05151460941137
 21
-18.461682822801926
 31
1.0
  0
LINE
  5
E9
330
17
100
AcDbEntity
  8
0
100
AcDbLine
 10
21.644292694156626
 20
-17.763011956582087
 30
1.0
 11
21.35076170937886
 21
-18.11477227097601
 31
1.0
  0
LINE
  5
EA
330
17
100
AcDbEntity
  8
0
100
AcDbLine
 10
21.932028978402194
 20
-17.40649605436219
 30
1.0
 11
21.644292694156626
 21
-17.763011956582087
 31
1.0
  0
LINE
  5
EB
330
17
100
AcDbEntity
  8
0
100
AcDbLine
 10
22.21389352815458
 20
-17.045320012244183
 30
1.0
 11
21.932028978402194
 21
-17.40649605436219
 31
1.0
  0
LINE
  5
EC
330
17
100
AcDbEntity
  8
0
100
AcDbLine
 10
22.489810881458062
 20
-16.679580525788133
 30
1.0
 11
22.21389352815458
 21
-17.045320012244183
 31
1.0
  0
LINE
  5
ED
330
17
100
AcDbEntity
  8
0
100
AcDbLine
 10
22.759707168565225
 20
-16.309375512298462
 30
1.0
 11
22.489810881458062
 21
-16.679580525788133
 31
1.0
  0
LINE
  5
EE
330
17
100
AcDbEntity
  8
0
100
AcDbLine
 10
23.02351013171371
 20
-15.93480408460914
 30
1.0
 11
22.759707168565225
 21
-16.309375512298462
 31
1.0
  0
LINE
  5
EF
330
17
100
AcDbEntity
  8
0
100
AcDbLine
 10
23.281149144471268
 20
-15.555966524548861
 30
1.0
 11
23.02351013171371
 21
-15.93480408460914
 31
1.0
  0
LINE
  5
F0
330
17
100
AcDbEntity
  8
0
100
AcDbLine
 10
23.53255523064426
 20
-15.172964256093058
 30
1.0
 11
23.281149144471268
 21
-15.555966524548861
 31
1.0
  0
LINE
  5
F1
330
17
100
AcDbEntity
  8
0
100
AcDbLine
 10
23.7776610827442
 20
-14.785899818210321
 30
1.0
 11
23.53255523064426
 21
-15.172964256093058
 31
1.0
  0
LINE
  5
F2
330
17
100
AcDbEntity
  8
0
100
AcDbLine
 10
24.016401080007604
 20
-14.394876837410234
 30
1.0
 11
23.7776610827442
 21
-14.785899818210321
 31
1.0
  0
LINE
  5
F3
330
17
100
AcDbEntity
  8
0
100
AcDbLine
 10
24.248711305964274
 20
-14.000000000000012
 30
1.0
 11
24.016401080007604
 21
-14.394876837410234
 31
1.0
  0
LINE
  5
F4
330
17
100
AcDbEntity
  8
0
100
AcDbLine
 10
34.641016151377535
 20
-20.000000000000018
 30
1.0
 11
24.248711305964274
 21
-14.000000000000012
 31
1.0
  0
LINE
  5
F5
330
17
100
AcDbEntity
  8
0
100
AcDbLine
 10
34.309144400010865
 20
-20.564109767728908
 30
1.0
 11
34.641016151377535
 21
-20.000000000000018
 31
1.0
  0
LINE
  5
F6
330
17
100
AcDbEntity
  8
0
100
AcDbLine
 10
33.96808726106314
 20
-21.122714026014748
 30
1.0
 11
34.309144400010865
 21
-20.564109767728908
 31
1.0
  0
LINE
  5
F7
330
17
100
AcDbEntity
  8
0
100
AcDbLine
 10
33.61793604377751
 20
-21.67566322299008
 30
1.0
 11
33.96808726106314
 21
-21.122714026014748
 31
1.0
  0
LINE
  5
F8
330
17
100
AcDbEntity
  8
0
100
AcDbLine
 10
33.25878449210181
 20
-22.222809320784087
 30
1.0
 11
33.61793604377751
 21
-21.67566322299008
 31
1.0
  0
LINE
  5
F9
330
17
100
AcDbEntity
  8
0
100
AcDbLine
 10
32.89072875959101
 20
-22.764005835155917
 30
1.0
 11
33.25878449210181
 21
-22.222809320784087
 31
1.0
  0
LINE
  5
FA
330
17
100
AcDbEntity
  8
0
100
AcDbLine
 10
32.5138673836646
 20
-23.299107874712092
 30
1.0
 11
32.89072875959101
 21
-22.764005835155917
 31
1.0
  0
LINE
  5
FB
330
17
100
AcDbEntity
  8
0
100
AcDbLine
 10
32.1283012592258
 20
-23.82797217969733
 30
1.0
 11
32.5138673836646
 21
-23.299107874712092
 31
1.0
  0
LINE
  5
FC
330
17
100
AcDbEntity
  8
0
100
AcDbLine
 10
31.734133611649398
 20
-24.350457160348835
 30
1.0
 11
32.1283012592258
 21
-23.82797217969733
 31
1.0
  0
LINE
  5
FD
330
17
100
AcDbEntity
  8
0
100
AcDbLine
 10
31.331469969145992
 20
-24.866422934803126
 30
1.0
 11
31.734133611649398
 21
-24.350457160348835
 31
1.0
  0
LINE
  5
FE
330
17
100
AcDbEntity
  8
0
100
AcDbLine
 10
30.920418134509468
 20
-25.375731366545835
 30
1.0
 11
31.331469969145992
 21
-24.866422934803126
 31
1.0
  0
LINE
  5
FF
330
17
100
AcDbEntity
  8
0
100
AcDbLine
 10
30.50108815625552
 20
-25.8782461013943
 30
1.0
 11
30.920418134509468
 21
-25.375731366545835
 31
1.0
  0
LINE
  5
100
330
17
100
AcDbEntity
  8
0
100
AcDbLine
 10
30.0735922991591
 20
-26.37383260400275
 30
1.0
 11
30.50108815625552
 21
-25.8782461013943
 31
1.0
  0
LINE
  5
101
330
17
100
AcDbEntity
  8
0
100
AcDbLine
 10
29.63804501419835
 20
-26.862358193880745
 30
1.0
 11
30.0735922991591
 21
-26.37383260400275
 31
1.0
  0
LINE
  5
102
330
17
100
AcDbEntity
  8
0
100
AcDbLine
 10
29.194562907913422
 20
-27.343692080914856
 30
1.0
 11
29.63804501419835
 21
-26.862358193880745
 31
1.0
  0
LINE
  5
103
330
17
100
AcDbEntity
  8
0
100
AcDbLine
 10
28.743264711187933
 20
-27.817705400384458
 30
1.0
 11
29.194562907913422
 21
-27.343692080914856
 31
1.0
  0
LINE
  5
104
330
17
100
AcDbEntity
  8
0
100
AcDbLine
 10
28.284271247461895
 20
-28.28427124746191
 30
1.0
 11
28.743264711187933
 21
-27.817705400384458
 31
1.0
  0
LINE
  5
105
330
17
100
AcDbEntity
  8
0
100
AcDbLine
 10
27.817705400384444
 20
-28.743264711187948
 30
1.0
 11
28.284271247461895
 21
-28.28427124746191
 31
1.0
  0
LINE
  5
106
330
17
100
AcDbEntity
  8
0
100
AcDbLine
 10
27.343692080914842
 20
-29.194562907913436
 30
1.0
 11
27.817705400384444
 21
-28.743264711187948
 31
1.0
  0
LINE
  5
107
330
17
100
AcDbEntity
  8
0
100
AcDbLine
 10
26.862358193880738
 20
-29.638045014198365
 30
1.0
 11
27.343692080914842
 21
-29.194562907913436
 31
1.0
  0
LINE
  5
108
330
17
100
AcDbEntity
  8
0
100
AcDbLine
 10
26.373832604002736
 20
-30.073592299159113
 30
1.0
 11
26.862358193880738
 21
-29.638045014198365
 31
1.0
  0
LINE
  5
109
330
17
100
AcDbEntity
  8
0
100
AcDbLine
 10
25.878246101394286
 20
-30.50108815625553
 30
1.0
 11
26.373832604002736
 21
-30.073592299159113
 31
1.0
  0
LINE
  5
10A
330
17
100
AcDbEntity
  8
0
100
AcDbLine
 10
25.375731366545825
 20
-30.920418134509475
 30
1.0
 11
25.878246101394286
 21
-30.50108815625553
 31
1.0
  0
LINE
  5
10B
330
17
100
AcDbEntity
  8
0
100
AcDbLine
 10
24.86642293480311
 20
-31.331469969146003
 30
1.0
 11
25.375731366545825
 21
-30.920418134509475
 31
1.0
  0
LINE
  5
10C
330
17
100
AcDbEntity
  8
0
100
AcDbLine
 10
24.350457160348824
 20
-31.734133611649405
 30
1.0
 11
24.86642293480311
 21
-31.331469969146003
 31
1.0
  0
LINE
  5
10D
330
17
100
AcDbEntity
  8
0
100
AcDbLine
 10
23.827972179697316
 20
-32.12830125922581
 30
1.0
 11
24.350457160348824
 21
-31.734133611649405
 31
1.0
  0
LINE
  5
10E
330
17
100
AcDbEntity
  8
0
100
AcDbLine
 10
23.299107874712078
 20
-32.51386738366462
 30
1.0
 11
23.827972179697316
 21
-32.12830125922581
 31
1.0
  0
LINE
  5
10F
330
17
100
AcDbEntity
  8
0
100
AcDbLine
 10
22.764005835155935
 20
-32.890728759591006
 30
1.0
 11
23.299107874712078
 21
-32.51386738366462
 31
1.0
  0
LINE
  5
110
330
17
100
AcDbEntity
  8
0
100
AcDbLine
 10
22.222809320784073
 20
-33.25878449210182
 30
1.0
 11
22.764005835155935
 21
-32.890728759591006
 31
1.0
  0
LINE
  5
111
330
17
100
AcDbEntity
  8
0
100
AcDbLine
 10
21.675663222990064
 20
-33.617936043777526
 30
1.0
 11
22.222809320784073
 21
-33.25878449210182
 31
1.0
  0
LINE
  5
112
330
17
100
AcDbEntity
  8
0
100
AcDbLine
 10
21.122714026014727
 20
-33.968087261063154
 30
1.0
 11
21.675663222990064
 21
-33.617936043777526
 31
1.0
  0
LINE
  5
113
330
17
100
AcDbEntity
  8
0
100
AcDbLine
 10
20.564109767728862
 20
-34.30914440001089
 30
1.0
 11
21.122714026014727
 21
-33.968087261063154
 31
1.0
  0
CIRCLE
  5
114
330
17
100
AcDbEntity
  8
0
100
AcDbCircle
 10
3.255810038836611e-13
 20
-4.7513988326610764e-15
 30
1.0
 40
20.0
  0
LINE
  5
115
330
17
100
AcDbEntity
  8
0
100
AcDbLine
 10
34.00006141457193
 20
-14.083286559434077
 30
1.0
 11
32.62423899588411
 21
-17.324521059453133
 31
1.0
  0
LINE
  5
116
330
17
100
AcDbEntity
  8
0
100
AcDbLine
 10
35.3191069469887
 20
-10.818534303091843
 30
1.0
 11
34.00006141457193
 21
-14.083286559434079
 31
1.0
  0
LINE
  5
117
330
17
100
AcDbEntity
  8
0
100
AcDbLine
 10
63.505496125819036
 20
-22.20657474293557
 30
1.0
 11
35.3191069469887
 21
-10.818534303091845
 31
1.0
  0
LINE
  5
118
330
17
100
AcDbEntity
  8
0
100
AcDbLine
 10
63.066272549712565
 20
-23.293691241867197
 30
1.0
 11
63.505496125819036
 21
-22.206574742935565
 31
1.0
  0
LINE
  5
119
330
17
100
AcDbEntity
  8
0
100
AcDbLine
 10
63.10826576316964
 20
-23.31151630343144
 30
1.0
 11
63.066272549712565
 21
-23.293691241867197
 31
1.0
  0
LINE
  5
11A
330
17
100
AcDbEntity
  8
0
100
AcDbLine
 10
62.08706867008806
 20
-25.717305891140043
 30
1.0
 11
63.10826576316964
 21
-23.311516303431443
 31
1.0
  0
LINE
  5
11B
330
17
100
AcDbEntity
  8
0
100
AcDbLine
 10
61.1080139279572
 20
-28.140551412163006
 30
1.0
 11
62.08706867008806
 21
-25.717305891140043
 31
1.0
  0
LINE
  5
11C
330
17
100
AcDbEntity
  8
0
100
AcDbLine
 10
61.06571602005073
 20
-28.123461948070833
 30
1.0
 11
61.1080139279572
 21
-28.140551412163006
 31
1.0
  0
LINE
  5
11D
330
17
100
AcDbEntity
  8
0
100
AcDbLine
 10
60.60758654083829
 20
-29.20274736552706
 30
1.0
 11
61.06571602005073
 21
-28.123461948070833
 31
1.0
  0
LINE
  5
11E
330
17
100
AcDbEntity
  8
0
100
AcDbLine
 10
32.62423899588411
 20
-17.324521059453133
 30
1.0
 11
60.6075865408383
 21
-29.20274736552706
 31
1.0
  0
LINE
  5
11F
330
17
100
AcDbEntity
  8
0
100
AcDbLine
 10
38.63703305156273
 20
-10.35276180410083
 30
1.0
 11
38.801250127781756
 21
-9.719207196130554
 31
1.0
  0
LINE
  5
120
330
17
100
AcDbEntity
  8
0
100
AcDbLine
 10
27.04592313609391
 20
-7.246933262870581
 30
1.0
 11
38.63703305156273
 21
-10.35276180410083
 31
1.0
  0
LINE
  5
121
330
17
100
AcDbEntity
  8
0
100
AcDbLine
 10
27.16087508944723
 20
-6.803445037291389
 30
1.0
 11
27.04592313609391
 21
-7.246933262870581
 31
1.0
  0
LINE
  5
122
330
17
100
AcDbEntity
  8
0
100
AcDbLine
 10
27.26855541976534
 20
-6.35813536496245
 30
1.0
 11
27.16087508944723
 21
-6.803445037291389
 31
1.0
  0
LINE
  5
123
330
17
100
AcDbEntity
  8
0
100
AcDbLine
 10
27.368935298420013
 20
-5.911123466051024
 30
1.0
 11
27.26855541976534
 21
-6.35813536496245
 31
1.0
  0
LINE
  5
124
330
17
100
AcDbEntity
  8
0
100
AcDbLine
 10
27.461987851290452
 20
-5.462529016451591
 30
1.0
 11
27.368935298420013
 21
-5.911123466051024
 31
1.0
  0
LINE
  5
125
330
17
100
AcDbEntity
  8
0
100
AcDbLine
 10
27.547688165958167
 20
-5.012472115745714
 30
1.0
 11
27.461987851290452
 21
-5.462529016451591
 31
1.0
  0
LINE
  5
126
330
17
100
AcDbEntity
  8
0
100
AcDbLine
 10
27.626013298376613
 20
-4.561073255048485
 30
1.0
 11
27.547688165958167
 21
-5.012472115745714
 31
1.0
  0
LINE
  5
127
330
17
100
AcDbEntity
  8
0
100
AcDbLine
 10
27.696942279013868
 20
-4.108453284750129
 30
1.0
 11
27.626013298376613
 21
-4.561073255048485
 31
1.0
  0
LINE
  5
128
330
17
100
AcDbEntity
  8
0
100
AcDbLine
 10
27.760456118466692
 20
-3.654733382161444
 30
1.0
 11
27.696942279013868
 21
-4.108453284750129
 31
1.0
  0
LINE
  5
129
330
17
100
AcDbEntity
  8
0
100
AcDbLine
 10
27.816537812544443
 20
-3.200035019071699
 30
1.0
 11
27.760456118466692
 21
-3.654733382161444
 31
1.0
  0
LINE
  5
12A
330
17
100
AcDbEntity
  8
0
100
AcDbLine
 10
27.865172346821513
 20
-2.7444799292276967
 30
1.0
 11
27.816537812544443
 21
-3.200035019071699
 31
1.0
  0
LINE
  5
12B
330
17
100
AcDbEntity
  8
0
100
AcDbLine
 10
27.90634670065705
 20
-2.28819007574271
 30
1.0
 11
27.865172346821513
 21
-2.7444799292276967
 31
1.0
  0
LINE
  5
12C
330
17
100
AcDbEntity
  8
0
100
AcDbLine
 10
27.940049850680897
 20
-1.8312876184440057
 30
1.0
 11
27.90634670065705
 21
-2.28819007574271
 31
1.0
  0
LINE
  5
12D
330
17
100
AcDbEntity
  8
0
100
AcDbLine
 10
27.966272773744826
 20
-1.3738948811677045
 30
1.0
 11
27.940049850680897
 21
-1.8312876184440057
 31
1.0
  0
LINE
  5
12E
330
17
100
AcDbEntity
  8
0
100
AcDbLine
 10
27.98500844933824
 20
-0.9161343190097319
 30
1.0
 11
27.966272773744826
 21
-1.3738948811677045
 31
1.0
  0
LINE
  5
12F
330
17
100
AcDbEntity
  8
0
100
AcDbLine
 10
27.99625186146773
 20
-0.4581284855416298
 30
1.0
 11
27.98500844933824
 21
-0.9161343190097319
 31
1.0
  0
LINE
  5
130
330
17
100
AcDbEntity
  8
0
100
AcDbLine
 10
28.0
 20
0.0
 30
1.0
 11
27.99625186146773
 21
-0.4581284855416298
 31
1.0
  0
LINE
  5
131
330
17
100
AcDbEntity
  8
0
100
AcDbLine
 10
27.99625186146773
 20
0.4581284855416298
 30
1.0
 11
28.0
 21
-7.055667756101623e-18
 31
1.0
  0
LINE
  5
132
330
17
100
AcDbEntity
  8
0
100
AcDbLine
 10
27.98500844933824
 20
0.9161343190097319
 30
1.0
 11
27.99625186146773
 21
0.4581284855416298
 31
1.0
  0
LINE
  5
133
330
17
100
AcDbEntity
  8
0
100
AcDbLine
 10
27.966272773744826
 20
1.3738948811677045
 30
1.0
 11
27.98500844933824
 21
0.9161343190097319
 31
1.0
  0
LINE
  5
134
330
17
100
AcDbEntity
  8
0
100
AcDbLine
 10
27.940049850680897
 20
1.8312876184440057
 30
1.0
 11
27.966272773744826
 21
1.3738948811677045
 31
1.0
  0
LINE
  5
135
330
17
100
AcDbEntity
  8
0
100
AcDbLine
 10
27.90634670065705
 20
2.28819007574271
 30
1.0
 11
27.940049850680897
 21
1.8312876184440057
 31
1.0
  0
LINE
  5
136
330
17
100
AcDbEntity
  8
0
100
AcDbLine
 10
27.865172346821513
 20
2.7444799292276967
 30
1.0
 11
27.90634670065705
 21
2.28819007574271
 31
1.0
  0
LINE
  5
137
330
17
100
AcDbEntity
  8
0
100
AcDbLine
 10
27.816537812544443
 20
3.200035019071699
 30
1.0
 11
27.865172346821513
 21
2.7444799292276967
 31
1.0
  0
LINE
  5
138
330
17
100
AcDbEntity
  8
0
100
AcDbLine
 10
27.760456118466692
 20
3.654733382161444
 30
1.0
 11
27.816537812544443
 21
3.200035019071699
 31
1.0
  0
LINE
  5
139
330
17
100
AcDbEntity
  8
0
100
AcDbLine
 10
27.696942279013868
 20
4.108453284750129
 30
1.0
 11
27.760456118466692
 21
3.654733382161444
 31
1.0
  0
LINE
  5
13A
330
17
100
AcDbEntity
  8
0
100
AcDbLine
 10
27.626013298376613
 20
4.561073255048485
 30
1.0
 11
27.696942279013868
 21
4.108453284750129
 31
1.0
  0
LINE
  5
13B
330
17
100
AcDbEntity
  8
0
100
AcDbLine
 10
27.547688165958167
 20
5.012472115745714
 30
1.0
 11
27.626013298376613
 21
4.561073255048485
 31
1.0
  0
LINE
  5
13C
330
17
100
AcDbEntity
  8
0
100
AcDbLine
 10
27.461987851290452
 20
5.462529016451591
 30
1.0
 11
27.547688165958167
 21
5.012472115745714
 31
1.0
  0
LINE
  5
13D
330
17
100
AcDbEntity
  8
0
100
AcDbLine
 10
27.368935298420013
 20
5.911123466051024
 30
1.0
 11
27.461987851290452
 21
5.462529016451591
 31
1.0
  0
LINE
  5
13E
330
17
100
AcDbEntity
  8
0
100
AcDbLine
 10
27.26855541976534
 20
6.35813536496245
 30
1.0
 11
27.368935298420013
 21
5.911123466051024
 31
1.0
  0
LINE
  5
13F
330
17
100
AcDbEntity
  8
0
100
AcDbLine
 10
27.16087508944723
 20
6.803445037291389
 30
1.0
 11
27.26855541976534
 21
6.35813536496245
 31
1.0
  0
LINE
  5
140
330
17
100
AcDbEntity
  8
0
100
AcDbLine
 10
27.04592313609391
 20
7.246933262870581
 30
1.0
 11
27.16087508944723
 21
6.803445037291389
 31
1.0
  0
LINE
  5
141
330
17
100
AcDbEntity
  8
0
100
AcDbLine
 10
38.63703305156273
 20
10.35276180410083
 30
1.0
 11
27.04592313609391
 21
7.246933262870581
 31
1.0
  0
LINE
  5
142
330
17
100
AcDbEntity
  8
0
100
AcDbLine
 10
38.801250127781756
 20
9.719207196130554
 30
1.0
 11
38.63703305156273
 21
10.35276180410083
 31
1.0
  0
LINE
  5
143
330
17
100
AcDbEntity
  8
0
100
AcDbLine
 10
38.955079171093345
 20
9.083050521374929
 30
1.0
 11
38.801250127781756
 21
9.719207196130554
 31
1.0
  0
LINE
  5
144
330
17
100
AcDbEntity
  8
0
100
AcDbLine
 10
39.09847899774287
 20
8.444462094358606
 30
1.0
 11
38.955079171093345
 21
9.083050521374929
 31
1.0
  0
LINE
  5
145
330
17
100
AcDbEntity
  8
0
100
AcDbLine
 10
39.23141121612922
 20
7.8036128806451295
 30
1.0
 11
39.09847899774287
 21
8.444462094358606
 31
1.0
  0
LINE
  5
146
330
17
100
AcDbEntity
  8
0
100
AcDbLine
 10
39.3538402370831
 20
7.160674451065306
 30
1.0
 11
39.23141121612922
 21
7.8036128806451295
 31
1.0
  0
LINE
  5
147
330
17
100
AcDbEntity
  8
0
100
AcDbLine
 10
39.46573328339516
 20
6.51581893578355
 30
1.0
 11
39.3538402370831
 21
7.160674451065306
 31
1.0
  0
LINE
  5
148
330
17
100
AcDbEntity
  8
0
100
AcDbLine
 10
39.56706039859124
 20
5.8692189782144695
 30
1.0
 11
39.46573328339516
 21
6.51581893578355
 31
1.0
  0
LINE
  5
149
330
17
100
AcDbEntity
  8
0
100
AcDbLine
 10
39.657794454952416
 20
5.221047688802063
 30
1.0
 11
39.56706039859124
 21
5.8692189782144695
 31
1.0
  0
LINE
  5
14A
330
17
100
AcDbEntity
  8
0
100
AcDbLine
 10
39.73791116077778
 20
4.571478598673856
 30
1.0
 11
39.657794454952416
 21
5.221047688802063
 31
1.0
  0
LINE
  5
14B
330
17
100
AcDbEntity
  8
0
100
AcDbLine
 10
39.80738906688788
 20
3.920685613182424
 30
1.0
 11
39.73791116077778
 21
4.571478598673856
 31
1.0
  0
LINE
  5
14C
330
17
100
AcDbEntity
  8
0
100
AcDbLine
 10
39.86620957236721
 20
3.268842965346729
 30
1.0
 11
39.80738906688788
 21
3.920685613182424
 31
1.0
  0
LINE
  5
14D
330
17
100
AcDbEntity
  8
0
100
AcDbLine
 10
39.91435692954414
 20
2.6161251692057226
 30
1.0
 11
39.86620957236721
 21
3.268842965346729
 31
1.0
  0
LINE
  5
14E
330
17
100
AcDbEntity
  8
0
100
AcDbLine
 10
39.9518182482069
 20
1.9627069730967206
 30
1.0
 11
39.91435692954414
 21
2.6161251692057226
 31
1.0
  0
LINE
  5
14F
330
17
100
AcDbEntity
  8
0
100
AcDbLine
 10
39.97858349905463
 20
1.3087633128710454
 30
1.0
 11
39.9518182482069
 21
1.9627069730967206
 31
1.0
  0
LINE
  5
150
330
17
100
AcDbEntity
  8
0
100
AcDbLine
 10
39.99464551638247
 20
0.6544692650594712
 30
1.0
 11
39.97858349905463
 21
1.3087633128710454
 31
1.0
  0
LINE
  5
151
330
17
100
AcDbEntity
  8
0
100
AcDbLine
 10
40.0
 20
0.0
 30
1.0
 11
39.99464551638247
 21
0.6544692650594712
 31
1.0
  0
LINE
  5
152
330
17
100
AcDbEntity
  8
0
100
AcDbLine
 10
39.99464551638247
 20
-0.6544692650594712
 30
1.0
 11
40.0
 21
2.5937731156764823e-17
 31
1.0
  0
LINE
  5
153
330
17
100
AcDbEntity
  8
0
100
AcDbLine
 10
39.97858349905463
 20
-1.3087633128710454
 30
1.0
 11
39.99464551638247
 21
-0.6544692650594712
 31
1.0
  0
LINE
  5
154
330
17
100
AcDbEntity
  8
0
100
AcDbLine
 10
39.9518182482069
 20
-1.9627069730967206
 30
1.0
 11
39.97858349905463
 21
-1.3087633128710454
 31
1.0
  0
LINE
  5
155
330
17
100
AcDbEntity
  8
0
100
AcDbLine
 10
39.91435692954414
 20
-2.6161251692057226
 30
1.0
 11
39.9518182482069
 21
-1.9627069730967206
 31
1.0
  0
LINE
  5
156
330
17
100
AcDbEntity
  8
0
100
AcDbLine
 10
39.86620957236721
 20
-3.268842965346729
 30
1.0
 11
39.91435692954414
 21
-2.6161251692057226
 31
1.0
  0
LINE
  5
157
330
17
100
AcDbEntity
  8
0
100
AcDbLine
 10
39.80738906688788
 20
-3.920685613182424
 30
1.0
 11
39.86620957236721
 21
-3.268842965346729
 31
1.0
  0
LINE
  5
158
330
17
100
AcDbEntity
  8
0
100
AcDbLine
 10
39.73791116077778
 20
-4.571478598673856
 30
1.0
 11
39.80738906688788
 21
-3.920685613182424
 31
1.0
  0
LINE
  5
159
330
17
100
AcDbEntity
  8
0
100
AcDbLine
 10
39.657794454952416
 20
-5.221047688802063
 30
1.0
 11
39.73791116077778
 21
-4.571478598673856
 31
1.0
  0
LINE
  5
15A
330
17
100
AcDbEntity
  8
0
100
AcDbLine
 10
39.56706039859124
 20
-5.8692189782144695
 30
1.0
 11
39.657794454952416
 21
-5.221047688802063
 31
1.0
  0
LINE
  5
15B
330
17
100
AcDbEntity
  8
0
100
AcDbLine
 10
39.46573328339516
 20
-6.51581893578355
 30
1.0
 11
39.56706039859124
 21
-5.8692189782144695
 31
1.0
  0
LINE
  5
15C
330
17
100
AcDbEntity
  8
0
100
AcDbLine
 10
39.3538402370831
 20
-7.160674451065306
 30
1.0
 11
39.46573328339516
 21
-6.51581893578355
 31
1.0
  0
LINE
  5
15D
330
17
100
AcDbEntity
  8
0
100
AcDbLine
 10
39.23141121612922
 20
-7.8036128806451295
 30
1.0
 11
39.3538402370831
 21
-7.160674451065306
 31
1.0
  0
LINE
  5
15E
330
17
100
AcDbEntity
  8
0
100
AcDbLine
 10
39.09847899774287
 20
-8.444462094358606
 30
1.0
 11
39.23141121612922
 21
-7.8036128806451295
 31
1.0
  0
LINE
  5
15F
330
17
100
AcDbEntity
  8
0
100
AcDbLine
 10
38.955079171093345
 20
-9.083050521374929
 30
1.0
 11
39.09847899774287
 21
-8.444462094358606
 31
1.0
  0
LINE
  5
160
330
17
100
AcDbEntity
  8
0
100
AcDbLine
 10
38.801250127781756
 20
-9.719207196130554
 30
1.0
 11
38.955079171093345
 21
-9.083050521374929
 31
1.0
  0
LINE
  5
161
330
17
100
AcDbEntity
  8
0
100
AcDbLine
 10
-38.637033051562724
 20
10.35276180410084
 30
1.0
 11
-38.801250127781756
 21
9.719207196130563
 31
1.0
  0
LINE
  5
162
330
17
100
AcDbEntity
  8
0
100
AcDbLine
 10
-27.04592313609391
 20
7.246933262870589
 30
1.0
 11
-38.637033051562724
 21
10.35276180410084
 31
1.0
  0
LINE
  5
163
330
17
100
AcDbEntity
  8
0
100
AcDbLine
 10
-27.16087508944723
 20
6.803445037291394
 30
1.0
 11
-27.04592313609391
 21
7.246933262870589
 31
1.0
  0
LINE
  5
164
330
17
100
AcDbEntity
  8
0
100
AcDbLine
 10
-27.26855541976534
 20
6.358135364962452
 30
1.0
 11
-27.16087508944723
 21
6.803445037291394
 31
1.0
  0
LINE
  5
165
330
17
100
AcDbEntity
  8
0
100
AcDbLine
 10
-27.36893529842001
 20
5.911123466051037
 30
1.0
 11
-27.26855541976534
 21
6.358135364962452
 31
1.0
  0
LINE
  5
166
330
17
100
AcDbEntity
  8
0
100
AcDbLine
 10
-27.461987851290452
 20
5.4625290164515885
 30
1.0
 11
-27.36893529842001
 21
5.911123466051037
 31
1.0
  0
LINE
  5
167
330
17
100
AcDbEntity
  8
0
100
AcDbLine
 10
-27.54768816595817
 20
5.01247211574571
 30
1.0
 11
-27.461987851290452
 21
5.4625290164515885
 31
1.0
  0
LINE
  5
168
330
17
100
AcDbEntity
  8
0
100
AcDbLine
 10
-27.626013298376613
 20
4.561073255048489
 30
1.0
 11
-27.54768816595817
 21
5.01247211574571
 31
1.0
  0
LINE
  5
169
330
17
100
AcDbEntity
  8
0
100
AcDbLine
 10
-27.696942279013864
 20
4.1084532847501425
 30
1.0
 11
-27.626013298376613
 21
4.561073255048489
 31
1.0
  0
LINE
  5
16A
330
17
100
AcDbEntity
  8
0
100
AcDbLine
 10
-27.760456118466692
 20
3.654733382161444
 30
1.0
 11
-27.696942279013864
 21
4.1084532847501425
 31
1.0
  0
LINE
  5
16B
330
17
100
AcDbEntity
  8
0
100
AcDbLine
 10
-27.816537812544443
 20
3.2000350190716955
 30
1.0
 11
-27.760456118466692
 21
3.654733382161444
 31
1.0
  0
LINE
  5
16C
330
17
100
AcDbEntity
  8
0
100
AcDbLine
 10
-27.86517234682151
 20
2.744479929227703
 30
1.0
 11
-27.816537812544443
 21
3.2000350190716955
 31
1.0
  0
LINE
  5
16D
330
17
100
AcDbEntity
  8
0
100
AcDbLine
 10
-27.90634670065705
 20
2.2881900757427265
 30
1.0
 11
-27.86517234682151
 21
2.744479929227703
 31
1.0
  0
LINE
  5
16E
330
17
100
AcDbEntity
  8
0
100
AcDbLine
 10
-27.940049850680897
 20
1.8312876184440072
 30
1.0
 11
-27.90634670065705
 21
2.2881900757427265
 31
1.0
  0
LINE
  5
16F
330
17
100
AcDbEntity
  8
0
100
AcDbLine
 10
-27.966272773744826
 20
1.373894881167703
 30
1.0
 11
-27.940049850680897
 21
1.8312876184440072
 31
1.0
  0
LINE
  5
170
330
17
100
AcDbEntity
  8
0
100
AcDbLine
 10
-27.98500844933824
 20
0.9161343190097406
 30
1.0
 11
-27.966272773744826
 21
1.373894881167703
 31
1.0
  0
LINE
  5
171
330
17
100
AcDbEntity
  8
0
100
AcDbLine
 10
-27.99625186146773
 20
0.45812848554162344
 30
1.0
 11
-27.98500844933824
 21
0.9161343190097406
 31
1.0
  0
LINE
  5
172
330
17
100
AcDbEntity
  8
0
100
AcDbLine
 10
-28.0
 20
3.429011037612589e-15
 30
1.0
 11
-27.99625186146773
 21
0.45812848554162344
 31
1.0
  0
LINE
  5
173
330
17
100
AcDbEntity
  8
0
100
AcDbLine
 10
-27.99625186146773
 20
-0.45812848554162905
 30
1.0
 11
-28.0
 21
3.448657872537018e-15
 31
1.0
  0
LINE
  5
174
330
17
100
AcDbEntity
  8
0
100
AcDbLine
 10
-27.98500844933824
 20
-0.9161343190097213
 30
1.0
 11
-27.99625186146773
 21
-0.45812848554162905
 31
1.0
  0
LINE
  5
175
330
17
100
AcDbEntity
  8
0
100
AcDbLine
 10
-27.966272773744826
 20
-1.3738948811677087
 30
1.0
 11
-27.98500844933824
 21
-0.9161343190097213
 31
1.0
  0
LINE
  5
176
330
17
100
AcDbEntity
  8
0
100
AcDbLine
 10
-27.940049850680897
 20
-1.8312876184440003
 30
1.0
 11
-27.966272773744826
 21
-1.3738948811677087
 31
1.0
  0
LINE
  5
177
330
17
100
AcDbEntity
  8
0
100
AcDbLine
 10
-27.90634670065705
 20
-2.2881900757427074
 30
1.0
 11
-27.940049850680897
 21
-1.8312876184440003
 31
1.0
  0
LINE
  5
178
330
17
100
AcDbEntity
  8
0
100
AcDbLine
 10
-27.865172346821513
 20
-2.7444799292276967
 30
1.0
 11
-27.90634670065705
 21
-2.2881900757427074
 31
1.0
  0
LINE
  5
179
330
17
100
AcDbEntity
  8
0
100
AcDbLine
 10
-27.816537812544443
 20
-3.2000350190717013
 30
1.0
 11
-27.865172346821513
 21
-2.7444799292276967
 31
1.0
  0
LINE
  5
17A
330
17
100
AcDbEntity
  8
0
100
AcDbLine
 10
-27.760456118466692
 20
-3.654733382161437
 30
1.0
 11
-27.816537812544443
 21
-3.2000350190717013
 31
1.0
  0
LINE
  5
17B
330
17
100
AcDbEntity
  8
0
100
AcDbLine
 10
-27.696942279013868
 20
-4.108453284750125
 30
1.0
 11
-27.760456118466692
 21
-3.654733382161437
 31
1.0
  0
LINE
  5
17C
330
17
100
AcDbEntity
  8
0
100
AcDbLine
 10
-27.626013298376613
 20
-4.561073255048482
 30
1.0
 11
-27.696942279013868
 21
-4.108453284750125
 31
1.0
  0
LINE
  5
17D
330
17
100
AcDbEntity
  8
0
100
AcDbLine
 10
-27.547688165958167
 20
-5.012472115745715
 30
1.0
 11
-27.626013298376613
 21
-4.561073255048482
 31
1.0
  0
LINE
  5
17E
330
17
100
AcDbEntity
  8
0
100
AcDbLine
 10
-27.461987851290456
 20
-5.462529016451581
 30
1.0
 11
-27.547688165958167
 21
-5.012472115745715
 31
1.0
  0
LINE
  5
17F
330
17
100
AcDbEntity
  8
0
100
AcDbLine
 10
-27.368935298420013
 20
-5.911123466051018
 30
1.0
 11
-27.461987851290456
 21
-5.462529016451581
 31
1.0
  0
LINE
  5
180
330
17
100
AcDbEntity
  8
0
100
AcDbLine
 10
-27.26855541976534
 20
-6.358135364962445
 30
1.0
 11
-27.368935298420013
 21
-5.911123466051018
 31
1.0
  0
LINE
  5
181
330
17
100
AcDbEntity
  8
0
100
AcDbLine
 10
-27.16087508944723
 20
-6.803445037291387
 30
1.0
 11
-27.26855541976534
 21
-6.358135364962445
 31
1.0
  0
LINE
  5
182
330
17
100
AcDbEntity
  8
0
100
AcDbLine
 10
-27.045923136093915
 20
-7.24693326287057
 30
1.0
 11
-27.16087508944723
 21
-6.803445037291387
 31
1.0
  0
LINE
  5
183
330
17
100
AcDbEntity
  8
0
100
AcDbLine
 10
-38.63703305156274
 20
-10.352761804100814
 30
1.0
 11
-27.045923136093915
 21
-7.24693326287057
 31
1.0
  0
LINE
  5
184
330
17
100
AcDbEntity
  8
0
100
AcDbLine
 10
-38.801250127781756
 20
-9.719207196130553
 30
1.0
 11
-38.63703305156274
 21
-10.352761804100814
 31
1.0
  0
LINE
  5
185
330
17
100
AcDbEntity
  8
0
100
AcDbLine
 10
-38.955079171093345
 20
-9.083050521374922
 30
1.0
 11
-38.801250127781756
 21
-9.719207196130553
 31
1.0
  0
LINE
  5
186
330
17
100
AcDbEntity
  8
0
100
AcDbLine
 10
-39.09847899774287
 20
-8.444462094358597
 30
1.0
 11
-38.955079171093345
 21
-9.083050521374922
 31
1.0
  0
LINE
  5
187
330
17
100
AcDbEntity
  8
0
100
AcDbLine
 10
-39.231411216129224
 20
-7.803612880645117
 30
1.0
 11
-39.09847899774287
 21
-8.444462094358597
 31
1.0
  0
LINE
  5
188
330
17
100
AcDbEntity
  8
0
100
AcDbLine
 10
-39.3538402370831
 20
-7.160674451065308
 30
1.0
 11
-39.231411216129224
 21
-7.803612880645117
 31
1.0
  0
LINE
  5
189
330
17
100
AcDbEntity
  8
0
100
AcDbLine
 10
-39.46573328339516
 20
-6.515818935783546
 30
1.0
 11
-39.3538402370831
 21
-7.160674451065308
 31
1.0
  0
LINE
  5
18A
330
17
100
AcDbEntity
  8
0
100
AcDbLine
 10
-39.56706039859124
 20
-5.869218978214463
 30
1.0
 11
-39.46573328339516
 21
-6.515818935783546
 31
1.0
  0
LINE
  5
18B
330
17
100
AcDbEntity
  8
0
100
AcDbLine
 10
-39.65779445495242
 20
-5.221047688802053
 30
1.0
 11
-39.56706039859124
 21
-5.869218978214463
 31
1.0
  0
LINE
  5
18C
330
17
100
AcDbEntity
  8
0
100
AcDbLine
 10
-39.73791116077778
 20
-4.571478598673859
 30
1.0
 11
-39.65779445495242
 21
-5.221047688802053
 31
1.0
  0
LINE
  5
18D
330
17
100
AcDbEntity
  8
0
100
AcDbLine
 10
-39.80738906688788
 20
-3.9206856131824237
 30
1.0
 11
-39.73791116077778
 21
-4.571478598673859
 31
1.0
  0
LINE
  5
18E
330
17
100
AcDbEntity
  8
0
100
AcDbLine
 10
-39.86620957236721
 20
-3.268842965346725
 30
1.0
 11
-39.80738906688788
 21
-3.9206856131824237
 31
1.0
  0
LINE
  5
18F
330
17
100
AcDbEntity
  8
0
100
AcDbLine
 10
-39.91435692954414
 20
-2.6161251692057146
 30
1.0
 11
-39.86620957236721
 21
-3.268842965346725
 31
1.0
  0
LINE
  5
190
330
17
100
AcDbEntity
  8
0
100
AcDbLine
 10
-39.9518182482069
 20
-1.9627069730967266
 30
1.0
 11
-39.91435692954414
 21
-2.6161251692057146
 31
1.0
  0
LINE
  5
191
330
17
100
AcDbEntity
  8
0
100
AcDbLine
 10
-39.97858349905463
 20
-1.3087633128710305
 30
1.0
 11
-39.9518182482069
 21
-1.9627069730967266
 31
1.0
  0
LINE
  5
192
330
17
100
AcDbEntity
  8
0
100
AcDbLine
 10
-39.99464551638247
 20
-0.6544692650594701
 30
1.0
 11
-39.97858349905463
 21
-1.3087633128710305
 31
1.0
  0
LINE
  5
193
330
17
100
AcDbEntity
  8
0
100
AcDbLine
 10
-40.0
 20
4.898587196589413e-15
 30
1.0
 11
-39.99464551638247
 21
-0.6544692650594701
 31
1.0
  0
LINE
  5
194
330
17
100
AcDbEntity
  8
0
100
AcDbLine
 10
-39.99464551638247
 20
0.654469265059462
 30
1.0
 11
-40.0
 21
4.858571711037769e-15
 31
1.0
  0
LINE
  5
195
330
17
100
AcDbEntity
  8
0
100
AcDbLine
 10
-39.97858349905463
 20
1.3087633128710578
 30
1.0
 11
-39.99464551638247
 21
0.654469265059462
 31
1.0
  0
LINE
  5
196
330
17
100
AcDbEntity
  8
0
100
AcDbLine
 10
-39.9518182482069
 20
1.9627069730967186
 30
1.0
 11
-39.97858349905463
 21
1.3087633128710578
 31
1.0
  0
LINE
  5
197
330
17
100
AcDbEntity
  8
0
100
AcDbLine
 10
-39.91435692954414
 20
2.616125169205725
 30
1.0
 11
-39.9518182482069
 21
1.9627069730967186
 31
1.0
  0
LINE
  5
198
330
17
100
AcDbEntity
  8
0
100
AcDbLine
 10
-39.86620957236721
 20
3.268842965346752
 30
1.0
 11
-39.91435692954414
 21
2.616125169205725
 31
1.0
  0
LINE
  5
199
330
17
100
AcDbEntity
  8
0
100
AcDbLine
 10
-39.80738906688787
 20
3.920685613182433
 30
1.0
 11
-39.86620957236721
 21
3.268842965346752
 31
1.0
  0
LINE
  5
19A
330
17
100
AcDbEntity
  8
0
100
AcDbLine
 10
-39.73791116077778
 20
4.571478598673851
 30
1.0
 11
-39.80738906688787
 21
3.920685613182433
 31
1.0
  0
LINE
  5
19B
330
17
100
AcDbEntity
  8
0
100
AcDbLine
 10
-39.657794454952416
 20
5.221047688802063
 30
1.0
 11
-39.73791116077778
 21
4.571478598673851
 31
1.0
  0
LINE
  5
19C
330
17
100
AcDbEntity
  8
0
100
AcDbLine
 10
-39.56706039859124
 20
5.86921897821449
 30
1.0
 11
-39.657794454952416
 21
5.221047688802063
 31
1.0
  0
LINE
  5
19D
330
17
100
AcDbEntity
  8
0
100
AcDbLine
 10
-39.46573328339516
 20
6.515818935783556
 30
1.0
 11
-39.56706039859124
 21
5.86921897821449
 31
1.0
  0
LINE
  5
19E
330
17
100
AcDbEntity
  8
0
100
AcDbLine
 10
-39.3538402370831
 20
7.1606744510653
 30
1.0
 11
-39.46573328339516
 21
6.515818935783556
 31
1.0
  0
LINE
  5
19F
330
17
100
AcDbEntity
  8
0
100
AcDbLine
 10
-39.23141121612922
 20
7.803612880645127
 30
1.0
 11
-39.3538402370831
 21
7.1606744510653
 31
1.0
  0
LINE
  5
1A0
330
17
100
AcDbEntity
  8
0
100
AcDbLine
 10
-39.09847899774287
 20
8.444462094358624
 30
1.0
 11
-39.23141121612922
 21
7.803612880645127
 31
1.0
  0
LINE
  5
1A1
330
17
100
AcDbEntity
  8
0
100
AcDbLine
 10
-38.955079171093345
 20
9.08305052137493
 30
1.0
 11
-39.09847899774287
 21
8.444462094358624
 31
1.0
  0
LINE
  5
1A2
330
17
100
AcDbEntity
  8
0
100
AcDbLine
 10
-38.801250127781756
 20
9.719207196130563
 30
1.0
 11
-38.955079171093345
 21
9.08305052137493
 31
1.0
  0
LINE
  5
1A3
330
17
100
AcDbEntity
  8
0
100
AcDbLine
 10
-32.62423899588412
 20
17.324521059453104
 30
1.0
 11
-60.60758654083831
 21
29.202747365527028
 31
1.0
  0
LINE
  5
1A4
330
17
100
AcDbEntity
  8
0
100
AcDbLine
 10
-34.00006141457222
 20
14.083286559433382
 30
1.0
 11
-32.62423899588412
 21
17.324521059453108
 31
1.0
  0
LINE
  5
1A5
330
17
100
AcDbEntity
  8
0
100
AcDbLine
 10
-35.3191069469887
 20
10.81853430309185
 30
1.0
 11
-34.000061414572215
 21
14.083286559433379
 31
1.0
  0
LINE
  5
1A6
330
17
100
AcDbEntity
  8
0
100
AcDbLine
 10
-63.50549612581903
 20
22.206574742935583
 30
1.0
 11
-35.31910694698869
 21
10.818534303091852
 31
1.0
  0
LINE
  5
1A7
330
17
100
AcDbEntity
  8
0
100
AcDbLine
 10
-63.06627254971257
 20
23.29369124186716
 30
1.0
 11
-63.50549612581903
 21
22.20657474293558
 31
1.0
  0
LINE
  5
1A8
330
17
100
AcDbEntity
  8
0
100
AcDbLine
 10
-63.10826576316966
 20
23.31151630343141
 30
1.0
 11
-63.06627254971257
 21
23.293691241867162
 31
1.0
  0
LINE
  5
1A9
330
17
100
AcDbEntity
  8
0
100
AcDbLine
 10
-62.08706867008819
 20
25.71730589113973
 30
1.0
 11
-63.10826576316966
 21
23.311516303431407
 31
1.0
  0
LINE
  5
1AA
330
17
100
AcDbEntity
  8
0
100
AcDbLine
 10
-61.10801392795719
 20
28.14055141216302
 30
1.0
 11
-62.08706867008818
 21
25.717305891139723
 31
1.0
  0
LINE
  5
1AB
330
17
100
AcDbEntity
  8
0
100
AcDbLine
 10
-61.06571602005073
 20
28.12346194807085
 30
1.0
 11
-61.108013927957195
 21
28.14055141216302
 31
1.0
  0
LINE
  5
1AC
330
17
100
AcDbEntity
  8
0
100
AcDbLine
 10
-60.60758654083831
 20
29.202747365527028
 30
1.0
 11
-61.06571602005073
 21
28.123461948070847
 31
1.0
  0
LINE
  5
1AD
330
17
100
AcDbEntity
  8
0
100
AcDbLine
 10
-19.999999999999993
 20
34.64101615137755
 30
1.0
 11
-20.564109767728866
 21
34.30914440001089
 31
1.0
  0
LINE
  5
1AE
330
17
100
AcDbEntity
  8
0
100
AcDbLine
 10
-13.999999999999995
 20
24.248711305964285
 30
1.0
 11
-19.999999999999993
 21
34.64101615137755
 31
1.0
  0
LINE
  5
1AF
330
17
100
AcDbEntity
  8
0
100
AcDbLine
 10
-14.394876837410207
 20
24.01640108000762
 30
1.0
 11
-13.999999999999995
 21
24.248711305964285
 31
1.0
  0
LINE
  5
1B0
330
17
100
AcDbEntity
  8
0
100
AcDbLine
 10
-14.785899818210304
 20
23.77766108274421
 30
1.0
 11
-14.394876837410207
 21
24.01640108000762
 31
1.0
  0
LINE
  5
1B1
330
17
100
AcDbEntity
  8
0
100
AcDbLine
 10
-15.17296425609305
 20
23.532555230644263
 30
1.0
 11
-14.785899818210304
 21
23.77766108274421
 31
1.0
  0
LINE
  5
1B2
330
17
100
AcDbEntity
  8
0
100
AcDbLine
 10
-15.555966524548868
 20
23.281149144471264
 30
1.0
 11
-15.17296425609305
 21
23.532555230644263
 31
1.0
  0
LINE
  5
1B3
330
17
100
AcDbEntity
  8
0
100
AcDbLine
 10
-15.934804084609144
 20
23.023510131713707
 30
1.0
 11
-15.555966524548868
 21
23.281149144471264
 31
1.0
  0
LINE
  5
1B4
330
17
100
AcDbEntity
  8
0
100
AcDbLine
 10
-16.30937551229846
 20
22.759707168565228
 30
1.0
 11
-15.934804084609144
 21
23.023510131713707
 31
1.0
  0
LINE
  5
1B5
330
17
100
AcDbEntity
  8
0
100
AcDbLine
 10
-16.679580525788133
 20
22.48981088145806
 30
1.0
 11
-16.30937551229846
 21
22.759707168565228
 31
1.0
  0
LINE
  5
1B6
330
17
100
AcDbEntity
  8
0
100
AcDbLine
 10
-17.04532001224418
 20
22.213893528154586
 30
1.0
 11
-16.679580525788133
 21
22.48981088145806
 31
1.0
  0
LINE
  5
1B7
330
17
100
AcDbEntity
  8
0
100
AcDbLine
 10
-17.40649605436216
 20
21.932028978402215
 30
1.0
 11
-17.04532001224418
 21
22.213893528154586
 31
1.0
  0
LINE
  5
1B8
330
17
100
AcDbEntity
  8
0
100
AcDbLine
 10
-17.76301195658207
 20
21.64429269415664
 30
1.0
 11
-17.40649605436216
 21
21.932028978402215
 31
1.0
  0
LINE
  5
1B9
330
17
100
AcDbEntity
  8
0
100
AcDbLine
 10
-18.114772270976005
 20
21.35076170937887
 30
1.0
 11
-17.76301195658207
 21
21.64429269415664
 31
1.0
  0
LINE
  5
1BA
330
17
100
AcDbEntity
  8
0
100
AcDbLine
 10
-18.461682822801926
 20
21.051514609411367
 30
1.0
 11
-18.114772270976005
 21
21.35076170937887
 31
1.0
  0
LINE
  5
1BB
330
17
100
AcDbEntity
  8
0
100
AcDbLine
 10
-18.803650735716516
 20
20.746631509938855
 30
1.0
 11
-18.461682822801926
 21
21.051514609411367
 31
1.0
  0
LINE
  5
1BC
330
17
100
AcDbEntity
  8
0
100
AcDbLine
 10
-19.14058445664039
 20
20.4361940355394
 30
1.0
 11
-18.803650735716516
 21
20.746631509938855
 31
1.0
  0
LINE
  5
1BD
330
17
100
AcDbEntity
  8
0
100
AcDbLine
 10
-19.472393780269122
 20
20.12028529783155
 30
1.0
 11
-19.14058445664039
 21
20.4361940355394
 31
1.0
  0
LINE
  5
1BE
330
17
100
AcDbEntity
  8
0
100
AcDbLine
 10
-19.798989873223327
 20
19.79898987322333
 30
1.0
 11
-19.472393780269122
 21
20.12028529783155
 31
1.0
  0
LINE
  5
1BF
330
17
100
AcDbEntity
  8
0
100
AcDbLine
 10
-20.120285297831547
 20
19.472393780269126
 30
1.0
 11
-19.798989873223327
 21
19.79898987322333
 31
1.0
  0
LINE
  5
1C0
330
17
100
AcDbEntity
  8
0
100
AcDbLine
 10
-20.43619403553939
 20
19.140584456640404
 30
1.0
 11
-20.120285297831547
 21
19.472393780269126
 31
1.0
  0
LINE
  5
1C1
330
17
100
AcDbEntity
  8
0
100
AcDbLine
 10
-20.746631509938847
 20
18.80365073571652
 30
1.0
 11
-20.43619403553939
 21
19.140584456640404
 31
1.0
  0
LINE
  5
1C2
330
17
100
AcDbEntity
  8
0
100
AcDbLine
 10
-21.051514609411374
 20
18.461682822801922
 30
1.0
 11
-20.746631509938847
 21
18.80365073571652
 31
1.0
  0
LINE
  5
1C3
330
17
100
AcDbEntity
  8
0
100
AcDbLine
 10
-21.350761709378865
 20
18.114772270976008
 30
1.0
 11
-21.051514609411374
 21
18.461682822801922
 31
1.0
  0
LINE
  5
1C4
330
17
100
AcDbEntity
  8
0
100
AcDbLine
 10
-21.644292694156636
 20
17.763011956582073
 30
1.0
 11
-21.350761709378865
 21
18.114772270976008
 31
1.0
  0
LINE
  5
1C5
330
17
100
AcDbEntity
  8
0
100
AcDbLine
 10
-21.932028978402204
 20
17.406496054362172
 30
1.0
 11
-21.644292694156636
 21
17.763011956582073
 31
1.0
  0
LINE
  5
1C6
330
17
100
AcDbEntity
  8
0
100
AcDbLine
 10
-22.21389352815459
 20
17.045320012244172
 30
1.0
 11
-21.932028978402204
 21
17.406496054362172
 31
1.0
  0
LINE
  5
1C7
330
17
100
AcDbEntity
  8
0
100
AcDbLine
 10
-22.489810881458055
 20
16.679580525788136
 30
1.0
 11
-22.21389352815459
 21
17.045320012244172
 31
1.0
  0
LINE
  5
1C8
330
17
100
AcDbEntity
  8
0
100
AcDbLine
 10
-22.759707168565225
 20
16.30937551229846
 30
1.0
 11
-22.489810881458055
 21
16.679580525788136
 31
1.0
  0
LINE
  5
1C9
330
17
100
AcDbEntity
  8
0
100
AcDbLine
 10
-23.023510131713696
 20
15.93480408460916
 30
1.0
 11
-22.759707168565225
 21
16.30937551229846
 31
1.0
  0
LINE
  5
1CA
330
17
100
AcDbEntity
  8
0
100
AcDbLine
 10
-23.28114914447127
 20
15.555966524548861
 30
1.0
 11
-23.023510131713696
 21
15.93480408460916
 31
1.0
  0
LINE
  5
1CB
330
17
100
AcDbEntity
  8
0
100
AcDbLine
 10
-23.53255523064426
 20
15.172964256093055
 30
1.0
 11
-23.28114914447127
 21
15.555966524548861
 31
1.0
  0
LINE
  5
1CC
330
17
100
AcDbEntity
  8
0
100
AcDbLine
 10
-23.777661082744206
 20
14.785899818210307
 30
1.0
 11
-23.53255523064426
 21
15.172964256093055
 31
1.0
  0
LINE
  5
1CD
330
17
100
AcDbEntity
  8
0
100
AcDbLine
 10
-24.016401080007615
 20
14.394876837410209
 30
1.0
 11
-23.777661082744206
 21
14.785899818210307
 31
1.0
  0
LINE
  5
1CE
330
17
100
AcDbEntity
  8
0
100
AcDbLine
 10
-24.248711305964285
 20
13.999999999999998
 30
1.0
 11
-24.016401080007615
 21
14.394876837410209
 31
1.0
  0
LINE
  5
1CF
330
17
100
AcDbEntity
  8
0
100
AcDbLine
 10
-34.64101615137755
 20
19.999999999999996
 30
1.0
 11
-24.248711305964285
 21
13.999999999999998
 31
1.0
  0
LINE
  5
1D0
330
17
100
AcDbEntity
  8
0
100
AcDbLine
 10
-34.30914440001088
 20
20.564109767728873
 30
1.0
 11
-34.64101615137755
 21
19.999999999999996
 31
1.0
  0
LINE
  5
1D1
330
17
100
AcDbEntity
  8
0
100
AcDbLine
 10
-33.968087261063154
 20
21.122714026014723
 30
1.0
 11
-34.30914440001088
 21
20.564109767728873
 31
1.0
  0
LINE
  5
1D2
330
17
100
AcDbEntity
  8
0
100
AcDbLine
 10
-33.61793604377751
 20
21.675663222990078
 30
1.0
 11
-33.968087261063154
 21
21.122714026014723
 31
1.0
  0
LINE
  5
1D3
330
17
100
AcDbEntity
  8
0
100
AcDbLine
 10
-33.25878449210181
 20
22.222809320784087
 30
1.0
 11
-33.61793604377751
 21
21.675663222990078
 31
1.0
  0
LINE
  5
1D4
330
17
100
AcDbEntity
  8
0
100
AcDbLine
 10
-32.89072875959099
 20
22.764005835155942
 30
1.0
 11
-33.25878449210181
 21
22.222809320784087
 31
1.0
  0
LINE
  5
1D5
330
17
100
AcDbEntity
  8
0
100
AcDbLine
 10
-32.5138673836646
 20
23.299107874712085
 30
1.0
 11
-32.89072875959099
 21
22.764005835155942
 31
1.0
  0
LINE
  5
1D6
330
17
100
AcDbEntity
  8
0
100
AcDbLine
 10
-32.12830125922579
 20
23.82797217969734
 30
1.0
 11
-32.5138673836646
 21
23.299107874712085
 31
1.0
  0
LINE
  5
1D7
330
17
100
AcDbEntity
  8
0
100
AcDbLine
 10
-31.734133611649412
 20
24.350457160348817
 30
1.0
 11
-32.12830125922579
 21
23.82797217969734
 31
1.0
  0
LINE
  5
1D8
330
17
100
AcDbEntity
  8
0
100
AcDbLine
 10
-31.331469969146006
 20
24.866422934803104
 30
1.0
 11
-31.734133611649412
 21
24.350457160348817
 31
1.0
  0
LINE
  5
1D9
330
17
100
AcDbEntity
  8
0
100
AcDbLine
 10
-30.92041813450948
 20
25.37573136654582
 30
1.0
 11
-31.331469969146006
 21
24.866422934803104
 31
1.0
  0
LINE
  5
1DA
330
17
100
AcDbEntity
  8
0
100
AcDbLine
 10
-30.501088156255523
 20
25.878246101394296
 30
1.0
 11
-30.92041813450948
 21
25.37573136654582
 31
1.0
  0
LINE
  5
1DB
330
17
100
AcDbEntity
  8
0
100
AcDbLine
 10
-30.073592299159102
 20
26.373832604002743
 30
1.0
 11
-30.501088156255523
 21
25.878246101394296
 31
1.0
  0
LINE
  5
1DC
330
17
100
AcDbEntity
  8
0
100
AcDbLine
 10
-29.638045014198354
 20
26.86235819388074
 30
1.0
 11
-30.073592299159102
 21
26.373832604002743
 31
1.0
  0
LINE
  5
1DD
330
17
100
AcDbEntity
  8
0
100
AcDbLine
 10
-29.194562907913415
 20
27.343692080914863
 30
1.0
 11
-29.638045014198354
 21
26.86235819388074
 31
1.0
  0
LINE
  5
1DE
330
17
100
AcDbEntity
  8
0
100
AcDbLine
 10
-28.743264711187923
 20
27.81770540038447
 30
1.0
 11
-29.194562907913415
 21
27.343692080914863
 31
1.0
  0
LINE
  5
1DF
330
17
100
AcDbEntity
  8
0
100
AcDbLine
 10
-28.2842712474619
 20
28.284271247461902
 30
1.0
 11
-28.743264711187923
 21
27.81770540038447
 31
1.0
  0
LINE
  5
1E0
330
17
100
AcDbEntity
  8
0
100
AcDbLine
 10
-27.81770540038446
 20
28.743264711187926
 30
1.0
 11
-28.2842712474619
 21
28.284271247461902
 31
1.0
  0
LINE
  5
1E1
330
17
100
AcDbEntity
  8
0
100
AcDbLine
 10
-27.343692080914845
 20
29.194562907913433
 30
1.0
 11
-27.81770540038446
 21
28.743264711187926
 31
1.0
  0
LINE
  5
1E2
330
17
100
AcDbEntity
  8
0
100
AcDbLine
 10
-26.862358193880738
 20
29.638045014198365
 30
1.0
 11
-27.343692080914845
 21
29.194562907913433
 31
1.0
  0
LINE
  5
1E3
330
17
100
AcDbEntity
  8
0
100
AcDbLine
 10
-26.373832604002754
 20
30.073592299159095
 30
1.0
 11
-26.862358193880738
 21
29.638045014198365
 31
1.0
  0
LINE
  5
1E4
330
17
100
AcDbEntity
  8
0
100
AcDbLine
 10
-25.87824610139429
 20
30.501088156255527
 30
1.0
 11
-26.373832604002754
 21
30.073592299159095
 31
1.0
  0
LINE
  5
1E5
330
17
100
AcDbEntity
  8
0
100
AcDbLine
 10
-25.375731366545814
 20
30.920418134509482
 30
1.0
 11
-25.87824610139429
 21
30.501088156255527
 31
1.0
  0
LINE
  5
1E6
330
17
100
AcDbEntity
  8
0
100
AcDbLine
 10
-24.866422934803087
 20
31.331469969146024
 30
1.0
 11
-25.375731366545814
 21
30.920418134509482
 31
1.0
  0
LINE
  5
1E7
330
17
100
AcDbEntity
  8
0
100
AcDbLine
 10
-24.350457160348824
 20
31.734133611649405
 30
1.0
 11
-24.866422934803087
 21
31.331469969146024
 31
1.0
  0
LINE
  5
1E8
330
17
100
AcDbEntity
  8
0
100
AcDbLine
 10
-23.827972179697333
 20
32.1283012592258
 30
1.0
 11
-24.350457160348824
 21
31.734133611649405
 31
1.0
  0
LINE
  5
1E9
330
17
100
AcDbEntity
  8
0
100
AcDbLine
 10
-23.29910787471208
 20
32.51386738366461
 30
1.0
 11
-23.827972179697333
 21
32.1283012592258
 31
1.0
  0
LINE
  5
1EA
330
17
100
AcDbEntity
  8
0
100
AcDbLine
 10
-22.76400583515592
 20
32.890728759591006
 30
1.0
 11
-23.29910787471208
 21
32.51386738366461
 31
1.0
  0
LINE
  5
1EB
330
17
100
AcDbEntity
  8
0
100
AcDbLine
 10
-22.222809320784094
 20
33.2587844921018
 30
1.0
 11
-22.76400583515592
 21
32.890728759591006
 31
1.0
  0
LINE
  5
1EC
330
17
100
AcDbEntity
  8
0
100
AcDbLine
 10
-21.675663222990067
 20
33.61793604377752
 30
1.0
 11
-22.222809320784094
 21
33.2587844921018
 31
1.0
  0
LINE
  5
1ED
330
17
100
AcDbEntity
  8
0
100
AcDbLine
 10
-21.12271402601472
 20
33.968087261063154
 30
1.0
 11
-21.675663222990067
 21
33.61793604377752
 31
1.0
  0
LINE
  5
1EE
330
17
100
AcDbEntity
  8
0
100
AcDbLine
 10
-20.564109767728866
 20
34.30914440001089
 30
1.0
 11
-21.12271402601472
 21
33.968087261063154
 31
1.0
  0
LINE
  5
1EF
330
17
100
AcDbEntity
  8
0
100
AcDbLine
 10
10.35276180410083
 20
38.63703305156273
 30
1.0
 11
9.71920719613056
 21
38.801250127781756
 31
1.0
  0
LINE
  5
1F0
330
17
100
AcDbEntity
  8
0
100
AcDbLine
 10
7.246933262870581
 20
27.04592313609391
 30
1.0
 11
10.35276180410083
 21
38.63703305156273
 31
1.0
  0
LINE
  5
1F1
330
17
100
AcDbEntity
  8
0
100
AcDbLine
 10
6.803445037291391
 20
27.16087508944723
 30
1.0
 11
7.246933262870581
 21
27.04592313609391
 31
1.0
  0
LINE
  5
1F2
330
17
100
AcDbEntity
  8
0
100
AcDbLine
 10
6.35813536496245
 20
27.26855541976534
 30
1.0
 11
6.803445037291391
 21
27.16087508944723
 31
1.0
  0
LINE
  5
1F3
330
17
100
AcDbEntity
  8
0
100
AcDbLine
 10
5.911123466051029
 20
27.36893529842001
 30
1.0
 11
6.35813536496245
 21
27.26855541976534
 31
1.0
  0
LINE
  5
1F4
330
17
100
AcDbEntity
  8
0
100
AcDbLine
 10
5.462529016451593
 20
27.461987851290452
 30
1.0
 11
5.911123466051029
 21
27.36893529842001
 31
1.0
  0
LINE
  5
1F5
330
17
100
AcDbEntity
  8
0
100
AcDbLine
 10
5.012472115745714
 20
27.547688165958167
 30
1.0
 11
5.462529016451593
 21
27.461987851290452
 31
1.0
  0
LINE
  5
1F6
330
17
100
AcDbEntity
  8
0
100
AcDbLine
 10
4.561073255048487
 20
27.626013298376613
 30
1.0
 11
5.012472115745714
 21
27.547688165958167
 31
1.0
  0
LINE
  5
1F7
330
17
100
AcDbEntity
  8
0
100
AcDbLine
 10
4.108453284750129
 20
27.696942279013868
 30
1.0
 11
4.561073255048487
 21
27.626013298376613
 31
1.0
  0
LINE
  5
1F8
330
17
100
AcDbEntity
  8
0
100
AcDbLine
 10
3.654733382161448
 20
27.760456118466692
 30
1.0
 11
4.108453284750129
 21
27.696942279013868
 31
1.0
  0
LINE
  5
1F9
330
17
100
AcDbEntity
  8
0
100
AcDbLine
 10
3.2000350190717004
 20
27.816537812544443
 30
1.0
 11
3.654733382161448
 21
27.760456118466692
 31
1.0
  0
LINE
  5
1FA
330
17
100
AcDbEntity
  8
0
100
AcDbLine
 10
2.7444799292276953
 20
27.865172346821513
 30
1.0
 11
3.2000350190717004
 21
27.816537812544443
 31
1.0
  0
LINE
  5
1FB
330
17
100
AcDbEntity
  8
0
100
AcDbLine
 10
2.2881900757427127
 20
27.90634670065705
 30
1.0
 11
2.7444799292276953
 21
27.865172346821513
 31
1.0
  0
LINE
  5
1FC
330
17
100
AcDbEntity
  8
0
100
AcDbLine
 10
1.8312876184440054
 20
27.940049850680897
 30
1.0
 11
2.2881900757427127
 21
27.90634670065705
 31
1.0
  0
LINE
  5
1FD
330
17
100
AcDbEntity
  8
0
100
AcDbLine
 10
1.3738948811677076
 20
27.966272773744826
 30
1.0
 11
1.8312876184440054
 21
27.940049850680897
 31
1.0
  0
LINE
  5
1FE
330
17
100
AcDbEntity
  8
0
100
AcDbLine
 10
0.9161343190097326
 20
27.98500844933824
 30
1.0
 11
1.3738948811677076
 21
27.966272773744826
 31
1.0
  0
LINE
  5
1FF
330
17
100
AcDbEntity
  8
0
100
AcDbLine
 10
0.4581284855416342
 20
27.99625186146773
 30
1.0
 11
0.9161343190097326
 21
27.98500844933824
 31
1.0
  0
LINE
  5
200
330
17
100
AcDbEntity
  8
0
100
AcDbLine
 10
1.7145055188062944e-15
 20
28.0
 30
1.0
 11
0.4581284855416342
 21
27.99625186146773
 31
1.0
  0
LINE
  5
201
330
17
100
AcDbEntity
  8
0
100
AcDbLine
 10
-0.4581284855416245
 20
27.99625186146773
 30
1.0
 11
1.7280221090752916e-15
 21
28.0
 31
1.0
  0
LINE
  5
202
330
17
100
AcDbEntity
  8
0
100
AcDbLine
 10
-0.9161343190097291
 20
27.98500844933824
 30
1.0
 11
-0.4581284855416245
 21
27.99625186146773
 31
1.0
  0
LINE
  5
203
330
17
100
AcDbEntity
  8
0
100
AcDbLine
 10
-1.3738948811677043
 20
27.966272773744826
 30
1.0
 11
-0.9161343190097291
 21
27.98500844933824
 31
1.0
  0
LINE
  5
204
330
17
100
AcDbEntity
  8
0
100
AcDbLine
 10
-1.831287618444002
 20
27.940049850680897
 30
1.0
 11
-1.3738948811677043
 21
27.966272773744826
 31
1.0
  0
LINE
  5
205
330
17
100
AcDbEntity
  8
0
100
AcDbLine
 10
-2.288190075742709
 20
27.90634670065705
 30
1.0
 11
-1.831287618444002
 21
27.940049850680897
 31
1.0
  0
LINE
  5
206
330
17
100
AcDbEntity
  8
0
100
AcDbLine
 10
-2.744479929227692
 20
27.865172346821513
 30
1.0
 11
-2.288190075742709
 21
27.90634670065705
 31
1.0
  0
LINE
  5
207
330
17
100
AcDbEntity
  8
0
100
AcDbLine
 10
-3.200035019071697
 20
27.816537812544443
 30
1.0
 11
-2.744479929227692
 21
27.865172346821513
 31
1.0
  0
LINE
  5
208
330
17
100
AcDbEntity
  8
0
100
AcDbLine
 10
-3.6547333821614387
 20
27.760456118466692
 30
1.0
 11
-3.200035019071697
 21
27.816537812544443
 31
1.0
  0
LINE
  5
209
330
17
100
AcDbEntity
  8
0
100
AcDbLine
 10
-4.108453284750126
 20
27.696942279013868
 30
1.0
 11
-3.6547333821614387
 21
27.760456118466692
 31
1.0
  0
LINE
  5
20A
330
17
100
AcDbEntity
  8
0
100
AcDbLine
 10
-4.561073255048478
 20
27.626013298376613
 30
1.0
 11
-4.108453284750126
 21
27.696942279013868
 31
1.0
  0
LINE
  5
20B
330
17
100
AcDbEntity
  8
0
100
AcDbLine
 10
-5.012472115745717
 20
27.547688165958167
 30
1.0
 11
-4.561073255048478
 21
27.626013298376613
 31
1.0
  0
LINE
  5
20C
330
17
100
AcDbEntity
  8
0
100
AcDbLine
 10
-5.462529016451583
 20
27.461987851290456
 30
1.0
 11
-5.012472115745717
 21
27.547688165958167
 31
1.0
  0
LINE
  5
20D
330
17
100
AcDbEntity
  8
0
100
AcDbLine
 10
-5.911123466051025
 20
27.368935298420013
 30
1.0
 11
-5.462529016451583
 21
27.461987851290456
 31
1.0
  0
LINE
  5
20E
330
17
100
AcDbEntity
  8
0
100
AcDbLine
 10
-6.358135364962453
 20
27.26855541976534
 30
1.0
 11
-5.911123466051025
 21
27.368935298420013
 31
1.0
  0
LINE
  5
20F
330
17
100
AcDbEntity
  8
0
100
AcDbLine
 10
-6.803445037291389
 20
27.16087508944723
 30
1.0
 11
-6.358135364962453
 21
27.26855541976534
 31
1.0
  0
LINE
  5
210
330
17
100
AcDbEntity
  8
0
100
AcDbLine
 10
-7.246933262870584
 20
27.04592313609391
 30
1.0
 11
-6.803445037291389
 21
27.16087508944723
 31
1.0
  0
LINE
  5
211
330
17
100
AcDbEntity
  8
0
100
AcDbLine
 10
-10.352761804100833
 20
38.63703305156273
 30
1.0
 11
-7.246933262870584
 21
27.04592313609391
 31
1.0
  0
LINE
  5
212
330
17
100
AcDbEntity
  8
0
100
AcDbLine
 10
-9.719207196130554
 20
38.801250127781756
 30
1.0
 11
-10.352761804100833
 21
38.63703305156273
 31
1.0
  0
LINE
  5
213
330
17
100
AcDbEntity
  8
0
100
AcDbLine
 10
-9.083050521374933
 20
38.955079171093345
 30
1.0
 11
-9.719207196130554
 21
38.801250127781756
 31
1.0
  0
LINE
  5
214
330
17
100
AcDbEntity
  8
0
100
AcDbLine
 10
-8.444462094358608
 20
39.09847899774287
 30
1.0
 11
-9.083050521374933
 21
38.955079171093345
 31
1.0
  0
LINE
  5
215
330
17
100
AcDbEntity
  8
0
100
AcDbLine
 10
-7.803612880645119
 20
39.231411216129224
 30
1.0
 11
-8.444462094358608
 21
39.09847899774287
 31
1.0
  0
LINE
  5
216
330
17
100
AcDbEntity
  8
0
100
AcDbLine
 10
-7.16067445106531
 20
39.3538402370831
 30
1.0
 11
-7.803612880645119
 21
39.231411216129224
 31
1.0
  0
LINE
  5
217
330
17
100
AcDbEntity
  8
0
100
AcDbLine
 10
-6.515818935783539
 20
39.46573328339517
 30
1.0
 11
-7.16067445106531
 21
39.3538402370831
 31
1.0
  0
LINE
  5
218
330
17
100
AcDbEntity
  8
0
100
AcDbLine
 10
-5.869218978214466
 20
39.56706039859124
 30
1.0
 11
-6.515818935783539
 21
39.46573328339517
 31
1.0
  0
LINE
  5
219
330
17
100
AcDbEntity
  8
0
100
AcDbLine
 10
-5.221047688802055
 20
39.65779445495242
 30
1.0
 11
-5.869218978214466
 21
39.56706039859124
 31
1.0
  0
LINE
  5
21A
330
17
100
AcDbEntity
  8
0
100
AcDbLine
 10
-4.571478598673853
 20
39.73791116077778
 30
1.0
 11
-5.221047688802055
 21
39.65779445495242
 31
1.0
  0
LINE
  5
21B
330
17
100
AcDbEntity
  8
0
100
AcDbLine
 10
-3.920685613182417
 20
39.80738906688788
 30
1.0
 11
-4.571478598673853
 21
39.73791116077778
 31
1.0
  0
LINE
  5
21C
330
17
100
AcDbEntity
  8
0
100
AcDbLine
 10
-3.2688429653467272
 20
39.86620957236721
 30
1.0
 11
-3.920685613182417
 21
39.80738906688788
 31
1.0
  0
LINE
  5
21D
330
17
100
AcDbEntity
  8
0
100
AcDbLine
 10
-2.616125169205717
 20
39.91435692954414
 30
1.0
 11
-3.2688429653467272
 21
39.86620957236721
 31
1.0
  0
LINE
  5
21E
330
17
100
AcDbEntity
  8
0
100
AcDbLine
 10
-1.9627069730967204
 20
39.9518182482069
 30
1.0
 11
-2.616125169205717
 21
39.91435692954414
 31
1.0
  0
LINE
  5
21F
330
17
100
AcDbEntity
  8
0
100
AcDbLine
 10
-1.3087633128710416
 20
39.97858349905463
 30
1.0
 11
-1.9627069730967204
 21
39.9518182482069
 31
1.0
  0
LINE
  5
220
330
17
100
AcDbEntity
  8
0
100
AcDbLine
 10
-0.6544692650594636
 20
39.99464551638247
 30
1.0
 11
-1.3087633128710416
 21
39.97858349905463
 31
1.0
  0
LINE
  5
221
330
17
100
AcDbEntity
  8
0
100
AcDbLine
 10
2.4492935982947065e-15
 20
40.0
 30
1.0
 11
-0.6544692650594636
 21
39.99464551638247
 31
1.0
  0
LINE
  5
222
330
17
100
AcDbEntity
  8
0
100
AcDbLine
 10
0.6544692650594774
 20
39.99464551638247
 30
1.0
 11
2.416679249391094e-15
 21
40.0
 31
1.0
  0
LINE
  5
223
330
17
100
AcDbEntity
  8
0
100
AcDbLine
 10
1.3087633128710465
 20
39.97858349905463
 30
1.0
 11
0.6544692650594774
 21
39.99464551638247
 31
1.0
  0
LINE
  5
224
330
17
100
AcDbEntity
  8
0
100
AcDbLine
 10
1.962706973096725
 20
39.9518182482069
 30
1.0
 11
1.3087633128710465
 21
39.97858349905463
 31
1.0
  0
LINE
  5
225
330
17
100
AcDbEntity
  8
0
100
AcDbLine
 10
2.6161251692057217
 20
39.91435692954414
 30
1.0
 11
1.962706973096725
 21
39.9518182482069
 31
1.0
  0
LINE
  5
226
330
17
100
AcDbEntity
  8
0
100
AcDbLine
 10
3.268842965346732
 20
39.86620957236721
 30
1.0
 11
2.6161251692057217
 21
39.91435692954414
 31
1.0
  0
LINE
  5
227
330
17
100
AcDbEntity
  8
0
100
AcDbLine
 10
3.920685613182422
 20
39.80738906688788
 30
1.0
 11
3.268842965346732
 21
39.86620957236721
 31
1.0
  0
LINE
  5
228
330
17
100
AcDbEntity
  8
0
100
AcDbLine
 10
4.571478598673858
 20
39.73791116077778
 30
1.0
 11
3.920685613182422
 21
39.80738906688788
 31
1.0
  0
LINE
  5
229
330
17
100
AcDbEntity
  8
0
100
AcDbLine
 10
5.221047688802068
 20
39.657794454952416
 30
1.0
 11
4.571478598673858
 21
39.73791116077778
 31
1.0
  0
LINE
  5
22A
330
17
100
AcDbEntity
  8
0
100
AcDbLine
 10
5.8692189782144695
 20
39.56706039859124
 30
1.0
 11
5.221047688802068
 21
39.657794454952416
 31
1.0
  0
LINE
  5
22B
330
17
100
AcDbEntity
  8
0
100
AcDbLine
 10
6.515818935783553
 20
39.46573328339516
 30
1.0
 11
5.8692189782144695
 21
39.56706039859124
 31
1.0
  0
LINE
  5
22C
330
17
100
AcDbEntity
  8
0
100
AcDbLine
 10
7.160674451065305
 20
39.3538402370831
 30
1.0
 11
6.515818935783553
 21
39.46573328339516
 31
1.0
  0
LINE
  5
22D
330
17
100
AcDbEntity
  8
0
100
AcDbLine
 10
7.803612880645133
 20
39.23141121612922
 30
1.0
 11
7.160674451065305
 21
39.3538402370831
 31
1.0
  0
LINE
  5
22E
330
17
100
AcDbEntity
  8
0
100
AcDbLine
 10
8.444462094358613
 20
39.09847899774287
 30
1.0
 11
7.803612880645133
 21
39.23141121612922
 31
1.0
  0
LINE
  5
22F
330
17
100
AcDbEntity
  8
0
100
AcDbLine
 10
9.083050521374929
 20
38.955079171093345
 30
1.0
 11
8.444462094358613
 21
39.09847899774287
 31
1.0
  0
LINE
  5
230
330
17
100
AcDbEntity
  8
0
100
AcDbLine
 10
9.71920719613056
 20
38.801250127781756
 30
1.0
 11
9.083050521374929
 21
38.955079171093345
 31
1.0
  0
LINE
  5
231
330
17
100
AcDbEntity
  8
0
100
AcDbLine
 10
-10.818534303091848
 20
35.3191069469887
 30
1.0
 11
-22.206574742935572
 21
63.505496125819036
 31
1.0
  0
LINE
  5
232
330
17
100
AcDbEntity
  8
0
100
AcDbLine
 10
-14.083286559433134
 20
34.000061414572315
 30
1.0
 11
-10.818534303091846
 21
35.3191069469887
 31
1.0
  0
LINE
  5
233
330
17
100
AcDbEntity
  8
0
100
AcDbLine
 10
-17.324521059453073
 20
32.62423899588413
 30
1.0
 11
-14.083286559433136
 21
34.00006141457232
 31
1.0
  0
LINE
  5
234
330
17
100
AcDbEntity
  8
0
100
AcDbLine
 10
-29.202747365526996
 20
60.60758654083831
 30
1.0
 11
-17.32452105945307
 21
32.62423899588413
 31
1.0
  0
LINE
  5
235
330
17
100
AcDbEntity
  8
0
100
AcDbLine
 10
-28.123461948070833
 20
61.06571602005073
 30
1.0
 11
-29.202747365526996
 21
60.60758654083832
 31
1.0
  0
LINE
  5
236
330
17
100
AcDbEntity
  8
0
100
AcDbLine
 10
-28.14055141216301
 20
61.1080139279572
 30
1.0
 11
-28.123461948070833
 21
61.06571602005073
 31
1.0
  0
LINE
  5
237
330
17
100
AcDbEntity
  8
0
100
AcDbLine
 10
-25.717305891139993
 20
62.08706867008808
 30
1.0
 11
-28.140551412163013
 21
61.1080139279572
 31
1.0
  0
LINE
  5
238
330
17
100
AcDbEntity
  8
0
100
AcDbLine
 10
-23.31151630343138
 20
63.10826576316967
 30
1.0
 11
-25.717305891139993
 21
62.08706867008807
 31
1.0
  0
LINE
  5
239
330
17
100
AcDbEntity
  8
0
100
AcDbLine
 10
-23.293691241867137
 20
63.06627254971259
 30
1.0
 11
-23.311516303431382
 21
63.10826576316967
 31
1.0
  0
LINE
  5
23A
330
17
100
AcDbEntity
  8
0
100
AcDbLine
 10
-22.206574742935572
 20
63.505496125819036
 30
1.0
 11
-23.293691241867133
 21
63.066272549712586
 31
1.0
  0
LINE
  5
23B
330
17
100
AcDbEntity
  8
0
100
AcDbLine
 10
34.64101615137755
 20
19.999999999999996
 30
1.0
 11
34.30914440001088
 21
20.564109767728873
 31
1.0
  0
LINE
  5
23C
330
17
100
AcDbEntity
  8
0
100
AcDbLine
 10
24.248711305964285
 20
13.999999999999998
 30
1.0
 11
34.64101615137755
 21
19.999999999999996
 31
1.0
  0
LINE
  5
23D
330
17
100
AcDbEntity
  8
0
100
AcDbLine
 10
24.016401080007615
 20
14.394876837410209
 30
1.0
 11
24.248711305964285
 21
13.999999999999998
 31
1.0
  0
LINE
  5
23E
330
17
100
AcDbEntity
  8
0
100
AcDbLine
 10
23.77766108274421
 20
14.785899818210304
 30
1.0
 11
24.016401080007615
 21
14.394876837410209
 31
1.0
  0
LINE
  5
23F
330
17
100
AcDbEntity
  8
0
100
AcDbLine
 10
23.532555230644263
 20
15.17296425609305
 30
1.0
 11
23.77766108274421
 21
14.785899818210304
 31
1.0
  0
LINE
  5
240
330
17
100
AcDbEntity
  8
0
100
AcDbLine
 10
23.281149144471268
 20
15.555966524548861
 30
1.0
 11
23.532555230644263
 21
15.17296425609305
 31
1.0
  0
LINE
  5
241
330
17
100
AcDbEntity
  8
0
100
AcDbLine
 10
23.023510131713703
 20
15.934804084609151
 30
1.0
 11
23.281149144471268
 21
15.555966524548861
 31
1.0
  0
LINE
  5
242
330
17
100
AcDbEntity
  8
0
100
AcDbLine
 10
22.759707168565225
 20
16.30937551229846
 30
1.0
 11
23.023510131713703
 21
15.934804084609151
 31
1.0
  0
LINE
  5
243
330
17
100
AcDbEntity
  8
0
100
AcDbLine
 10
22.48981088145806
 20
16.679580525788133
 30
1.0
 11
22.759707168565225
 21
16.30937551229846
 31
1.0
  0
LINE
  5
244
330
17
100
AcDbEntity
  8
0
100
AcDbLine
 10
22.213893528154586
 20
17.04532001224418
 30
1.0
 11
22.48981088145806
 21
16.679580525788133
 31
1.0
  0
LINE
  5
245
330
17
100
AcDbEntity
  8
0
100
AcDbLine
 10
21.93202897840221
 20
17.40649605436217
 30
1.0
 11
22.213893528154586
 21
17.04532001224418
 31
1.0
  0
LINE
  5
246
330
17
100
AcDbEntity
  8
0
100
AcDbLine
 10
21.644292694156636
 20
17.763011956582073
 30
1.0
 11
21.93202897840221
 21
17.40649605436217
 31
1.0
  0
LINE
  5
247
330
17
100
AcDbEntity
  8
0
100
AcDbLine
 10
21.35076170937887
 20
18.114772270976008
 30
1.0
 11
21.644292694156636
 21
17.763011956582073
 31
1.0
  0
LINE
  5
248
330
17
100
AcDbEntity
  8
0
100
AcDbLine
 10
21.05151460941137
 20
18.461682822801926
 30
1.0
 11
21.35076170937887
 21
18.114772270976008
 31
1.0
  0
LINE
  5
249
330
17
100
AcDbEntity
  8
0
100
AcDbLine
 10
20.746631509938855
 20
18.803650735716516
 30
1.0
 11
21.05151460941137
 21
18.461682822801926
 31
1.0
  0
LINE
  5
24A
330
17
100
AcDbEntity
  8
0
100
AcDbLine
 10
20.436194035539398
 20
19.140584456640394
 30
1.0
 11
20.746631509938855
 21
18.803650735716516
 31
1.0
  0
LINE
  5
24B
330
17
100
AcDbEntity
  8
0
100
AcDbLine
 10
20.120285297831547
 20
19.472393780269126
 30
1.0
 11
20.436194035539398
 21
19.140584456640394
 31
1.0
  0
LINE
  5
24C
330
17
100
AcDbEntity
  8
0
100
AcDbLine
 10
19.79898987322333
 20
19.798989873223327
 30
1.0
 11
20.120285297831547
 21
19.472393780269126
 31
1.0
  0
LINE
  5
24D
330
17
100
AcDbEntity
  8
0
100
AcDbLine
 10
19.472393780269126
 20
20.120285297831547
 30
1.0
 11
19.79898987322333
 21
19.798989873223327
 31
1.0
  0
LINE
  5
24E
330
17
100
AcDbEntity
  8
0
100
AcDbLine
 10
19.140584456640397
 20
20.436194035539398
 30
1.0
 11
19.472393780269126
 21
20.120285297831547
 31
1.0
  0
LINE
  5
24F
330
17
100
AcDbEntity
  8
0
100
AcDbLine
 10
18.803650735716516
 20
20.74663150993885
 30
1.0
 11
19.140584456640397
 21
20.436194035539398
 31
1.0
  0
LINE
  5
250
330
17
100
AcDbEntity
  8
0
100
AcDbLine
 10
18.46168282280193
 20
21.051514609411367
 30
1.0
 11
18.803650735716516
 21
20.74663150993885
 31
1.0
  0
LINE
  5
251
330
17
100
AcDbEntity
  8
0
100
AcDbLine
 10
18.11477227097601
 20
21.350761709378865
 30
1.0
 11
18.46168282280193
 21
21.051514609411367
 31
1.0
  0
LINE
  5
252
330
17
100
AcDbEntity
  8
0
100
AcDbLine
 10
17.763011956582076
 20
21.644292694156633
 30
1.0
 11
18.11477227097601
 21
21.350761709378865
 31
1.0
  0
LINE
  5
253
330
17
100
AcDbEntity
  8
0
100
AcDbLine
 10
17.406496054362165
 20
21.93202897840221
 30
1.0
 11
17.763011956582076
 21
21.644292694156633
 31
1.0
  0
LINE
  5
254
330
17
100
AcDbEntity
  8
0
100
AcDbLine
 10
17.04532001224418
 20
22.213893528154586
 30
1.0
 11
17.406496054362165
 21
21.93202897840221
 31
1.0
  0
LINE
  5
255
330
17
100
AcDbEntity
  8
0
100
AcDbLine
 10
16.679580525788133
 20
22.48981088145806
 30
1.0
 11
17.04532001224418
 21
22.213893528154586
 31
1.0
  0
LINE
  5
256
330
17
100
AcDbEntity
  8
0
100
AcDbLine
 10
16.30937551229846
 20
22.759707168565228
 30
1.0
 11
16.679580525788133
 21
22.48981088145806
 31
1.0
  0
LINE
  5
257
330
17
100
AcDbEntity
  8
0
100
AcDbLine
 10
15.934804084609151
 20
23.023510131713703
 30
1.0
 11
16.30937551229846
 21
22.759707168565228
 31
1.0
  0
LINE
  5
258
330
17
100
AcDbEntity
  8
0
100
AcDbLine
 10
15.555966524548865
 20
23.281149144471268
 30
1.0
 11
15.934804084609151
 21
23.023510131713703
 31
1.0
  0
LINE
  5
259
330
17
100
AcDbEntity
  8
0
100
AcDbLine
 10
15.17296425609305
 20
23.532555230644263
 30
1.0
 11
15.555966524548865
 21
23.281149144471268
 31
1.0
  0
LINE
  5
25A
330
17
100
AcDbEntity
  8
0
100
AcDbLine
 10
14.785899818210307
 20
23.77766108274421
 30
1.0
 11
15.17296425609305
 21
23.532555230644263
 31
1.0
  0
LINE
  5
25B
330
17
100
AcDbEntity
  8
0
100
AcDbLine
 10
14.394876837410212
 20
24.016401080007615
 30
1.0
 11
14.785899818210307
 21
23.77766108274421
 31
1.0
  0
LINE
  5
25C
330
17
100
AcDbEntity
  8
0
100
AcDbLine
 10
14.000000000000004
 20
24.24871130596428
 30
1.0
 11
14.394876837410212
 21
24.016401080007615
 31
1.0
  0
LINE
  5
25D
330
17
100
AcDbEntity
  8
0
100
AcDbLine
 10
20.000000000000004
 20
34.64101615137754
 30
1.0
 11
14.000000000000004
 21
24.24871130596428
 31
1.0
  0
LINE
  5
25E
330
17
100
AcDbEntity
  8
0
100
AcDbLine
 10
20.564109767728876
 20
34.30914440001088
 30
1.0
 11
20.000000000000004
 21
34.64101615137754
 31
1.0
  0
LINE
  5
25F
330
17
100
AcDbEntity
  8
0
100
AcDbLine
 10
21.122714026014723
 20
33.968087261063154
 30
1.0
 11
20.564109767728876
 21
34.30914440001088
 31
1.0
  0
LINE
  5
260
330
17
100
AcDbEntity
  8
0
100
AcDbLine
 10
21.675663222990067
 20
33.61793604377752
 30
1.0
 11
21.122714026014723
 21
33.968087261063154
 31
1.0
  0
LINE
  5
261
330
17
100
AcDbEntity
  8
0
100
AcDbLine
 10
22.22280932078409
 20
33.25878449210181
 30
1.0
 11
21.675663222990067
 21
33.61793604377752
 31
1.0
  0
LINE
  5
262
330
17
100
AcDbEntity
  8
0
100
AcDbLine
 10
22.764005835155928
 20
32.890728759591006
 30
1.0
 11
22.22280932078409
 21
33.25878449210181
 31
1.0
  0
LINE
  5
263
330
17
100
AcDbEntity
  8
0
100
AcDbLine
 10
23.299107874712085
 20
32.51386738366461
 30
1.0
 11
22.764005835155928
 21
32.890728759591006
 31
1.0
  0
LINE
  5
264
330
17
100
AcDbEntity
  8
0
100
AcDbLine
 10
23.827972179697333
 20
32.1283012592258
 30
1.0
 11
23.299107874712085
 21
32.51386738366461
 31
1.0
  0
LINE
  5
265
330
17
100
AcDbEntity
  8
0
100
AcDbLine
 10
24.350457160348824
 20
31.734133611649405
 30
1.0
 11
23.827972179697333
 21
32.1283012592258
 31
1.0
  0
LINE
  5
266
330
17
100
AcDbEntity
  8
0
100
AcDbLine
 10
24.86642293480309
 20
31.331469969146013
 30
1.0
 11
24.350457160348824
 21
31.734133611649405
 31
1.0
  0
LINE
  5
267
330
17
100
AcDbEntity
  8
0
100
AcDbLine
 10
25.375731366545825
 20
30.920418134509475
 30
1.0
 11
24.86642293480309
 21
31.331469969146013
 31
1.0
  0
LINE
  5
268
330
17
100
AcDbEntity
  8
0
100
AcDbLine
 10
25.8782461013943
 20
30.501088156255523
 30
1.0
 11
25.375731366545825
 21
30.920418134509475
 31
1.0
  0
LINE
  5
269
330
17
100
AcDbEntity
  8
0
100
AcDbLine
 10
26.373832604002757
 20
30.073592299159095
 30
1.0
 11
25.8782461013943
 21
30.501088156255523
 31
1.0
  0
LINE
  5
26A
330
17
100
AcDbEntity
  8
0
100
AcDbLine
 10
26.862358193880738
 20
29.63804501419836
 30
1.0
 11
26.373832604002757
 21
30.073592299159095
 31
1.0
  0
LINE
  5
26B
330
17
100
AcDbEntity
  8
0
100
AcDbLine
 10
27.343692080914856
 20
29.194562907913422
 30
1.0
 11
26.862358193880738
 21
29.63804501419836
 31
1.0
  0
LINE
  5
26C
330
17
100
AcDbEntity
  8
0
100
AcDbLine
 10
27.81770540038447
 20
28.743264711187923
 30
1.0
 11
27.343692080914856
 21
29.194562907913422
 31
1.0
  0
LINE
  5
26D
330
17
100
AcDbEntity
  8
0
100
AcDbLine
 10
28.284271247461902
 20
28.2842712474619
 30
1.0
 11
27.81770540038447
 21
28.743264711187923
 31
1.0
  0
LINE
  5
26E
330
17
100
AcDbEntity
  8
0
100
AcDbLine
 10
28.743264711187923
 20
27.81770540038447
 30
1.0
 11
28.284271247461902
 21
28.2842712474619
 31
1.0
  0
LINE
  5
26F
330
17
100
AcDbEntity
  8
0
100
AcDbLine
 10
29.194562907913422
 20
27.34369208091485
 30
1.0
 11
28.743264711187923
 21
27.81770540038447
 31
1.0
  0
LINE
  5
270
330
17
100
AcDbEntity
  8
0
100
AcDbLine
 10
29.638045014198365
 20
26.862358193880738
 30
1.0
 11
29.194562907913422
 21
27.34369208091485
 31
1.0
  0
LINE
  5
271
330
17
100
AcDbEntity
  8
0
100
AcDbLine
 10
30.0735922991591
 20
26.373832604002754
 30
1.0
 11
29.638045014198365
 21
26.862358193880738
 31
1.0
  0
LINE
  5
272
330
17
100
AcDbEntity
  8
0
100
AcDbLine
 10
30.501088156255527
 20
25.878246101394296
 30
1.0
 11
30.0735922991591
 21
26.373832604002754
 31
1.0
  0
LINE
  5
273
330
17
100
AcDbEntity
  8
0
100
AcDbLine
 10
30.92041813450948
 20
25.37573136654582
 30
1.0
 11
30.501088156255527
 21
25.878246101394296
 31
1.0
  0
LINE
  5
274
330
17
100
AcDbEntity
  8
0
100
AcDbLine
 10
31.331469969146013
 20
24.866422934803097
 30
1.0
 11
30.92041813450948
 21
25.37573136654582
 31
1.0
  0
LINE
  5
275
330
17
100
AcDbEntity
  8
0
100
AcDbLine
 10
31.734133611649405
 20
24.350457160348824
 30
1.0
 11
31.331469969146013
 21
24.866422934803097
 31
1.0
  0
LINE
  5
276
330
17
100
AcDbEntity
  8
0
100
AcDbLine
 10
32.1283012592258
 20
23.827972179697333
 30
1.0
 11
31.734133611649405
 21
24.350457160348824
 31
1.0
  0
LINE
  5
277
330
17
100
AcDbEntity
  8
0
100
AcDbLine
 10
32.5138673836646
 20
23.299107874712085
 30
1.0
 11
32.1283012592258
 21
23.827972179697333
 31
1.0
  0
LINE
  5
278
330
17
100
AcDbEntity
  8
0
100
AcDbLine
 10
32.890728759591006
 20
22.764005835155928
 30
1.0
 11
32.5138673836646
 21
23.299107874712085
 31
1.0
  0
LINE
  5
279
330
17
100
AcDbEntity
  8
0
100
AcDbLine
 10
33.25878449210181
 20
22.222809320784087
 30
1.0
 11
32.890728759591006
 21
22.764005835155928
 31
1.0
  0
LINE
  5
27A
330
17
100
AcDbEntity
  8
0
100
AcDbLine
 10
33.61793604377752
 20
21.675663222990067
 30
1.0
 11
33.25878449210181
 21
22.222809320784087
 31
1.0
  0
LINE
  5
27B
330
17
100
AcDbEntity
  8
0
100
AcDbLine
 10
33.968087261063154
 20
21.12271402601472
 30
1.0
 11
33.61793604377752
 21
21.675663222990067
 31
1.0
  0
LINE
  5
27C
330
17
100
AcDbEntity
  8
0
100
AcDbLine
 10
34.30914440001088
 20
20.564109767728873
 30
1.0
 11
33.968087261063154
 21
21.12271402601472
 31
1.0
  0
LINE
  5
27D
330
17
100
AcDbEntity
  8
0
100
AcDbLine
 10
35.3191069469887
 20
10.818534303091843
 30
1.0
 11
63.505496125819036
 21
22.20657474293557
 31
1.0
  0
LINE
  5
27E
330
17
100
AcDbEntity
  8
0
100
AcDbLine
 10
34.000061414572016
 20
14.083286559433871
 30
1.0
 11
35.3191069469887
 21
10.818534303091843
 31
1.0
  0
LINE
  5
27F
330
17
100
AcDbEntity
  8
0
100
AcDbLine
 10
32.62423899588413
 20
17.32452105945308
 30
1.0
 11
34.00006141457201
 21
14.083286559433867
 31
1.0
  0
LINE
  5
280
330
17
100
AcDbEntity
  8
0
100
AcDbLine
 10
60.60758654083831
 20
29.202747365527003
 30
1.0
 11
32.62423899588413
 21
17.32452105945308
 31
1.0
  0
LINE
  5
281
330
17
100
AcDbEntity
  8
0
100
AcDbLine
 10
61.06571602005073
 20
28.123461948070833
 30
1.0
 11
60.60758654083832
 21
29.202747365527003
 31
1.0
  0
LINE
  5
282
330
17
100
AcDbEntity
  8
0
100
AcDbLine
 10
61.1080139279572
 20
28.140551412163006
 30
1.0
 11
61.06571602005073
 21
28.12346194807083
 31
1.0
  0
LINE
  5
283
330
17
100
AcDbEntity
  8
0
100
AcDbLine
 10
62.08706867008801
 20
25.717305891140157
 30
1.0
 11
61.1080139279572
 21
28.14055141216301
 31
1.0
  0
LINE
  5
284
330
17
100
AcDbEntity
  8
0
100
AcDbLine
 10
63.10826576316967
 20
23.311516303431386
 30
1.0
 11
62.08706867008801
 21
25.717305891140157
 31
1.0
  0
LINE
  5
285
330
17
100
AcDbEntity
  8
0
100
AcDbLine
 10
63.06627254971258
 20
23.293691241867137
 30
1.0
 11
63.10826576316967
 21
23.311516303431386
 31
1.0
  0
LINE
  5
286
330
17
100
AcDbEntity
  8
0
100
AcDbLine
 10
63.505496125819036
 20
22.20657474293557
 30
1.0
 11
63.066272549712586
 21
23.29369124186714
 31
1.0
  0
LINE
  5
287
330
17
100
AcDbEntity
  8
0
100
AcDbLine
 10
17.324521059453094
 20
32.62423899588412
 30
1.0
 11
29.202747365527014
 21
60.607586540838305
 31
1.0
  0
LINE
  5
288
330
17
100
AcDbEntity
  8
0
100
AcDbLine
 10
14.083286559433347
 20
34.00006141457223
 30
1.0
 11
17.32452105945309
 21
32.62423899588412
 31
1.0
  0
LINE
  5
289
330
17
100
AcDbEntity
  8
0
100
AcDbLine
 10
10.818534303091841
 20
35.3191069469887
 30
1.0
 11
14.083286559433345
 21
34.00006141457223
 31
1.0
  0
LINE
  5
28A
330
17
100
AcDbEntity
  8
0
100
AcDbLine
 10
22.206574742935565
 20
63.505496125819036
 30
1.0
 11
10.818534303091843
 21
35.3191069469887
 31
1.0
  0
LINE
  5
28B
330
17
100
AcDbEntity
  8
0
100
AcDbLine
 10
23.293691241867148
 20
63.06627254971258
 30
1.0
 11
22.20657474293556
 21
63.505496125819036
 31
1.0
  0
LINE
  5
28C
330
17
100
AcDbEntity
  8
0
100
AcDbLine
 10
23.311516303431393
 20
63.10826576316966
 30
1.0
 11
23.293691241867148
 21
63.06627254971258
 31
1.0
  0
LINE
  5
28D
330
17
100
AcDbEntity
  8
0
100
AcDbLine
 10
25.717305891140235
 20
62.08706867008797
 30
1.0
 11
23.311516303431397
 21
63.10826576316966
 31
1.0
  0
LINE
  5
28E
330
17
100
AcDbEntity
  8
0
100
AcDbLine
 10
28.140551412163003
 20
61.1080139279572
 30
1.0
 11
25.71730589114024
 21
62.08706867008798
 31
1.0
  0
LINE
  5
28F
330
17
100
AcDbEntity
  8
0
100
AcDbLine
 10
28.12346194807083
 20
61.065716020050736
 30
1.0
 11
28.140551412163003
 21
61.1080139279572
 31
1.0
  0
LINE
  5
290
330
17
100
AcDbEntity
  8
0
100
AcDbLine
 10
29.202747365527014
 20
60.60758654083831
 30
1.0
 11
28.12346194807083
 21
61.065716020050736
 31
1.0
  0
ENDSEC
  0
SECTION
  2
OBJECTS
  0
DICTIONARY
  5
A
330
0
100
AcDbDictionary
281
1
  3
ACAD_COLOR
350
B
  3
ACAD_GROUP
350
C
  3
ACAD_LAYOUT
350
D
  3
ACAD_MATERIAL
350
E
  3
ACAD_MLEADERSTYLE
350
F
  3
ACAD_MLINESTYLE
350
10
  3
ACAD_PLOTSETTINGS
350
11
  3
ACAD_PLOTSTYLENAME
350
12
  3
ACAD_SCALELIST
350
14
  3
ACAD_TABLESTYLE
350
15
  3
ACAD_VISUALSTYLE
350
16
  3
EZDXF_META
350
2D
  0
DICTIONARY
  5
B
330
A
100
AcDbDictionary
281
1
  0
DICTIONARY
  5
C
330
A
100
AcDbDictionary
281
1
  0
DICTIONARY
  5
D
330
A
100
AcDbDictionary
281
1
  3
Model
350
1A
  3
Layout1
350
1E
  0
DICTIONARY
  5
E
330
A
100
AcDbDictionary
281
1
  3
ByBlock
350
1F
  3
ByLayer
350
20
  3
Global
350
21
  0
DICTIONARY
  5
F
330
A
100
AcDbDictionary
281
1
  3
Standard
350
2C
  0
DICTIONARY
  5
10
330
A
100
AcDbDictionary
281
1
  3
Standard
350
22
  0
DICTIONARY
  5
11
330
A
100
AcDbDictionary
281
1
  0
ACDBDICTIONARYWDFLT
  5
12
330
A
100
AcDbDictionary
281
1
  3
Normal
350
13
100
AcDbDictionaryWithDefault
340
13
  0
ACDBPLACEHOLDER
  5
13
330
12
  0
DICTIONARY
  5
14
330
A
100
AcDbDictionary
281
1
  0
DICTIONARY
  5
15
330
A
100
AcDbDictionary
281
1
  0
DICTIONARY
  5
16
330
A
100
AcDbDictionary
281
1
  0
LAYOUT
  5
1A
330
D
100
AcDbPlotSettings
  1

  4
A3
  6

 40
7.5
 41
20.0
 42
7.5
 43
20.0
 44
420.0
 45
297.0
 46
0.0
 47
0.0
 48
0.0
 49
0.0
140
0.0
141
0.0
142
1.0
143
1.0
 70
1024
 72
1
 73
0
 74
5
  7

 75
16
 76
0
 77
2
 78
300
147
1.0
148
0.0
149
0.0
100
AcDbLayout
  1
Model
 70
1
 71
0
 10
0.0
 20
0.0
 11
420.0
 21
297.0
 12
0.0
 22
0.0
 32
0.0
 14
1e+20
 24
1e+20
 34
1e+20
 15
-1e+20
 25
-1e+20
 35
-1e+20
146
0.0
 13
0.0
 23
0.0
 33
0.0
 16
1.0
 26
0.0
 36
0.0
 17
0.0
 27
1.0
 37
0.0
 76
1
330
17
  0
LAYOUT
  5
1E
330
D
100
AcDbPlotSettings
  1

  4
A3
  6

 40
7.5
 41
20.0
 42
7.5
 43
20.0
 44
420.0
 45
297.0
 46
0.0
 47
0.0
 48
0.0
 49
0.0
140
0.0
141
0.0
142
1.0
143
1.0
 70
0
 72
1
 73
0
 74
5
  7

 75
16
 76
0
 77
2
 78
300
147
1.0
148
0.0
149
0.0
100
AcDbLayout
  1
Layout1
 70
1
 71
1
 10
0.0
 20
0.0
 11
420.0
 21
297.0
 12
0.0
 22
0.0
 32
0.0
 14
1e+20
 24
1e+20
 34
1e+20
 15
-1e+20
 25
-1e+20
 35
-1e+20
146
0.0
 13
0.0
 23
0.0
 33
0.0
 16
1.0
 26
0.0
 36
0.0
 17
0.0
 27
1.0
 37
0.0
 76
1
330
1B
  0
MATERIAL
  5
1F
102
{ACAD_REACTORS
330
E
102
}
330
E
100
AcDbMaterial
  1
ByBlock
  2

 70
0
 40
1.0
 71
1
 41
1.0
 91
-1023410177
 42
1.0
 72
1
  3

 73
1
 74
1
 75
1
 44
0.5
 73
0
 45
1.0
 46
1.0
 77
1
  4

 78
1
 79
1
170
1
 48
1.0
171
1
  6

172
1
173
1
174
1
140
1.0
141
1.0
175
1
  7

176
1
177
1
178
1
143
1.0
179
1
  8

270
1
271
1
272
1
145
1.0
146
1.0
273
1
  9

274
1
275
1
276
1
 42
1.0
 72
1
  3

 73
1
 74
1
 75
1
 94
63
  0
MATERIAL
  5
20
102
{ACAD_REACTORS
330
E
102
}
330
E
100
AcDbMaterial
  1
ByLayer
  2

 70
0
 40
1.0
 71
1
 41
1.0
 91
-1023410177
 42
1.0
 72
1
  3

 73
1
 74
1
 75
1
 44
0.5
 73
0
 45
1.0
 46
1.0
 77
1
  4

 78
1
 79
1
170
1
 48
1.0
171
1
  6

172
1
173
1
174
1
140
1.0
141
1.0
175
1
  7

176
1
177
1
178
1
143
1.0
179
1
  8

270
1
271
1
272
1
145
1.0
146
1.0
273
1
  9

274
1
275
1
276
1
 42
1.0
 72
1
  3

 73
1
 74
1
 75
1
 94
63
  0
MATERIAL
  5
21
102
{ACAD_REACTORS
330
E
102
}
330
E
100
AcDbMaterial
  1
Global
  2

 70
0
 40
1.0
 71
1
 41
1.0
 91
-1023410177
 42
1.0
 72
1
  3

 73
1
 74
1
 75
1
 44
0.5
 73
0
 45
1.0
 46
1.0
 77
1
  4

 78
1
 79
1
170
1
 48
1.0
171
1
  6

172
1
173
1
174
1
140
1.0
141
1.0
175
1
  7

176
1
177
1
178
1
143
1.0
179
1
  8

270
1
271
1
272
1
145
1.0
146
1.0
273
1
  9

274
1
275
1
276
1
 42
1.0
 72
1
  3

 73
1
 74
1
 75
1
 94
63
  0
MLINESTYLE
  5
22
102
{ACAD_REACTORS
330
10
102
}
330
10
100
AcDbMlineStyle
  2
Standard
 70
0
  3

 62
256
 51
90.0
 52
90.0
 71
2
 49
0.5
 62
256
  6
BYLAYER
 49
-0.5
 62
256
  6
BYLAYER
  0
MLEADERSTYLE
  5
2C
102
{ACAD_REACTORS
330
F
102
}
330
F
100
AcDbMLeaderStyle
179
2
170
2
171
1
172
0
 90
2
 40
0.0
 41
0.0
173
1
 91
-1056964608
 92
-2
290
1
 42
2.0
291
1
 43
8.0
  3
Standard
 44
4.0
300

342
29
174
1
175
1
176
0
178
1
 93
-1056964608
 45
4.0
292
0
297
0
 46
4.0
 94
-1056964608
 47
1.0
 49
1.0
140
1.0
294
1
141
0.0
177
0
142
1.0
295
0
296
0
143
3.75
271
0
272
9
273
9
  0
DICTIONARY
  5
2D
330
A
100
AcDbDictionary
280
1
281
1
  3
CREATED_BY_EZDXF
350
2E
  3
WRITTEN_BY_EZDXF
350
294
  0
DICTIONARYVAR
  5
2E
330
2D
100
DictionaryVariables
280
0
  1
1.4.3 @ 2026-01-12T07:19:16.795769+00:00
  0
DICTIONARYVAR
  5
294
330
2D
100
DictionaryVariables
280
0
  1
1.4.3 @ 2026-01-12T07:19:16.813705+00:00
  0
ENDSEC
  0
EOF
